
<svg width="14" height="12" viewBox="0 0 14 12" fill="none" xmlns="http://www.w3.org/2000/svg">
<mask id="mask0_117_2" style="mask-type:alpha" maskUnits="userSpaceOnUse" x="0" y="0" width="12" height="12">
<rect width="12" height="12" fill="#D9D9D9"/>
</mask>
<g mask="url(#mask0_117_2)">
<path d="M7.125 10.7C6.93333 10.8917 6.69583 10.9875 6.4125 10.9875C6.12917 10.9875 5.89167 10.8917 5.7 10.7L1.3 6.3C1.20833 6.20833 1.13542 6.1 1.08125 5.975C1.02708 5.85 1 5.71667 1 5.575V2C1 1.725 1.09792 1.48958 1.29375 1.29375C1.48958 1.09792 1.725 1 2 1H5.575C5.71667 1 5.85 1.02708 5.975 1.08125C6.1 1.13542 6.20833 1.20833 6.3 1.3L10.7 5.7125C10.8917 5.90417 10.9875 6.13958 10.9875 6.41875C10.9875 6.69792 10.8917 6.93333 10.7 7.125L7.125 10.7ZM6.4125 10L9.9875 6.425L5.575 2H2V5.575L6.4125 10ZM3.25 4C3.45833 4 3.63542 3.92708 3.78125 3.78125C3.92708 3.63542 4 3.45833 4 3.25C4 3.04167 3.92708 2.86458 3.78125 2.71875C3.63542 2.57292 3.45833 2.5 3.25 2.5C3.04167 2.5 2.86458 2.57292 2.71875 2.71875C2.57292 2.86458 2.5 3.04167 2.5 3.25C2.5 3.45833 2.57292 3.63542 2.71875 3.78125C2.86458 3.92708 3.04167 4 3.25 4Z" fill="#F35D74" fill-opacity="0.51"/>
</g>
<mask id="mask1_117_2" style="mask-type:alpha" maskUnits="userSpaceOnUse" x="2" y="0" width="12" height="12">
<rect x="2" width="12" height="12" fill="#D9D9D9"/>
</mask>
<g mask="url(#mask1_117_2)">
<path d="M9.125 10.7C8.93333 10.8917 8.69583 10.9875 8.4125 10.9875C8.12917 10.9875 7.89167 10.8917 7.7 10.7L3.3 6.3C3.20833 6.20833 3.13542 6.1 3.08125 5.975C3.02708 5.85 3 5.71667 3 5.575V2C3 1.725 3.09792 1.48958 3.29375 1.29375C3.48958 1.09792 3.725 1 4 1H7.575C7.71667 1 7.85 1.02708 7.975 1.08125C8.1 1.13542 8.20833 1.20833 8.3 1.3L12.7 5.7125C12.8917 5.90417 12.9875 6.13958 12.9875 6.41875C12.9875 6.69792 12.8917 6.93333 12.7 7.125L9.125 10.7ZM8.4125 10L11.9875 6.425L7.575 2H4V5.575L8.4125 10ZM5.25 4C5.45833 4 5.63542 3.92708 5.78125 3.78125C5.92708 3.63542 6 3.45833 6 3.25C6 3.04167 5.92708 2.86458 5.78125 2.71875C5.63542 2.57292 5.45833 2.5 5.25 2.5C5.04167 2.5 4.86458 2.57292 4.71875 2.71875C4.57292 2.86458 4.5 3.04167 4.5 3.25C4.5 3.45833 4.57292 3.63542 4.71875 3.78125C4.86458 3.92708 5.04167 4 5.25 4Z" fill="#F35D74"/>
</g>
</svg>
