<svg width="174" height="68" viewBox="0 0 174 68" fill="none" xmlns="http://www.w3.org/2000/svg">
<g clip-path="url(#clip0_27_429)">
<path d="M126.165 24.0708C130.128 24.0708 133.34 20.8377 133.34 16.8495C133.34 12.8614 130.128 9.6283 126.165 9.6283C122.202 9.6283 118.99 12.8614 118.99 16.8495C118.99 20.8377 122.202 24.0708 126.165 24.0708Z" stroke="#EFEFEF" stroke-width="2"/>
<path d="M126.165 28.885C132.77 28.885 138.124 23.4966 138.124 16.8496C138.124 10.2026 132.77 4.81421 126.165 4.81421C119.56 4.81421 114.206 10.2026 114.206 16.8496C114.206 23.4966 119.56 28.885 126.165 28.885Z" stroke="#FFC3D4" stroke-width="2"/>
<path d="M126.165 33.0974C135.081 33.0974 142.309 25.823 142.309 16.8496C142.309 7.87619 135.081 0.601807 126.165 0.601807C117.249 0.601807 110.021 7.87619 110.021 16.8496C110.021 25.823 117.249 33.0974 126.165 33.0974Z" stroke="#BB2649" stroke-width="2"/>
<path d="M10.9638 54.5975C7.48144 54.5975 4.84095 53.6346 3.04235 51.709C1.28202 49.7833 0.401855 47.357 0.401855 44.43C0.401855 42.3502 0.822804 40.2705 1.6647 38.1908C2.54487 36.0726 3.78858 34.2239 5.39583 32.6449C7.00309 31.0658 8.87823 30.0067 11.0212 29.4675C9.83493 28.6203 8.95476 27.5997 8.38074 26.4057C7.80672 25.1733 7.51971 23.8831 7.51971 22.5352C7.51971 20.5325 8.05546 18.5683 9.12697 16.6426C10.2367 14.717 11.7483 13.1572 13.6617 11.9633C15.6134 10.7308 17.7564 10.1146 20.0908 10.1146C22.5016 10.1146 24.4725 10.7501 26.0032 12.021C27.5339 13.292 28.2993 15.0636 28.2993 17.3359C28.2993 19.0304 27.8783 20.4554 27.0364 21.6108C26.1945 22.7662 25.1995 23.3439 24.0515 23.3439C23.0183 23.3439 22.119 22.824 21.3536 21.7841C22.0424 21.5531 22.6356 20.9176 23.1331 19.8777C23.6306 18.8379 23.8793 17.798 23.8793 16.7582C23.8793 15.6413 23.5732 14.8325 22.9609 14.3318C22.3486 13.7926 21.6023 13.523 20.7222 13.523C19.6124 13.523 18.5983 13.9274 17.6799 14.7362C16.7997 15.5065 16.1109 16.5271 15.6134 17.798C15.1159 19.0304 14.8672 20.3206 14.8672 21.6686C14.8672 23.5172 15.3455 25.1541 16.3022 26.579C17.2589 27.9655 18.7131 28.9091 20.6648 29.4098C18.7131 29.8334 16.9528 30.7963 15.3838 32.2983C13.8148 33.8003 12.5902 35.5526 11.7101 37.5553C10.8299 39.5195 10.3898 41.4067 10.3898 43.2168C10.3898 44.9499 10.8299 46.3556 11.7101 47.434C12.6285 48.5124 14.0061 49.0515 15.843 49.0515C17.7564 49.0515 19.7463 48.5316 21.8128 47.4918C23.9176 46.4134 25.4674 44.9691 26.4624 43.159L27.7826 43.7367C26.2902 47.0489 23.9941 49.687 20.8944 51.6512C17.7947 53.6154 14.4845 54.5975 10.9638 54.5975ZM32.8905 53.9042C30.671 53.9042 28.9298 53.3458 27.6669 52.2289C26.4424 51.0735 25.8301 49.3597 25.8301 47.0874C25.8301 46.1631 25.9257 45.2387 26.1171 44.3144L30.25 24.6726H38.5159L34.383 44.3144C34.1916 45.2772 34.096 45.9705 34.096 46.3941C34.096 47.6651 34.7465 48.3005 36.0476 48.3005C37.808 48.3005 39.4344 47.1837 40.9268 44.9499C42.4575 42.7161 43.6821 40.0587 44.6005 36.9776C45.519 33.8966 45.9782 31.2392 45.9782 29.0054C45.9017 29.198 45.6529 29.352 45.232 29.4675C44.811 29.5446 44.4475 29.5831 44.1413 29.5831C43.4908 29.5831 42.9742 29.275 42.5915 28.6588C42.2471 28.0426 42.0749 27.3686 42.0749 26.6368C42.0749 25.7125 42.3619 24.9615 42.9359 24.3838C43.5482 23.8061 44.4475 23.5172 45.6338 23.5172C46.8966 23.5172 47.8151 23.9987 48.3891 24.9615C48.9631 25.8858 49.2501 27.0797 49.2501 28.5432C49.2501 32.0094 48.657 35.726 47.4706 39.6928C46.2843 43.6212 44.4666 46.9718 42.0175 49.7448C39.5683 52.5177 36.526 53.9042 32.8905 53.9042ZM58.3232 53.9042C55.4914 53.9042 53.291 53.1725 51.722 51.709C50.153 50.2069 49.3685 47.8769 49.3685 44.7188C49.3685 42.0614 49.8851 39.1344 50.9184 35.9378C51.9516 32.7412 53.6354 29.9875 55.9697 27.6767C58.3041 25.3274 61.2702 24.1527 64.8668 24.1527C69.0768 24.1527 71.1816 26.0013 71.1816 29.6986C71.1816 31.8554 70.5693 33.8388 69.3447 35.6489C68.1201 37.459 66.4938 38.9226 64.4649 40.0394C62.4373 41.1178 60.2752 41.734 57.9788 41.8881C57.9023 43.0435 57.864 43.8137 57.864 44.1989C57.864 46.086 58.1893 47.3762 58.8398 48.0695C59.4904 48.7242 60.5431 49.0515 61.9973 49.0515C64.0637 49.0515 65.8241 48.5701 67.2782 47.6073C68.7707 46.6445 70.3971 45.181 72.1574 43.2168H74.1091C69.8613 50.3417 64.5995 53.9042 58.3232 53.9042ZM58.438 39.1151C59.8542 39.0381 61.1936 38.5374 62.4565 37.6131C63.7576 36.6888 64.7908 35.5141 65.5562 34.0891C66.3598 32.6641 66.7616 31.1621 66.7616 29.5831C66.7616 28.004 66.2833 27.2145 65.3266 27.2145C63.9489 27.2145 62.5904 28.4277 61.251 30.854C59.9499 33.2804 59.0121 36.0341 58.438 39.1151ZM92.867 53.9042C90.5327 53.9042 88.8106 53.288 87.7008 52.0556C86.6293 50.7846 86.0936 49.2249 86.0936 47.3762C86.0936 46.5674 86.1892 45.6624 86.3806 44.661C86.5719 43.6212 86.7633 42.6198 86.9546 41.657C87.1842 40.6942 87.3373 40.078 87.4138 39.8084C87.72 38.4604 88.007 37.1317 88.2748 35.8222C88.5427 34.5128 88.6767 33.4537 88.6767 32.6449C88.6767 30.6807 87.9878 29.6986 86.6102 29.6986C85.6152 29.6986 84.7351 30.1993 83.9697 31.2006C83.2043 32.1635 82.592 33.4344 82.1328 35.0135L78.2295 53.5576H69.9636L76.0482 24.6726H84.3141L83.6827 27.6767C85.5961 25.5199 87.8348 24.4416 90.3987 24.4416C92.3504 24.4416 93.9002 24.9807 95.0483 26.0591C96.1963 27.1375 96.7703 28.7743 96.7703 30.9696C96.7703 32.0864 96.6364 33.3381 96.3685 34.7246C96.1007 36.0726 95.718 37.7286 95.2205 39.6928C94.9144 40.8867 94.6273 42.0614 94.3595 43.2168C94.1299 44.3337 94.015 45.2195 94.015 45.8742C94.015 46.6445 94.1872 47.2414 94.5317 47.6651C94.8761 48.0887 95.4692 48.3005 96.3111 48.3005C97.4592 48.3005 98.3776 47.8961 99.0664 47.0874C99.7552 46.2401 100.444 44.9499 101.133 43.2168H103.544C102.128 47.4532 100.482 50.3032 98.6072 51.7667C96.7703 53.1917 94.8569 53.9042 92.867 53.9042ZM106.809 53.9042C104.972 53.9042 103.48 53.3265 102.332 52.1711C101.222 51.0157 100.667 49.2826 100.667 46.9718C100.667 46.009 100.82 44.7573 101.126 43.2168L104.57 26.9834H102.676L103.135 24.6726H105.03L106.752 16.7004L115.247 15.545L113.296 24.6726H116.74L116.28 26.9834H112.836L109.163 44.3144C109.01 44.8921 108.933 45.5083 108.933 46.163C108.933 46.9333 109.105 47.4918 109.45 47.8384C109.832 48.1465 110.445 48.3005 111.286 48.3005C112.396 48.3005 113.429 47.8384 114.386 46.9141C115.343 45.9512 116.032 44.7188 116.453 43.2168H118.864C117.448 47.3762 115.63 50.2069 113.41 51.709C111.191 53.1725 108.99 53.9042 106.809 53.9042ZM126.016 21.5531C124.753 21.5531 123.682 21.1102 122.802 20.2244C121.921 19.3386 121.481 18.2602 121.481 16.9892C121.481 15.7183 121.921 14.6399 122.802 13.7541C123.682 12.8298 124.753 12.3677 126.016 12.3677C127.279 12.3677 128.35 12.8298 129.231 13.7541C130.149 14.6399 130.608 15.7183 130.608 16.9892C130.608 18.2602 130.149 19.3386 129.231 20.2244C128.35 21.1102 127.279 21.5531 126.016 21.5531ZM122.113 53.9042C120.276 53.9042 118.783 53.3265 117.635 52.1711C116.526 51.0157 115.971 49.2826 115.971 46.9718C115.971 46.009 116.124 44.7573 116.43 43.2168L120.333 24.6726H128.599L124.466 44.3144C124.313 44.8921 124.237 45.5083 124.237 46.163C124.237 46.9333 124.409 47.4918 124.753 47.8384C125.136 48.1465 125.748 48.3005 126.59 48.3005C127.7 48.3005 128.733 47.8384 129.69 46.9141C130.647 45.9512 131.335 44.7188 131.756 43.2168H134.167C132.751 47.3762 130.934 50.2069 128.714 51.709C126.494 53.1725 124.294 53.9042 122.113 53.9042ZM126.567 68.0001C124.768 68.0001 123.199 67.4031 121.86 66.2092C120.482 65.0538 119.793 63.5711 119.793 61.7609C119.793 60.1049 120.214 58.7376 121.056 57.6593C121.898 56.5809 122.989 55.7143 124.328 55.0596C125.667 54.4434 127.447 53.7887 129.667 53.0954L136.613 20.1088C137.378 16.4115 138.717 13.8504 140.631 12.4254C142.583 11.0004 144.726 10.2879 147.06 10.2879C148.859 10.2879 150.428 10.8849 151.767 12.0788C153.145 13.2342 153.833 14.717 153.833 16.5271C153.833 17.4129 153.776 18.2024 153.661 18.8956H150.963C151.04 18.0484 151.078 17.5284 151.078 17.3359C151.078 16.7197 150.868 16.2382 150.447 15.8916C150.026 15.545 149.509 15.3717 148.897 15.3717C148.093 15.3717 147.309 15.7376 146.543 16.4693C145.778 17.1626 145.223 18.3757 144.879 20.1088L143.903 24.6726H148.093L147.691 26.9834H143.444L136.842 58.1792C136.077 61.915 134.757 64.4761 132.882 65.8626C131.006 67.2876 128.901 68.0001 126.567 68.0001ZM125.247 62.8586C126.777 62.8586 127.868 61.3565 128.518 58.3525L129.265 55.0018C127.236 55.6951 125.687 56.4846 124.615 57.3704C123.505 58.2947 122.95 59.4886 122.95 60.9521C122.95 61.4143 123.18 61.838 123.639 62.2231C124.099 62.6467 124.634 62.8586 125.247 62.8586ZM155.991 68.0001C154.193 68.0001 152.605 67.4031 151.227 66.2092C149.888 65.0538 149.218 63.5711 149.218 61.7609C149.218 60.0663 149.639 58.6799 150.481 57.6015C151.323 56.5231 152.413 55.6758 153.753 55.0596C155.092 54.4434 156.891 53.7887 159.148 53.0954L159.722 50.5536C157.771 52.7873 155.436 53.9042 152.719 53.9042C150.883 53.9042 149.39 53.3265 148.242 52.1711C147.132 51.0157 146.577 49.2826 146.577 46.9718C146.577 46.009 146.73 44.7573 147.037 43.2168L150.94 24.6726H159.206L155.073 44.3144C154.958 44.7766 154.901 45.258 154.901 45.7587C154.901 47.4532 155.475 48.3005 156.623 48.3005C157.694 48.3005 158.613 47.8576 159.378 46.9718C160.143 46.0475 160.756 44.7958 161.215 43.2168L165.118 24.6726H173.442L166.439 58.1792C165.673 61.8765 164.315 64.4376 162.363 65.8626C160.45 67.2876 158.326 68.0001 155.991 68.0001ZM154.671 62.8586C155.36 62.8586 156.01 62.4927 156.623 61.7609C157.235 61.0677 157.713 59.9315 158.058 58.3525L158.747 54.9441C156.718 55.6373 155.149 56.4461 154.04 57.3704C152.93 58.2947 152.375 59.4886 152.375 60.9521C152.375 61.4143 152.605 61.838 153.064 62.2231C153.523 62.6467 154.059 62.8586 154.671 62.8586Z" fill="white"/>
</g>
<defs>
<clipPath id="clip0_27_429">
<rect width="174" height="68" fill="white"/>
</clipPath>
</defs>
</svg>
