<svg width="210" height="32" viewBox="0 0 210 32" fill="none" xmlns="http://www.w3.org/2000/svg">
<path d="M7.53063 31.72C5.10396 31.72 3.26396 31.0533 2.01063 29.72C0.783958 28.3867 0.170625 26.7067 0.170625 24.68C0.170625 23.24 0.463958 21.8 1.05063 20.36C1.66396 18.8933 2.53063 17.6133 3.65063 16.52C4.77063 15.4267 6.07729 14.6933 7.57063 14.32C6.74396 13.7333 6.13063 13.0267 5.73063 12.2C5.33063 11.3467 5.13063 10.4533 5.13063 9.52C5.13063 8.13333 5.50396 6.77333 6.25063 5.44C7.02396 4.10667 8.07729 3.02667 9.41063 2.2C10.7706 1.34667 12.264 0.919999 13.8906 0.919999C15.5706 0.919999 16.944 1.36 18.0106 2.24C19.0773 3.12 19.6106 4.34666 19.6106 5.92C19.6106 7.09333 19.3173 8.08 18.7306 8.88C18.144 9.68 17.4506 10.08 16.6506 10.08C15.9306 10.08 15.304 9.72 14.7706 9C15.2506 8.84 15.664 8.4 16.0106 7.68C16.3573 6.96 16.5306 6.24 16.5306 5.52C16.5306 4.74667 16.3173 4.18667 15.8906 3.84C15.464 3.46667 14.944 3.28 14.3306 3.28C13.5573 3.28 12.8506 3.56 12.2106 4.12C11.5973 4.65333 11.1173 5.36 10.7706 6.24C10.424 7.09333 10.2506 7.98667 10.2506 8.92C10.2506 10.2 10.584 11.3333 11.2506 12.32C11.9173 13.28 12.9306 13.9333 14.2906 14.28C12.9306 14.5733 11.704 15.24 10.6106 16.28C9.51729 17.32 8.66396 18.5333 8.05063 19.92C7.43729 21.28 7.13063 22.5867 7.13063 23.84C7.13063 25.04 7.43729 26.0133 8.05063 26.76C8.69063 27.5067 9.65063 27.88 10.9306 27.88C12.264 27.88 13.6506 27.52 15.0906 26.8C16.5573 26.0533 17.6373 25.0533 18.3306 23.8L19.2506 24.2C18.2106 26.4933 16.6106 28.32 14.4506 29.68C12.2906 31.04 9.98396 31.72 7.53063 31.72ZM22.81 31.24C21.2633 31.24 20.05 30.8533 19.17 30.08C18.3167 29.28 17.89 28.0933 17.89 26.52C17.89 25.88 17.9567 25.24 18.09 24.6L20.97 11H26.73L23.85 24.6C23.7167 25.2667 23.65 25.7467 23.65 26.04C23.65 26.92 24.1033 27.36 25.01 27.36C26.2367 27.36 27.37 26.5867 28.41 25.04C29.4767 23.4933 30.33 21.6533 30.97 19.52C31.61 17.3867 31.93 15.5467 31.93 14C31.8767 14.1333 31.7033 14.24 31.41 14.32C31.1167 14.3733 30.8633 14.4 30.65 14.4C30.1967 14.4 29.8367 14.1867 29.57 13.76C29.33 13.3333 29.21 12.8667 29.21 12.36C29.21 11.72 29.41 11.2 29.81 10.8C30.2367 10.4 30.8633 10.2 31.69 10.2C32.57 10.2 33.21 10.5333 33.61 11.2C34.01 11.84 34.21 12.6667 34.21 13.68C34.21 16.08 33.7967 18.6533 32.97 21.4C32.1433 24.12 30.8767 26.44 29.17 28.36C27.4633 30.28 25.3433 31.24 22.81 31.24ZM40.5325 31.24C38.5592 31.24 37.0258 30.7333 35.9325 29.72C34.8392 28.68 34.2925 27.0667 34.2925 24.88C34.2925 23.04 34.6525 21.0133 35.3725 18.8C36.0925 16.5867 37.2658 14.68 38.8925 13.08C40.5192 11.4533 42.5858 10.64 45.0925 10.64C48.0258 10.64 49.4925 11.92 49.4925 14.48C49.4925 15.9733 49.0658 17.3467 48.2125 18.6C47.3592 19.8533 46.2258 20.8667 44.8125 21.64C43.3992 22.3867 41.8925 22.8133 40.2925 22.92C40.2392 23.72 40.2125 24.2533 40.2125 24.52C40.2125 25.8267 40.4392 26.72 40.8925 27.2C41.3458 27.6533 42.0792 27.88 43.0925 27.88C44.5325 27.88 45.7592 27.5467 46.7725 26.88C47.8125 26.2133 48.9458 25.2 50.1725 23.84H51.5325C48.5725 28.7733 44.9058 31.24 40.5325 31.24ZM40.6125 21C41.5992 20.9467 42.5325 20.6 43.4125 19.96C44.3192 19.32 45.0392 18.5067 45.5725 17.52C46.1325 16.5333 46.4125 15.4933 46.4125 14.4C46.4125 13.3067 46.0792 12.76 45.4125 12.76C44.4525 12.76 43.5058 13.6 42.5725 15.28C41.6658 16.96 41.0125 18.8667 40.6125 21ZM64.6041 31.24C62.9774 31.24 61.7774 30.8133 61.0041 29.96C60.2574 29.08 59.8841 28 59.8841 26.72C59.8841 26.16 59.9507 25.5333 60.0841 24.84C60.2174 24.12 60.3507 23.4267 60.4841 22.76C60.6441 22.0933 60.7507 21.6667 60.8041 21.48C61.0174 20.5467 61.2174 19.6267 61.4041 18.72C61.5907 17.8133 61.6841 17.08 61.6841 16.52C61.6841 15.16 61.2041 14.48 60.2441 14.48C59.5507 14.48 58.9374 14.8267 58.4041 15.52C57.8707 16.1867 57.4441 17.0667 57.1241 18.16L54.4041 31H48.6441L52.8841 11H58.6441L58.2041 13.08C59.5374 11.5867 61.0974 10.84 62.8841 10.84C64.2441 10.84 65.3241 11.2133 66.1241 11.96C66.9241 12.7067 67.3241 13.84 67.3241 15.36C67.3241 16.1333 67.2307 17 67.0441 17.96C66.8574 18.8933 66.5907 20.04 66.2441 21.4C66.0307 22.2267 65.8307 23.04 65.6441 23.84C65.4841 24.6133 65.4041 25.2267 65.4041 25.68C65.4041 26.2133 65.5241 26.6267 65.7641 26.92C66.0041 27.2133 66.4174 27.36 67.0041 27.36C67.8041 27.36 68.4441 27.08 68.9241 26.52C69.4041 25.9333 69.8841 25.04 70.3641 23.84H72.0441C71.0574 26.7733 69.9107 28.7467 68.6041 29.76C67.3241 30.7467 65.9907 31.24 64.6041 31.24ZM74.1194 31.24C72.7594 31.24 71.746 30.8267 71.0794 30C70.4394 29.1733 70.1194 28.08 70.1194 26.72C70.1194 26.0267 70.1994 25.32 70.3594 24.6L72.9194 12.6H71.5994L71.9194 11H73.2394L74.4394 5.48L80.3594 4.68C80.1194 5.69333 79.986 6.29333 79.9594 6.48C79.7727 7.22667 79.4527 8.73333 78.9994 11H81.3994L81.0794 12.6H78.6794L76.1194 24.6C75.986 25.1867 75.9194 25.6533 75.9194 26C75.9194 26.96 76.386 27.44 77.3194 27.44C77.7994 27.44 78.146 27.4 78.3594 27.32C77.826 28.8667 77.1994 29.9067 76.4794 30.44C75.7594 30.9733 74.9727 31.24 74.1194 31.24ZM105.566 31.68C104.499 31.68 103.566 31.4533 102.766 31C101.993 30.5733 101.606 29.8133 101.606 28.72C101.606 28.0267 101.779 27.2533 102.126 26.4C102.606 26.9333 103.046 27.3067 103.446 27.52C103.873 27.7333 104.326 27.84 104.806 27.84C106.139 27.84 107.126 27.0933 107.766 25.6C108.433 24.1067 108.766 22.4533 108.766 20.64C108.766 17.2533 107.499 15.56 104.966 15.56C104.246 15.56 103.633 15.6 103.126 15.68L99.8459 31H94.0859L99.5259 5.56L105.446 4.76L103.566 13.64H103.806C104.819 13.64 105.766 13.32 106.646 12.68C107.526 12.0133 108.233 11.1867 108.766 10.2C109.299 9.18667 109.566 8.17333 109.566 7.16C109.566 5.93333 109.126 4.90667 108.246 4.08C107.393 3.25333 106.073 2.84 104.286 2.84C102.659 2.84 101.073 3.21333 99.5259 3.96C97.9793 4.68 96.7126 5.77333 95.7259 7.24C94.7659 8.70667 94.2859 10.48 94.2859 12.56C94.2859 13.5467 94.3793 14.24 94.5659 14.64C94.7526 15.0133 94.8459 15.2267 94.8459 15.28C93.4326 15.28 92.3659 15 91.6459 14.44C90.9259 13.8533 90.5659 12.9067 90.5659 11.6C90.5659 9.78667 91.2459 8.06667 92.6059 6.44C93.9659 4.81333 95.7659 3.50667 98.0059 2.52C100.246 1.50666 102.606 0.999998 105.086 0.999998C106.953 0.999998 108.526 1.29333 109.806 1.88C111.086 2.46667 112.033 3.24 112.646 4.2C113.286 5.16 113.606 6.21333 113.606 7.36C113.606 8.58667 113.259 9.77333 112.566 10.92C111.873 12.0667 110.886 13 109.606 13.72C111.206 14.0133 112.393 14.76 113.166 15.96C113.939 17.1333 114.326 18.5333 114.326 20.16C114.326 21.68 114.033 23.3333 113.446 25.12C112.886 26.9067 111.939 28.4533 110.606 29.76C109.299 31.04 107.619 31.68 105.566 31.68ZM120.511 31.24C118.991 31.24 117.724 30.72 116.711 29.68C115.698 28.64 115.191 27.0133 115.191 24.8C115.191 22.8267 115.578 20.76 116.351 18.6C117.151 16.4133 118.324 14.5733 119.871 13.08C121.444 11.56 123.311 10.8 125.471 10.8C126.564 10.8 127.378 10.9867 127.911 11.36C128.444 11.7333 128.711 12.2267 128.711 12.84V13.12L129.151 11H134.911L132.031 24.6C131.924 25 131.871 25.4267 131.871 25.88C131.871 26.4133 131.991 26.8 132.231 27.04C132.498 27.2533 132.924 27.36 133.511 27.36C133.884 27.36 134.178 27.3067 134.391 27.2C133.804 28.6933 133.244 29.7467 132.711 30.36C132.178 30.9467 131.404 31.24 130.391 31.24C129.298 31.24 128.404 30.92 127.711 30.28C127.044 29.6133 126.631 28.6933 126.471 27.52C124.844 30 122.858 31.24 120.511 31.24ZM145.031 13.16H142.791C142.044 13.16 141.484 13.2 141.111 13.28C140.764 13.36 140.591 13.5333 140.591 13.8C140.591 13.8533 140.658 13.92 140.791 14C140.951 14.0533 141.031 14.28 141.031 14.68C141.031 15.3733 140.818 15.9067 140.391 16.28C139.964 16.6267 139.458 16.8 138.871 16.8C138.364 16.8 137.924 16.6533 137.551 16.36C137.204 16.04 137.031 15.6 137.031 15.04C137.031 14.48 137.218 13.88 137.591 13.24C137.991 12.6 138.538 12.0667 139.231 11.64C139.951 11.2133 140.764 11 141.671 11H151.951L142.151 27.92C142.311 27.92 142.604 27.9467 143.031 28C143.938 28.1067 144.658 28.16 145.191 28.16C146.338 28.16 146.964 27.8933 147.071 27.36C146.831 27.3333 146.644 27.2533 146.511 27.12C146.378 26.96 146.311 26.76 146.311 26.52C146.311 26.0933 146.511 25.7067 146.911 25.36C147.311 24.9867 147.858 24.8 148.551 24.8C149.138 24.8 149.578 24.9733 149.871 25.32C150.164 25.6667 150.311 26.1333 150.311 26.72C150.311 27.36 150.111 28.0133 149.711 28.68C149.311 29.3467 148.738 29.9067 147.991 30.36C147.244 30.7867 146.391 31 145.431 31H134.831L145.031 13.16ZM123.111 27.36C123.778 27.36 124.431 27.0533 125.071 26.44C125.738 25.8 126.191 24.9333 126.431 23.84L128.351 14.8C128.351 14.4533 128.218 14.12 127.951 13.8C127.684 13.4533 127.271 13.28 126.711 13.28C125.644 13.28 124.684 13.9067 123.831 15.16C122.978 16.3867 122.311 17.88 121.831 19.64C121.351 21.3733 121.111 22.9067 121.111 24.24C121.111 25.5733 121.298 26.4267 121.671 26.8C122.071 27.1733 122.551 27.36 123.111 27.36ZM156.761 31.24C155.241 31.24 153.974 30.72 152.961 29.68C151.948 28.64 151.441 27.0133 151.441 24.8C151.441 22.8267 151.828 20.76 152.601 18.6C153.401 16.4133 154.574 14.5733 156.121 13.08C157.694 11.56 159.561 10.8 161.721 10.8C162.814 10.8 163.628 10.9867 164.161 11.36C164.694 11.7333 164.961 12.2267 164.961 12.84V13.12L165.401 11H171.161L168.281 24.6C168.174 25 168.121 25.4267 168.121 25.88C168.121 27.0267 168.668 27.6 169.761 27.6C170.508 27.6 171.148 27.2533 171.681 26.56C172.241 25.8667 172.681 24.96 173.001 23.84H174.681C173.694 26.72 172.468 28.68 171.001 29.72C169.561 30.7333 168.108 31.24 166.641 31.24C165.521 31.24 164.614 30.9333 163.921 30.32C163.254 29.68 162.854 28.76 162.721 27.56C161.948 28.6533 161.081 29.5467 160.121 30.24C159.188 30.9067 158.068 31.24 156.761 31.24ZM159.361 27.36C160.028 27.36 160.681 27.0533 161.321 26.44C161.988 25.8 162.441 24.9333 162.681 23.84L164.601 14.8C164.601 14.4533 164.468 14.12 164.201 13.8C163.934 13.4533 163.521 13.28 162.961 13.28C161.894 13.28 160.934 13.9067 160.081 15.16C159.228 16.3867 158.561 17.88 158.081 19.64C157.601 21.3733 157.361 22.9067 157.361 24.24C157.361 25.5733 157.548 26.4267 157.921 26.8C158.321 27.1733 158.801 27.36 159.361 27.36ZM177.816 31.24C176.296 31.24 175.029 30.72 174.016 29.68C173.002 28.64 172.496 27.0133 172.496 24.8C172.496 22.8267 172.882 20.76 173.656 18.6C174.456 16.4133 175.629 14.5733 177.176 13.08C178.749 11.56 180.616 10.8 182.776 10.8C183.869 10.8 184.682 10.9867 185.216 11.36C185.749 11.7333 186.016 12.2267 186.016 12.84V13.12L186.456 11H192.216L189.336 24.6C189.229 25 189.176 25.4267 189.176 25.88C189.176 27.0267 189.722 27.6 190.816 27.6C191.562 27.6 192.202 27.2533 192.736 26.56C193.296 25.8667 193.736 24.96 194.056 23.84H195.736C194.749 26.72 193.522 28.68 192.056 29.72C190.616 30.7333 189.162 31.24 187.696 31.24C186.576 31.24 185.669 30.9333 184.976 30.32C184.309 29.68 183.909 28.76 183.776 27.56C183.002 28.6533 182.136 29.5467 181.176 30.24C180.242 30.9067 179.122 31.24 177.816 31.24ZM180.416 27.36C181.082 27.36 181.736 27.0533 182.376 26.44C183.042 25.8 183.496 24.9333 183.736 23.84L185.656 14.8C185.656 14.4533 185.522 14.12 185.256 13.8C184.989 13.4533 184.576 13.28 184.016 13.28C182.949 13.28 181.989 13.9067 181.136 15.16C180.282 16.3867 179.616 17.88 179.136 19.64C178.656 21.3733 178.416 22.9067 178.416 24.24C178.416 25.5733 178.602 26.4267 178.976 26.8C179.376 27.1733 179.856 27.36 180.416 27.36ZM196.79 11H202.55L202.03 13.48C202.937 12.68 203.75 12.0667 204.47 11.64C205.217 11.2133 206.017 11 206.87 11C207.724 11 208.39 11.2933 208.87 11.88C209.377 12.4667 209.63 13.1733 209.63 14C209.63 14.7733 209.377 15.4533 208.87 16.04C208.364 16.6267 207.657 16.92 206.75 16.92C206.164 16.92 205.764 16.7867 205.55 16.52C205.364 16.2267 205.217 15.8133 205.11 15.28C205.03 14.9333 204.95 14.68 204.87 14.52C204.79 14.36 204.644 14.28 204.43 14.28C203.87 14.28 203.39 14.4 202.99 14.64C202.617 14.8533 202.124 15.24 201.51 15.8L198.31 31H192.55L196.79 11Z" fill="white"/>
</svg>
