<svg width="291" height="113" viewBox="0 0 291 113" fill="none" xmlns="http://www.w3.org/2000/svg">
<g clip-path="url(#clip0_2_42)">
<circle cx="211" cy="28" r="12" stroke="#4B4F5D" stroke-width="2"/>
<circle cx="211" cy="28" r="20" stroke="#6A738B" stroke-width="2"/>
<circle cx="211" cy="28" r="27" stroke="#EFEFEF" stroke-width="2"/>
<path d="M18.336 90.728C12.512 90.728 8.096 89.128 5.088 85.928C2.144 82.728 0.672 78.696 0.672 73.832C0.672 70.376 1.376 66.92 2.784 63.464C4.256 59.944 6.336 56.872 9.024 54.248C11.712 51.624 14.848 49.864 18.432 48.968C16.448 47.56 14.976 45.864 14.016 43.88C13.056 41.832 12.576 39.688 12.576 37.448C12.576 34.12 13.472 30.856 15.264 27.656C17.12 24.456 19.648 21.864 22.848 19.88C26.112 17.832 29.696 16.808 33.6 16.808C37.632 16.808 40.928 17.864 43.488 19.976C46.048 22.088 47.328 25.032 47.328 28.808C47.328 31.624 46.624 33.992 45.216 35.912C43.808 37.832 42.144 38.792 40.224 38.792C38.496 38.792 36.992 37.928 35.712 36.2C36.864 35.816 37.856 34.76 38.688 33.032C39.52 31.304 39.936 29.576 39.936 27.848C39.936 25.992 39.424 24.648 38.4 23.816C37.376 22.92 36.128 22.472 34.656 22.472C32.8 22.472 31.104 23.144 29.568 24.488C28.096 25.768 26.944 27.464 26.112 29.576C25.28 31.624 24.864 33.768 24.864 36.008C24.864 39.08 25.664 41.8 27.264 44.168C28.864 46.472 31.296 48.04 34.56 48.872C31.296 49.576 28.352 51.176 25.728 53.672C23.104 56.168 21.056 59.08 19.584 62.408C18.112 65.672 17.376 68.808 17.376 71.816C17.376 74.696 18.112 77.032 19.584 78.824C21.12 80.616 23.424 81.512 26.496 81.512C29.696 81.512 33.024 80.648 36.48 78.92C40 77.128 42.592 74.728 44.256 71.72L46.464 72.68C43.968 78.184 40.128 82.568 34.944 85.832C29.76 89.096 24.224 90.728 18.336 90.728ZM55.0065 89.576C51.2945 89.576 48.3825 88.648 46.2705 86.792C44.2225 84.872 43.1985 82.024 43.1985 78.248C43.1985 76.712 43.3585 75.176 43.6785 73.64L50.5905 41H64.4145L57.5025 73.64C57.1825 75.24 57.0225 76.392 57.0225 77.096C57.0225 79.208 58.1105 80.264 60.2865 80.264C63.2305 80.264 65.9505 78.408 68.4465 74.696C71.0065 70.984 73.0545 66.568 74.5905 61.448C76.1265 56.328 76.8945 51.912 76.8945 48.2C76.7665 48.52 76.3505 48.776 75.6465 48.968C74.9425 49.096 74.3345 49.16 73.8225 49.16C72.7345 49.16 71.8705 48.648 71.2305 47.624C70.6545 46.6 70.3665 45.48 70.3665 44.264C70.3665 42.728 70.8465 41.48 71.8065 40.52C72.8305 39.56 74.3345 39.08 76.3185 39.08C78.4305 39.08 79.9665 39.88 80.9265 41.48C81.8865 43.016 82.3665 45 82.3665 47.432C82.3665 53.192 81.3745 59.368 79.3905 65.96C77.4065 72.488 74.3665 78.056 70.2705 82.664C66.1745 87.272 61.0865 89.576 55.0065 89.576ZM97.5405 89.576C92.8045 89.576 89.1245 88.36 86.5005 85.928C83.8765 83.432 82.5645 79.56 82.5645 74.312C82.5645 69.896 83.4285 65.032 85.1565 59.72C86.8845 54.408 89.7005 49.832 93.6045 45.992C97.5085 42.088 102.469 40.136 108.484 40.136C115.525 40.136 119.045 43.208 119.045 49.352C119.045 52.936 118.021 56.232 115.973 59.24C113.925 62.248 111.205 64.68 107.812 66.536C104.421 68.328 100.805 69.352 96.9645 69.608C96.8365 71.528 96.7725 72.808 96.7725 73.448C96.7725 76.584 97.3165 78.728 98.4045 79.88C99.4925 80.968 101.253 81.512 103.685 81.512C107.141 81.512 110.085 80.712 112.517 79.112C115.013 77.512 117.733 75.08 120.677 71.816H123.941C116.837 83.656 108.037 89.576 97.5405 89.576ZM97.7325 65C100.101 64.872 102.341 64.04 104.453 62.504C106.629 60.968 108.357 59.016 109.637 56.648C110.981 54.28 111.653 51.784 111.653 49.16C111.653 46.536 110.853 45.224 109.253 45.224C106.949 45.224 104.677 47.24 102.437 51.272C100.261 55.304 98.6925 59.88 97.7325 65ZM155.312 89.576C151.408 89.576 148.528 88.552 146.672 86.504C144.88 84.392 143.984 81.8 143.984 78.728C143.984 77.384 144.144 75.88 144.464 74.216C144.784 72.488 145.104 70.824 145.424 69.224C145.808 67.624 146.064 66.6 146.192 66.152C146.704 63.912 147.184 61.704 147.632 59.528C148.08 57.352 148.304 55.592 148.304 54.248C148.304 50.984 147.152 49.352 144.848 49.352C143.184 49.352 141.712 50.184 140.432 51.848C139.152 53.448 138.128 55.56 137.36 58.184L130.832 89H117.008L127.184 41H141.008L139.952 45.992C143.152 42.408 146.896 40.616 151.184 40.616C154.448 40.616 157.04 41.512 158.96 43.304C160.88 45.096 161.84 47.816 161.84 51.464C161.84 53.32 161.616 55.4 161.168 57.704C160.72 59.944 160.08 62.696 159.248 65.96C158.736 67.944 158.256 69.896 157.808 71.816C157.424 73.672 157.232 75.144 157.232 76.232C157.232 77.512 157.52 78.504 158.096 79.208C158.672 79.912 159.664 80.264 161.072 80.264C162.992 80.264 164.528 79.592 165.68 78.248C166.832 76.84 167.984 74.696 169.136 71.816H173.168C170.8 78.856 168.048 83.592 164.912 86.024C161.84 88.392 158.64 89.576 155.312 89.576ZM178.629 89.576C175.557 89.576 173.061 88.616 171.141 86.696C169.285 84.776 168.357 81.896 168.357 78.056C168.357 76.456 168.613 74.376 169.125 71.816L174.885 44.84H171.717L172.485 41H175.653L178.533 27.752L192.741 25.832L189.477 41H195.237L194.469 44.84H188.709L182.565 73.64C182.309 74.6 182.181 75.624 182.181 76.712C182.181 77.992 182.469 78.92 183.045 79.496C183.685 80.008 184.709 80.264 186.117 80.264C187.973 80.264 189.701 79.496 191.301 77.96C192.901 76.36 194.053 74.312 194.757 71.816H198.789C196.421 78.728 193.381 83.432 189.669 85.928C185.957 88.36 182.277 89.576 178.629 89.576ZM210.751 35.816C208.639 35.816 206.847 35.08 205.375 33.608C203.903 32.136 203.167 30.344 203.167 28.232C203.167 26.12 203.903 24.328 205.375 22.856C206.847 21.32 208.639 20.552 210.751 20.552C212.863 20.552 214.655 21.32 216.127 22.856C217.663 24.328 218.431 26.12 218.431 28.232C218.431 30.344 217.663 32.136 216.127 33.608C214.655 35.08 212.863 35.816 210.751 35.816ZM204.223 89.576C201.151 89.576 198.655 88.616 196.735 86.696C194.879 84.776 193.951 81.896 193.951 78.056C193.951 76.456 194.207 74.376 194.719 71.816L201.247 41H215.071L208.159 73.64C207.903 74.6 207.775 75.624 207.775 76.712C207.775 77.992 208.063 78.92 208.639 79.496C209.279 80.008 210.303 80.264 211.711 80.264C213.567 80.264 215.295 79.496 216.895 77.96C218.495 76.36 219.647 74.312 220.351 71.816H224.383C222.015 78.728 218.975 83.432 215.263 85.928C211.551 88.36 207.871 89.576 204.223 89.576ZM211.672 113C208.664 113 206.04 112.008 203.8 110.024C201.496 108.104 200.344 105.64 200.344 102.632C200.344 99.88 201.048 97.608 202.456 95.816C203.864 94.024 205.688 92.584 207.928 91.496C210.168 90.472 213.144 89.384 216.856 88.232L228.473 33.416C229.753 27.272 231.993 23.016 235.193 20.648C238.457 18.28 242.041 17.096 245.945 17.096C248.953 17.096 251.577 18.088 253.817 20.072C256.121 21.992 257.273 24.456 257.273 27.464C257.273 28.936 257.177 30.248 256.985 31.4H252.473C252.601 29.992 252.665 29.128 252.665 28.808C252.665 27.784 252.313 26.984 251.609 26.408C250.905 25.832 250.041 25.544 249.017 25.544C247.673 25.544 246.361 26.152 245.081 27.368C243.801 28.52 242.873 30.536 242.297 33.416L240.665 41H247.673L247.001 44.84H239.897L228.857 96.68C227.577 102.888 225.369 107.144 222.233 109.448C219.096 111.816 215.576 113 211.672 113ZM209.464 104.456C212.024 104.456 213.848 101.96 214.936 96.968L216.184 91.4C212.792 92.552 210.2 93.864 208.408 95.336C206.552 96.872 205.624 98.856 205.624 101.288C205.624 102.056 206.008 102.76 206.776 103.4C207.544 104.104 208.44 104.456 209.464 104.456ZM260.882 113C257.874 113 255.218 112.008 252.914 110.024C250.674 108.104 249.554 105.64 249.554 102.632C249.554 99.816 250.258 97.512 251.666 95.72C253.074 93.928 254.898 92.52 257.138 91.496C259.378 90.472 262.386 89.384 266.162 88.232L267.122 84.008C263.858 87.72 259.954 89.576 255.41 89.576C252.338 89.576 249.842 88.616 247.922 86.696C246.066 84.776 245.138 81.896 245.138 78.056C245.138 76.456 245.394 74.376 245.906 71.816L252.434 41H266.258L259.346 73.64C259.154 74.408 259.058 75.208 259.058 76.04C259.058 78.856 260.018 80.264 261.938 80.264C263.73 80.264 265.266 79.528 266.546 78.056C267.826 76.52 268.85 74.44 269.618 71.816L276.146 41H290.066L278.354 96.68C277.074 102.824 274.802 107.08 271.538 109.448C268.338 111.816 264.786 113 260.882 113ZM258.674 104.456C259.826 104.456 260.914 103.848 261.938 102.632C262.962 101.48 263.762 99.592 264.338 96.968L265.49 91.304C262.098 92.456 259.474 93.8 257.618 95.336C255.762 96.872 254.834 98.856 254.834 101.288C254.834 102.056 255.218 102.76 255.986 103.4C256.754 104.104 257.65 104.456 258.674 104.456Z" fill="#BB2649"/>
</g>
<defs>
<clipPath id="clip0_2_42">
<rect width="291" height="113" fill="white"/>
</clipPath>
</defs>
</svg>
