<svg width="196" height="196" viewBox="0 0 196 196" fill="none" xmlns="http://www.w3.org/2000/svg">
<g opacity="0.3">
<path d="M45.3386 48.9099L46.1775 51.4893H48.8902L46.695 53.0847L47.5338 55.6641L45.3386 54.0686L43.1434 55.6641L43.9823 53.0847L41.7871 51.4893H44.4997L45.3386 48.9099Z" stroke="black" stroke-miterlimit="10"/>
<path d="M54.1077 48.9099L54.9466 51.4893H57.6592L55.464 53.0847L56.3029 55.6641L54.1077 54.0686L51.9125 55.6641L52.7514 53.0847L50.5562 51.4893H53.2688L54.1077 48.9099Z" stroke="black" stroke-miterlimit="10"/>
<path d="M62.8767 48.9099L63.7156 51.4893H66.4282L64.233 53.0847L65.0719 55.6641L62.8767 54.0686L60.6815 55.6641L61.5204 53.0847L59.3252 51.4893H62.0378L62.8767 48.9099Z" stroke="black" stroke-miterlimit="10"/>
<path d="M71.6458 48.9099L72.4846 51.4893H75.1973L73.0021 53.0847L73.841 55.6641L71.6458 54.0686L69.4506 55.6641L70.2894 53.0847L68.0942 51.4893H70.8069L71.6458 48.9099Z" stroke="black" stroke-miterlimit="10"/>
<path d="M80.4187 48.9099L81.2537 51.4893H83.9663L81.7711 53.0847L82.61 55.6641L80.4187 54.0686L78.2235 55.6641L79.0624 53.0847L76.8672 51.4893H79.5798L80.4187 48.9099Z" stroke="black" stroke-miterlimit="10"/>
<path d="M71.1874 46.4207H83.3394C84.1191 46.4207 84.8669 46.7304 85.4182 47.2818C85.9696 47.8331 86.2794 48.5809 86.2794 49.3607V56.0247C86.2794 56.8044 85.9696 57.5522 85.4182 58.1035C84.8669 58.6549 84.1191 58.9647 83.3394 58.9647H60.0938" stroke="black" stroke-miterlimit="10"/>
<path d="M65.2329 46.4207H69.0235" stroke="black" stroke-miterlimit="10"/>
<path d="M58.0552 58.9647H41.7794C40.9996 58.9647 40.2518 58.6549 39.7005 58.1035C39.1491 57.5522 38.8394 56.8044 38.8394 56.0247V49.3607C38.8394 48.5809 39.1491 47.8331 39.7005 47.2818C40.2518 46.7304 40.9996 46.4207 41.7794 46.4207H62.3907" stroke="black" stroke-miterlimit="10"/>
</g>
<g opacity="0.3">
<path d="M30.3291 137.639L31.5992 140.038L34.2687 139.572L32.3832 141.52L33.6532 143.915L31.215 142.723L29.3295 144.672L29.7097 141.986L27.2754 140.791L29.9449 140.324L30.3291 137.639Z" stroke="black" stroke-miterlimit="10"/>
<path d="M38.9687 136.13L40.2349 138.529L42.9083 138.062L41.0228 140.011L42.2929 142.406L39.8547 141.214L37.9691 143.162L38.3494 140.477L35.9111 139.282L38.5846 138.815L38.9687 136.13Z" stroke="black" stroke-miterlimit="10"/>
<path d="M47.6045 134.621L48.8745 137.02L51.548 136.553L49.6625 138.501L50.9325 140.897L48.4943 139.705L46.6049 141.653L46.989 138.968L44.5508 137.772L47.2242 137.306L47.6045 134.621Z" stroke="black" stroke-miterlimit="10"/>
<path d="M56.2441 133.111L57.5142 135.51L60.1876 135.044L58.2982 136.992L59.5683 139.387L57.1339 138.196L55.2445 140.144L55.6287 137.459L53.1904 136.263L55.8639 135.797L56.2441 133.111Z" stroke="black" stroke-miterlimit="10"/>
<path d="M64.8842 131.602L66.1543 134.001L68.8278 133.535L66.9383 135.483L68.2084 137.878L65.7741 136.687L63.8846 138.635L64.2649 135.95L61.8306 134.754L64.504 134.287L64.8842 131.602Z" stroke="black" stroke-miterlimit="10"/>
<path d="M55.1938 143.503L28.5535 148.176C27.7853 148.309 26.9956 148.132 26.3577 147.684C25.7198 147.236 25.2858 146.553 25.1509 145.785L24.0063 139.199C23.9398 138.819 23.9489 138.429 24.0332 138.053C24.1174 137.676 24.2751 137.32 24.4972 137.004C24.7193 136.688 25.0014 136.42 25.3275 136.213C25.6536 136.007 26.0172 135.866 26.3975 135.801L35.8329 134.15" stroke="black" stroke-miterlimit="10"/>
<path d="M38.416 133.703L67.3495 128.65C67.7297 128.583 68.1194 128.592 68.4963 128.676C68.8732 128.759 69.2299 128.917 69.546 129.138C69.862 129.36 70.1312 129.642 70.3382 129.968C70.5451 130.294 70.6858 130.657 70.7521 131.038L71.8771 137.592C71.9436 137.972 71.9345 138.362 71.8503 138.739C71.7661 139.116 71.6085 139.473 71.3865 139.789C71.1644 140.105 70.8823 140.374 70.5562 140.581C70.2301 140.788 69.8664 140.928 69.4859 140.995L57.2791 143.127" stroke="black" stroke-miterlimit="10"/>
</g>
<g opacity="0.3">
<path d="M126.64 83.1588L127.004 85.8479L129.674 86.334L127.228 87.51L127.592 90.1991L125.719 88.2352L123.273 89.4151L124.558 87.0239L122.685 85.0639L125.354 85.55L126.64 83.1588Z" stroke="black" stroke-miterlimit="10"/>
<path d="M135.268 84.7268L135.632 87.4159L138.302 87.902L135.856 89.078L136.22 91.7671L134.347 89.8032L131.9 90.9792L133.186 88.5919L131.312 86.6319L133.982 87.118L135.268 84.7268Z" stroke="black" stroke-miterlimit="10"/>
<path d="M143.896 86.2948L144.26 88.9839L146.93 89.47L144.484 90.646L144.848 93.3351L142.975 91.3712L140.532 92.5472L141.818 90.1599L139.94 88.1999L142.61 88.6821L143.896 86.2948Z" stroke="black" stroke-miterlimit="10"/>
<path d="M152.528 87.8628L152.888 90.5519L155.558 91.038L153.116 92.214L153.476 94.8992L151.602 92.9392L149.16 94.1152L150.446 91.7279L148.572 89.7679L151.238 90.2501L152.528 87.8628Z" stroke="black" stroke-miterlimit="10"/>
<path d="M161.155 89.4309L161.52 92.12L164.186 92.6022L161.743 93.7821L162.108 96.4673L160.23 94.5073L157.788 95.6833L159.074 93.296L157.2 91.336L159.87 91.8182L161.155 89.4309Z" stroke="black" stroke-miterlimit="10"/>
<path d="M159.881 86.6672L164.467 87.5022C165.232 87.6451 165.908 88.085 166.349 88.7256C166.79 89.3663 166.959 90.1554 166.819 90.9204L165.643 97.4786C165.501 98.243 165.061 98.9197 164.42 99.3605C163.779 99.8013 162.99 99.9703 162.225 99.8306L131.998 94.3426" stroke="black" stroke-miterlimit="10"/>
<path d="M128.913 93.7938L121.344 92.4179C120.579 92.275 119.903 91.8351 119.462 91.1945C119.021 90.5538 118.852 89.7646 118.992 88.9996L120.168 82.4415C120.311 81.6771 120.75 81.0004 121.391 80.5596C122.032 80.1188 122.821 79.9498 123.586 80.0895L157.976 86.3223" stroke="black" stroke-miterlimit="10"/>
</g>
<path d="M129.568 141.622C129.568 141.622 130.03 140.512 130.05 140.446C130.281 139.591 130.23 137.804 129.399 137.263C129.259 137.177 129.102 137.122 128.939 137.101C128.775 137.079 128.61 137.093 128.452 137.14C128.294 137.186 128.148 137.266 128.023 137.373C127.898 137.48 127.796 137.612 127.726 137.761C127.404 138.384 127.6 139.223 127.886 139.819C128.223 140.512 129.568 141.618 129.568 141.622Z" fill="#263238"/>
<path d="M112.147 139.003C112.814 139.395 114.546 139.587 114.546 139.587C114.546 139.587 114.319 138.411 114.296 138.333C114.021 137.494 112.99 136.032 111.995 136.04C111.83 136.046 111.669 136.086 111.521 136.159C111.374 136.231 111.243 136.333 111.137 136.459C111.032 136.585 110.954 136.732 110.908 136.89C110.863 137.048 110.851 137.214 110.873 137.376C110.936 138.074 111.579 138.666 112.147 139.003Z" fill="#263238"/>
<path d="M112.112 144.084C112.83 144.283 114.429 144.037 114.554 144.013C114.697 144.928 114.898 145.833 115.158 146.722C115.307 147.239 115.475 147.757 115.648 148.29C115.534 148.062 115.432 147.866 115.413 147.839C114.923 147.102 113.543 145.961 112.586 146.232C112.43 146.281 112.285 146.363 112.162 146.472C112.039 146.581 111.94 146.715 111.871 146.864C111.803 147.014 111.767 147.176 111.765 147.341C111.763 147.505 111.796 147.668 111.861 147.819C112.116 148.47 112.88 148.874 113.515 149.05C114.151 149.227 115.53 149.05 115.891 148.991C115.962 149.191 116.028 149.383 116.095 149.587C116.428 150.532 116.765 151.473 117.067 152.41C117.173 152.739 117.263 153.064 117.357 153.394C117.255 153.194 117.169 153.029 117.153 153.002C116.663 152.261 115.283 151.124 114.327 151.394C114.17 151.444 114.025 151.526 113.902 151.635C113.779 151.744 113.68 151.877 113.612 152.027C113.543 152.177 113.507 152.339 113.505 152.503C113.504 152.668 113.537 152.831 113.602 152.982C113.857 153.633 114.621 154.036 115.256 154.213C115.891 154.389 117.138 154.213 117.569 154.166C117.655 154.503 117.741 154.844 117.808 155.173C117.851 155.401 117.906 155.62 117.933 155.851C117.961 156.083 118 156.306 118.031 156.53C118.078 156.961 118.129 157.408 118.165 157.831C118.192 158.129 118.212 158.407 118.235 158.693C118.133 158.364 117.918 157.721 117.894 157.67C117.502 156.867 116.326 155.534 115.346 155.655C115.183 155.68 115.028 155.739 114.889 155.828C114.751 155.917 114.632 156.034 114.542 156.171C114.451 156.308 114.391 156.463 114.364 156.626C114.337 156.788 114.344 156.954 114.386 157.114C114.543 157.796 115.232 158.313 115.836 158.584C116.44 158.854 118.055 158.885 118.251 158.885C118.282 159.352 118.31 159.811 118.329 160.242C118.4 161.731 118.404 162.986 118.392 163.848L119.058 163.934V163.856C119.058 162.974 119.019 161.716 118.917 160.207C118.886 159.732 118.843 159.223 118.792 158.701C119.276 158.576 119.752 158.423 120.219 158.243C120.747 158.827 121.352 159.336 122.018 159.756C121.787 160.167 121.559 160.563 121.336 160.932C120.572 162.214 119.889 163.256 119.399 163.978L120.132 164.068C120.591 163.35 121.191 162.386 121.845 161.23C122.081 160.814 122.324 160.367 122.571 159.905C122.751 159.967 124.229 160.465 124.954 160.399C125.613 160.336 126.432 160.073 126.8 159.477C126.892 159.34 126.953 159.185 126.981 159.023C127.008 158.86 127.001 158.693 126.96 158.534C126.919 158.374 126.845 158.225 126.742 158.096C126.64 157.966 126.511 157.86 126.365 157.784C125.471 157.353 123.911 158.227 123.3 158.87C123.265 158.905 122.908 159.36 122.704 159.654C122.806 159.466 122.904 159.281 123.002 159.085C123.206 158.693 123.394 158.301 123.598 157.886C123.688 157.678 123.782 157.47 123.876 157.259C123.97 157.047 124.049 156.824 124.139 156.6C124.335 156.083 124.507 155.553 124.668 155.013C125.005 155.185 126.236 155.797 126.883 155.828C127.53 155.859 128.396 155.73 128.843 155.197C128.953 155.075 129.037 154.931 129.088 154.775C129.139 154.618 129.157 154.453 129.14 154.289C129.124 154.126 129.073 153.967 128.991 153.824C128.91 153.682 128.799 153.558 128.666 153.46C127.851 152.896 126.177 153.527 125.471 154.068C125.428 154.099 124.97 154.546 124.723 154.793C124.817 154.468 124.911 154.142 124.997 153.809C125.244 152.849 125.464 151.869 125.683 150.893L125.895 149.999C126.016 150.065 127.443 150.814 128.184 150.857C128.847 150.893 129.697 150.759 130.144 150.226C130.255 150.104 130.339 149.96 130.391 149.803C130.442 149.647 130.461 149.481 130.444 149.317C130.427 149.152 130.376 148.994 130.294 148.851C130.212 148.707 130.101 148.583 129.968 148.486C129.152 147.921 127.475 148.552 126.773 149.093C126.722 149.136 126.06 149.775 125.899 149.944C126.056 149.289 126.216 148.639 126.401 147.984C126.646 147.123 126.947 146.278 127.302 145.456C127.357 145.487 128.843 146.275 129.603 146.318C130.262 146.357 131.116 146.22 131.563 145.687C131.674 145.565 131.757 145.421 131.809 145.265C131.861 145.109 131.879 144.944 131.863 144.78C131.846 144.617 131.796 144.458 131.715 144.315C131.633 144.172 131.523 144.048 131.391 143.95C130.571 143.386 128.898 144.017 128.196 144.558C128.149 144.593 127.647 145.079 127.412 145.314L127.365 145.283C127.743 144.46 128.194 143.673 128.713 142.931C128.992 142.539 129.282 142.147 129.576 141.79C129.834 141.963 131.038 142.751 131.72 142.868C132.402 142.986 133.233 142.935 133.743 142.457C133.866 142.348 133.966 142.214 134.035 142.064C134.104 141.914 134.14 141.752 134.142 141.587C134.144 141.422 134.111 141.259 134.046 141.107C133.98 140.956 133.884 140.82 133.762 140.708C133.01 140.058 131.277 140.501 130.52 140.963C130.477 140.987 130.089 141.289 129.807 141.512C129.94 141.351 130.074 141.183 130.199 141.034C130.689 140.465 131.175 139.975 131.606 139.544C131.853 139.305 132.085 139.089 132.3 138.89C132.645 138.929 134.045 139.066 134.691 138.858C135.338 138.65 136.067 138.219 136.295 137.561C136.356 137.407 136.383 137.242 136.376 137.077C136.369 136.911 136.327 136.749 136.253 136.601C136.179 136.453 136.075 136.323 135.947 136.218C135.819 136.113 135.67 136.036 135.511 135.993C134.546 135.761 133.21 136.953 132.767 137.714C132.727 137.776 132.222 138.87 132.241 138.89C132.03 139.074 131.802 139.282 131.563 139.505C131.12 139.924 130.622 140.403 130.117 140.963C129.566 141.56 129.05 142.188 128.572 142.845C128.033 143.576 127.561 144.354 127.161 145.169V145.201C127.2 144.915 127.294 144.103 127.294 144.025C127.294 143.139 126.769 141.43 125.824 141.128C125.666 141.082 125.5 141.07 125.337 141.092C125.173 141.114 125.016 141.171 124.876 141.258C124.736 141.345 124.616 141.46 124.523 141.596C124.431 141.733 124.368 141.887 124.339 142.049C124.194 142.735 124.609 143.492 125.04 144.009C125.53 144.574 127 145.244 127.118 145.299C126.732 146.14 126.403 147.006 126.13 147.89C125.969 148.403 125.82 148.925 125.679 149.458C125.711 149.207 125.734 148.984 125.734 148.952C125.734 148.066 125.209 146.353 124.264 146.051C124.106 146.005 123.939 145.993 123.776 146.016C123.612 146.039 123.455 146.095 123.315 146.183C123.175 146.27 123.055 146.386 122.962 146.522C122.87 146.659 122.807 146.814 122.778 146.977C122.633 147.663 123.049 148.419 123.48 148.917C123.911 149.415 125.166 150.026 125.495 150.179C125.444 150.383 125.389 150.571 125.338 150.787C125.095 151.759 124.856 152.747 124.589 153.676C124.495 154.009 124.394 154.334 124.292 154.66C124.315 154.436 124.335 154.248 124.335 154.221C124.335 153.335 123.809 151.626 122.865 151.32C122.706 151.275 122.54 151.263 122.377 151.286C122.214 151.309 122.058 151.366 121.918 151.453C121.778 151.54 121.659 151.656 121.566 151.792C121.474 151.929 121.412 152.083 121.383 152.245C121.238 152.931 121.65 153.688 122.085 154.185C122.52 154.683 123.653 155.236 124.045 155.42C123.931 155.749 123.817 156.079 123.688 156.396C123.598 156.608 123.523 156.82 123.421 157.027L123.131 157.647C122.931 158.039 122.739 158.431 122.52 158.823C122.383 159.081 122.241 159.328 122.104 159.575C122.202 159.246 122.375 158.591 122.383 158.537C122.472 157.762 122.361 156.978 122.061 156.259C122.069 156.173 122.069 156.086 122.061 156C122.062 155.835 122.028 155.672 121.962 155.52C121.895 155.369 121.797 155.234 121.675 155.123C121.552 155.012 121.408 154.928 121.251 154.876C121.094 154.825 120.928 154.807 120.764 154.824C119.78 154.954 118.964 156.545 118.804 157.419C118.804 157.47 118.757 158.039 118.741 158.399C118.717 158.184 118.702 157.976 118.674 157.76C118.631 157.325 118.572 156.894 118.51 156.432C118.47 156.208 118.435 155.981 118.396 155.753C118.357 155.526 118.298 155.295 118.251 155.06C118.129 154.523 117.98 153.982 117.816 153.441C118.208 153.401 119.541 153.237 120.113 152.9C120.685 152.563 121.32 151.986 121.406 151.289C121.431 151.126 121.422 150.96 121.378 150.801C121.335 150.642 121.259 150.494 121.155 150.366C121.05 150.239 120.92 150.135 120.773 150.061C120.626 149.987 120.465 149.944 120.301 149.936C119.309 149.917 118.259 151.367 117.973 152.206C117.973 152.257 117.816 152.884 117.745 153.225C117.647 152.904 117.545 152.578 117.435 152.253C117.11 151.316 116.753 150.379 116.401 149.442C116.291 149.156 116.189 148.87 116.083 148.58C116.216 148.58 117.82 148.407 118.463 148.031C119.035 147.698 119.67 147.114 119.756 146.42C119.781 146.257 119.771 146.091 119.728 145.932C119.685 145.773 119.608 145.625 119.504 145.498C119.4 145.37 119.27 145.266 119.123 145.192C118.976 145.118 118.815 145.075 118.651 145.067C117.659 145.067 116.608 146.498 116.322 147.337C116.299 147.4 116.103 148.298 116.063 148.513C115.828 147.882 115.605 147.247 115.409 146.616C115.138 145.763 114.923 144.894 114.766 144.013C114.829 144.013 116.503 143.844 117.161 143.46C117.733 143.127 118.368 142.547 118.451 141.849C118.476 141.686 118.466 141.52 118.423 141.361C118.379 141.203 118.303 141.055 118.199 140.927C118.095 140.8 117.965 140.695 117.818 140.621C117.671 140.547 117.51 140.505 117.345 140.497C116.354 140.477 115.307 141.928 115.017 142.766C115.017 142.821 114.848 143.507 114.782 143.833H114.727C114.592 142.942 114.537 142.04 114.562 141.14C114.562 140.642 114.605 140.171 114.648 139.709C114.966 139.709 116.405 139.709 117.036 139.427C117.667 139.144 118.337 138.643 118.494 137.964C118.537 137.805 118.545 137.639 118.52 137.477C118.494 137.314 118.435 137.159 118.345 137.021C118.256 136.882 118.139 136.764 118.001 136.674C117.863 136.585 117.708 136.525 117.545 136.498C116.561 136.373 115.362 137.698 114.982 138.498C114.962 138.541 114.801 139.007 114.691 139.348C114.715 139.14 114.735 138.929 114.758 138.729C114.856 137.984 114.989 137.31 115.115 136.714C115.185 136.373 115.26 136.071 115.33 135.785C115.64 135.624 116.898 134.966 117.29 134.436C117.682 133.907 118.074 133.147 117.914 132.476C117.878 132.316 117.809 132.165 117.712 132.032C117.614 131.9 117.49 131.79 117.347 131.708C117.204 131.627 117.045 131.577 116.882 131.56C116.718 131.544 116.553 131.562 116.397 131.614C115.464 131.955 115.009 133.684 115.04 134.57C115.04 134.644 115.229 135.836 115.244 135.828H115.264C115.189 136.099 115.111 136.393 115.036 136.714C114.899 137.31 114.75 137.984 114.644 138.729C114.514 139.531 114.43 140.34 114.394 141.151C114.348 142.058 114.383 142.967 114.499 143.868C114.499 143.868 114.499 143.891 114.499 143.903C114.378 143.641 114.006 142.915 113.974 142.864C113.484 142.124 112.1 140.987 111.148 141.253C110.99 141.302 110.845 141.384 110.721 141.493C110.597 141.602 110.497 141.736 110.428 141.886C110.359 142.037 110.323 142.199 110.321 142.365C110.32 142.53 110.353 142.693 110.419 142.845C110.705 143.503 111.465 143.907 112.112 144.084Z" fill="#263238"/>
<path opacity="0.3" d="M112.147 139.003C112.814 139.395 114.546 139.587 114.546 139.587C114.546 139.587 114.319 138.411 114.296 138.333C114.021 137.494 112.99 136.032 111.995 136.04C111.83 136.046 111.669 136.086 111.521 136.159C111.374 136.231 111.243 136.333 111.137 136.459C111.032 136.585 110.954 136.732 110.908 136.89C110.863 137.048 110.851 137.214 110.873 137.376C110.936 138.074 111.579 138.666 112.147 139.003Z" fill="#263238"/>
<path opacity="0.3" d="M129.568 141.622C129.568 141.622 130.03 140.512 130.05 140.446C130.281 139.591 130.23 137.804 129.399 137.263C129.259 137.177 129.102 137.122 128.939 137.101C128.775 137.079 128.61 137.093 128.452 137.14C128.294 137.186 128.148 137.266 128.023 137.373C127.898 137.48 127.796 137.612 127.726 137.761C127.404 138.384 127.6 139.223 127.886 139.819C128.223 140.512 129.568 141.618 129.568 141.622Z" fill="#263238"/>
<path opacity="0.3" d="M112.112 144.084C112.83 144.283 114.429 144.037 114.554 144.013C114.697 144.928 114.898 145.833 115.158 146.722C115.307 147.239 115.475 147.757 115.648 148.29C115.534 148.062 115.432 147.866 115.413 147.839C114.923 147.102 113.543 145.961 112.586 146.232C112.43 146.281 112.285 146.363 112.162 146.472C112.039 146.581 111.94 146.715 111.871 146.864C111.803 147.014 111.767 147.176 111.765 147.341C111.763 147.505 111.796 147.668 111.861 147.819C112.116 148.47 112.88 148.874 113.515 149.05C114.151 149.227 115.53 149.05 115.891 148.991C115.962 149.191 116.028 149.383 116.095 149.587C116.428 150.532 116.765 151.473 117.067 152.41C117.173 152.739 117.263 153.064 117.357 153.394C117.255 153.194 117.169 153.029 117.153 153.002C116.663 152.261 115.283 151.124 114.327 151.394C114.17 151.444 114.025 151.526 113.902 151.635C113.779 151.744 113.68 151.877 113.612 152.027C113.543 152.177 113.507 152.339 113.505 152.503C113.504 152.668 113.537 152.831 113.602 152.982C113.857 153.633 114.621 154.036 115.256 154.213C115.891 154.389 117.138 154.213 117.569 154.166C117.655 154.503 117.741 154.844 117.808 155.173C117.851 155.401 117.906 155.62 117.933 155.851C117.961 156.083 118 156.306 118.031 156.53C118.078 156.961 118.129 157.408 118.165 157.831C118.192 158.129 118.212 158.407 118.235 158.693C118.133 158.364 117.918 157.721 117.894 157.67C117.502 156.867 116.326 155.534 115.346 155.655C115.183 155.68 115.028 155.739 114.889 155.828C114.751 155.917 114.632 156.034 114.542 156.171C114.451 156.308 114.391 156.463 114.364 156.626C114.337 156.788 114.344 156.954 114.386 157.114C114.543 157.796 115.232 158.313 115.836 158.584C116.44 158.854 118.055 158.885 118.251 158.885C118.282 159.352 118.31 159.811 118.329 160.242C118.4 161.731 118.404 162.986 118.392 163.848L119.058 163.934V163.856C119.058 162.974 119.019 161.716 118.917 160.207C118.886 159.732 118.843 159.223 118.792 158.701C119.276 158.576 119.752 158.423 120.219 158.243C120.747 158.827 121.352 159.336 122.018 159.756C121.787 160.167 121.559 160.563 121.336 160.932C120.572 162.214 119.889 163.256 119.399 163.978L120.132 164.068C120.591 163.35 121.191 162.386 121.845 161.23C122.081 160.814 122.324 160.367 122.571 159.905C122.751 159.967 124.229 160.465 124.954 160.399C125.613 160.336 126.432 160.073 126.8 159.477C126.892 159.34 126.953 159.185 126.981 159.023C127.008 158.86 127.001 158.693 126.96 158.534C126.919 158.374 126.845 158.225 126.742 158.096C126.64 157.966 126.511 157.86 126.365 157.784C125.471 157.353 123.911 158.227 123.3 158.87C123.265 158.905 122.908 159.36 122.704 159.654C122.806 159.466 122.904 159.281 123.002 159.085C123.206 158.693 123.394 158.301 123.598 157.886C123.688 157.678 123.782 157.47 123.876 157.259C123.97 157.047 124.049 156.824 124.139 156.6C124.335 156.083 124.507 155.553 124.668 155.013C125.005 155.185 126.236 155.797 126.883 155.828C127.53 155.859 128.396 155.73 128.843 155.197C128.953 155.075 129.037 154.931 129.088 154.775C129.139 154.618 129.157 154.453 129.14 154.289C129.124 154.126 129.073 153.967 128.991 153.824C128.91 153.682 128.799 153.558 128.666 153.46C127.851 152.896 126.177 153.527 125.471 154.068C125.428 154.099 124.97 154.546 124.723 154.793C124.817 154.468 124.911 154.142 124.997 153.809C125.244 152.849 125.464 151.869 125.683 150.893L125.895 149.999C126.016 150.065 127.443 150.814 128.184 150.857C128.847 150.893 129.697 150.759 130.144 150.226C130.255 150.104 130.339 149.96 130.391 149.803C130.442 149.647 130.461 149.481 130.444 149.317C130.427 149.152 130.376 148.994 130.294 148.851C130.212 148.707 130.101 148.583 129.968 148.486C129.152 147.921 127.475 148.552 126.773 149.093C126.722 149.136 126.06 149.775 125.899 149.944C126.056 149.289 126.216 148.639 126.401 147.984C126.646 147.123 126.947 146.278 127.302 145.456C127.357 145.487 128.843 146.275 129.603 146.318C130.262 146.357 131.116 146.22 131.563 145.687C131.674 145.565 131.757 145.421 131.809 145.265C131.861 145.109 131.879 144.944 131.863 144.78C131.846 144.617 131.796 144.458 131.715 144.315C131.633 144.172 131.523 144.048 131.391 143.95C130.571 143.386 128.898 144.017 128.196 144.558C128.149 144.593 127.647 145.079 127.412 145.314L127.365 145.283C127.743 144.46 128.194 143.673 128.713 142.931C128.992 142.539 129.282 142.147 129.576 141.79C129.834 141.963 131.038 142.751 131.72 142.868C132.402 142.986 133.233 142.935 133.743 142.457C133.866 142.348 133.966 142.214 134.035 142.064C134.104 141.914 134.14 141.752 134.142 141.587C134.144 141.422 134.111 141.259 134.046 141.107C133.98 140.956 133.884 140.82 133.762 140.708C133.01 140.058 131.277 140.501 130.52 140.963C130.477 140.987 130.089 141.289 129.807 141.512C129.94 141.351 130.074 141.183 130.199 141.034C130.689 140.465 131.175 139.975 131.606 139.544C131.853 139.305 132.085 139.089 132.3 138.89C132.645 138.929 134.045 139.066 134.691 138.858C135.338 138.65 136.067 138.219 136.295 137.561C136.356 137.407 136.383 137.242 136.376 137.077C136.369 136.911 136.327 136.749 136.253 136.601C136.179 136.453 136.075 136.323 135.947 136.218C135.819 136.113 135.67 136.036 135.511 135.993C134.546 135.761 133.21 136.953 132.767 137.714C132.727 137.776 132.222 138.87 132.241 138.89C132.03 139.074 131.802 139.282 131.563 139.505C131.12 139.924 130.622 140.403 130.117 140.963C129.566 141.56 129.05 142.188 128.572 142.845C128.033 143.576 127.561 144.354 127.161 145.169V145.201C127.2 144.915 127.294 144.103 127.294 144.025C127.294 143.139 126.769 141.43 125.824 141.128C125.666 141.082 125.5 141.07 125.337 141.092C125.173 141.114 125.016 141.171 124.876 141.258C124.736 141.345 124.616 141.46 124.523 141.596C124.431 141.733 124.368 141.887 124.339 142.049C124.194 142.735 124.609 143.492 125.04 144.009C125.53 144.574 127 145.244 127.118 145.299C126.732 146.14 126.403 147.006 126.13 147.89C125.969 148.403 125.82 148.925 125.679 149.458C125.711 149.207 125.734 148.984 125.734 148.952C125.734 148.066 125.209 146.353 124.264 146.051C124.106 146.005 123.939 145.993 123.776 146.016C123.612 146.039 123.455 146.095 123.315 146.183C123.175 146.27 123.055 146.386 122.962 146.522C122.87 146.659 122.807 146.814 122.778 146.977C122.633 147.663 123.049 148.419 123.48 148.917C123.911 149.415 125.166 150.026 125.495 150.179C125.444 150.383 125.389 150.571 125.338 150.787C125.095 151.759 124.856 152.747 124.589 153.676C124.495 154.009 124.394 154.334 124.292 154.66C124.315 154.436 124.335 154.248 124.335 154.221C124.335 153.335 123.809 151.626 122.865 151.32C122.706 151.275 122.54 151.263 122.377 151.286C122.214 151.309 122.058 151.366 121.918 151.453C121.778 151.54 121.659 151.656 121.566 151.792C121.474 151.929 121.412 152.083 121.383 152.245C121.238 152.931 121.65 153.688 122.085 154.185C122.52 154.683 123.653 155.236 124.045 155.42C123.931 155.749 123.817 156.079 123.688 156.396C123.598 156.608 123.523 156.82 123.421 157.027L123.131 157.647C122.931 158.039 122.739 158.431 122.52 158.823C122.383 159.081 122.241 159.328 122.104 159.575C122.202 159.246 122.375 158.591 122.383 158.537C122.472 157.762 122.361 156.978 122.061 156.259C122.069 156.173 122.069 156.086 122.061 156C122.062 155.835 122.028 155.672 121.962 155.52C121.895 155.369 121.797 155.234 121.675 155.123C121.552 155.012 121.408 154.928 121.251 154.876C121.094 154.825 120.928 154.807 120.764 154.824C119.78 154.954 118.964 156.545 118.804 157.419C118.804 157.47 118.757 158.039 118.741 158.399C118.717 158.184 118.702 157.976 118.674 157.76C118.631 157.325 118.572 156.894 118.51 156.432C118.47 156.208 118.435 155.981 118.396 155.753C118.357 155.526 118.298 155.295 118.251 155.06C118.129 154.523 117.98 153.982 117.816 153.441C118.208 153.401 119.541 153.237 120.113 152.9C120.685 152.563 121.32 151.986 121.406 151.289C121.431 151.126 121.422 150.96 121.378 150.801C121.335 150.642 121.259 150.494 121.155 150.366C121.05 150.239 120.92 150.135 120.773 150.061C120.626 149.987 120.465 149.944 120.301 149.936C119.309 149.917 118.259 151.367 117.973 152.206C117.973 152.257 117.816 152.884 117.745 153.225C117.647 152.904 117.545 152.578 117.435 152.253C117.11 151.316 116.753 150.379 116.401 149.442C116.291 149.156 116.189 148.87 116.083 148.58C116.216 148.58 117.82 148.407 118.463 148.031C119.035 147.698 119.67 147.114 119.756 146.42C119.781 146.257 119.771 146.091 119.728 145.932C119.685 145.773 119.608 145.625 119.504 145.498C119.4 145.37 119.27 145.266 119.123 145.192C118.976 145.118 118.815 145.075 118.651 145.067C117.659 145.067 116.608 146.498 116.322 147.337C116.299 147.4 116.103 148.298 116.063 148.513C115.828 147.882 115.605 147.247 115.409 146.616C115.138 145.763 114.923 144.894 114.766 144.013C114.829 144.013 116.503 143.844 117.161 143.46C117.733 143.127 118.368 142.547 118.451 141.849C118.476 141.686 118.466 141.52 118.423 141.361C118.379 141.203 118.303 141.055 118.199 140.927C118.095 140.8 117.965 140.695 117.818 140.621C117.671 140.547 117.51 140.505 117.345 140.497C116.354 140.477 115.307 141.928 115.017 142.766C115.017 142.821 114.848 143.507 114.782 143.833H114.727C114.592 142.942 114.537 142.04 114.562 141.14C114.562 140.642 114.605 140.171 114.648 139.709C114.966 139.709 116.405 139.709 117.036 139.427C117.667 139.144 118.337 138.643 118.494 137.964C118.537 137.805 118.545 137.639 118.52 137.477C118.494 137.314 118.435 137.159 118.345 137.021C118.256 136.882 118.139 136.764 118.001 136.674C117.863 136.585 117.708 136.525 117.545 136.498C116.561 136.373 115.362 137.698 114.982 138.498C114.962 138.541 114.801 139.007 114.691 139.348C114.715 139.14 114.735 138.929 114.758 138.729C114.856 137.984 114.989 137.31 115.115 136.714C115.185 136.373 115.26 136.071 115.33 135.785C115.64 135.624 116.898 134.966 117.29 134.436C117.682 133.907 118.074 133.147 117.914 132.476C117.878 132.316 117.809 132.165 117.712 132.032C117.614 131.9 117.49 131.79 117.347 131.708C117.204 131.627 117.045 131.577 116.882 131.56C116.718 131.544 116.553 131.562 116.397 131.614C115.464 131.955 115.009 133.684 115.04 134.57C115.04 134.644 115.229 135.836 115.244 135.828H115.264C115.189 136.099 115.111 136.393 115.036 136.714C114.899 137.31 114.75 137.984 114.644 138.729C114.514 139.531 114.43 140.34 114.394 141.151C114.348 142.058 114.383 142.967 114.499 143.868C114.499 143.868 114.499 143.891 114.499 143.903C114.378 143.641 114.006 142.915 113.974 142.864C113.484 142.124 112.1 140.987 111.148 141.253C110.99 141.302 110.845 141.384 110.721 141.493C110.597 141.602 110.497 141.736 110.428 141.886C110.359 142.037 110.323 142.199 110.321 142.365C110.32 142.53 110.353 142.693 110.419 142.845C110.705 143.503 111.465 143.907 112.112 144.084Z" fill="#263238"/>
<path d="M74.6644 145.851C74.6644 145.851 74.5468 144.95 74.5311 144.895C74.3586 144.248 73.6452 143.096 72.8965 143.053C72.7714 143.049 72.6471 143.073 72.5317 143.121C72.4162 143.169 72.3122 143.241 72.2264 143.332C72.1405 143.423 72.0749 143.531 72.0336 143.649C71.9924 143.767 71.9765 143.892 71.987 144.017C72.033 144.283 72.1364 144.536 72.2901 144.758C72.4438 144.98 72.644 145.166 72.8769 145.303C73.363 145.636 74.6644 145.851 74.6644 145.851Z" fill="#263238"/>
<path d="M62.2459 150.744C62.867 150.656 63.4719 150.478 64.0413 150.214C64.0413 150.214 63.4454 149.525 63.4023 149.489C62.9006 149.042 61.6736 148.474 61.0229 148.854C60.9173 148.921 60.8269 149.009 60.7575 149.113C60.6881 149.216 60.6411 149.333 60.6197 149.456C60.5983 149.579 60.6029 149.706 60.6331 149.827C60.6634 149.948 60.7187 150.061 60.7955 150.16C60.9805 150.356 61.206 150.51 61.4564 150.611C61.7069 150.712 61.9763 150.757 62.2459 150.744Z" fill="#263238"/>
<path d="M64.1434 154.091C64.7116 153.847 65.2401 153.519 65.7114 153.119C66.1522 153.664 66.6275 154.18 67.1344 154.664C67.4284 154.946 67.7341 155.224 68.0438 155.495C67.8831 155.393 67.742 155.299 67.7185 155.291C67.1187 154.993 65.782 154.769 65.2567 155.291C65.1723 155.383 65.1081 155.491 65.0684 155.61C65.0286 155.728 65.0142 155.853 65.026 155.977C65.0379 156.102 65.0757 156.222 65.137 156.331C65.1984 156.439 65.2819 156.534 65.3821 156.608C65.6142 156.751 65.8751 156.842 66.146 156.873C66.417 156.904 66.6916 156.875 66.9501 156.788C67.5078 156.557 68.0262 156.241 68.4868 155.851L68.8435 156.161C69.4197 156.655 70.0195 157.145 70.5526 157.643C70.7447 157.819 70.9446 158 71.1171 158.18C70.976 158.086 70.8545 158.011 70.8349 158.003C70.2351 157.702 68.8984 157.482 68.3731 158.003C68.2881 158.095 68.2234 158.204 68.1833 158.322C68.1432 158.44 68.1286 158.566 68.1405 158.69C68.1523 158.815 68.1904 158.935 68.2521 159.044C68.3138 159.152 68.3978 159.247 68.4985 159.321C68.7306 159.464 68.9915 159.554 69.2625 159.586C69.5334 159.617 69.808 159.588 70.0665 159.501C70.6096 159.277 71.1148 158.97 71.564 158.591C71.7482 158.784 71.9325 158.983 72.1049 159.164C72.2186 159.297 72.3362 159.419 72.4421 159.556L72.7635 159.948C72.9595 160.214 73.1555 160.485 73.3476 160.732C73.4769 160.916 73.5945 161.092 73.7161 161.269C73.524 161.092 73.1437 160.755 73.1085 160.728C72.5597 160.336 71.27 159.92 70.6702 160.371C70.5729 160.449 70.4931 160.547 70.436 160.658C70.3789 160.769 70.3457 160.891 70.3387 161.015C70.3317 161.14 70.3509 161.264 70.3952 161.381C70.4395 161.498 70.5078 161.604 70.5957 161.692C70.8015 161.868 71.0433 161.996 71.3041 162.068C71.5649 162.14 71.8383 162.153 72.1049 162.108C72.7027 161.956 73.2738 161.715 73.7984 161.39C73.9983 161.684 74.1904 161.974 74.3668 162.249C74.9783 163.201 75.4526 164.017 75.7741 164.601L76.2445 164.405L76.2131 164.354C75.876 163.782 75.3781 162.966 74.7392 162.002C74.5393 161.7 74.3158 161.383 74.0845 161.061C74.355 160.796 74.609 160.514 74.845 160.218C75.4135 160.401 76.0044 160.506 76.6012 160.528C76.6012 160.885 76.6012 161.234 76.6012 161.559C76.6012 162.688 76.5306 163.633 76.4836 164.303L76.9971 164.083C77.0285 163.437 77.0559 162.578 77.0441 161.571C77.0441 161.21 77.0441 160.826 77.0206 160.426C77.6293 160.324 78.2188 160.13 78.7689 159.85C78.9986 159.708 79.1947 159.517 79.3436 159.292C79.4925 159.066 79.5907 158.811 79.6313 158.544C79.6392 158.42 79.6207 158.295 79.577 158.178C79.5333 158.06 79.4654 157.954 79.3777 157.865C79.2901 157.776 79.1846 157.706 79.0682 157.66C78.9519 157.615 78.8272 157.594 78.7023 157.6C77.9536 157.655 77.2637 158.823 77.1069 159.473C77.1069 159.513 77.0402 159.94 77.0128 160.21C77.0128 160.05 77.0128 159.893 76.9932 159.724C76.9932 159.395 76.954 159.066 76.9265 158.713C76.9069 158.544 76.8913 158.372 76.8717 158.196C76.8521 158.019 76.8207 157.843 76.7933 157.666C76.7266 157.251 76.6365 156.839 76.5385 156.424C77.1386 156.412 77.7335 156.309 78.3025 156.118C78.5524 156.01 78.7758 155.849 78.9572 155.646C79.1386 155.443 79.2737 155.202 79.353 154.942C79.379 154.819 79.3788 154.692 79.3525 154.57C79.3263 154.447 79.2745 154.331 79.2005 154.23C79.1266 154.129 79.0321 154.044 78.9233 153.982C78.8145 153.919 78.6938 153.881 78.569 153.868C77.8203 153.809 76.9618 154.86 76.707 155.479C76.707 155.518 76.5581 155.985 76.4875 156.239C76.4287 155.993 76.366 155.742 76.2954 155.491C76.0955 154.769 75.8681 154.044 75.6408 153.319L75.4409 152.653C76.0615 152.641 76.6771 152.538 77.2676 152.347C77.5175 152.239 77.7409 152.078 77.9223 151.875C78.1037 151.671 78.2388 151.431 78.3181 151.171C78.3447 151.048 78.345 150.921 78.319 150.798C78.293 150.675 78.2413 150.559 78.1672 150.458C78.0932 150.356 77.9985 150.272 77.8893 150.21C77.7802 150.147 77.6592 150.109 77.5341 150.097C76.7854 150.038 75.9269 151.085 75.6721 151.704C75.6525 151.751 75.4605 152.421 75.4213 152.598C75.2723 152.108 75.1312 151.618 75.0293 151.132C74.8625 150.474 74.7394 149.806 74.6608 149.133C75.2842 149.123 75.9026 149.02 76.4953 148.827C76.7461 148.72 76.9703 148.559 77.1519 148.356C77.3335 148.153 77.468 147.912 77.5459 147.651C77.5725 147.528 77.5728 147.401 77.5468 147.278C77.5208 147.155 77.469 147.039 77.395 146.938C77.3209 146.836 77.2262 146.752 77.1171 146.689C77.008 146.627 76.8869 146.589 76.7619 146.577C76.0132 146.518 75.1547 147.568 74.896 148.188C74.896 148.227 74.7353 148.737 74.6725 148.972H74.6294C74.5707 148.292 74.5707 147.609 74.6294 146.929C74.6608 146.537 74.7078 146.196 74.7627 145.851C75.3695 145.91 75.9817 145.874 76.5777 145.746C76.8375 145.669 77.0773 145.536 77.2804 145.356C77.4836 145.177 77.6451 144.955 77.7537 144.707C77.7935 144.589 77.8079 144.464 77.7961 144.34C77.7842 144.216 77.7464 144.096 77.685 143.987C77.6236 143.879 77.54 143.785 77.4397 143.711C77.3394 143.637 77.2247 143.585 77.1029 143.558C76.3621 143.413 75.3938 144.362 75.0724 144.95C75.0724 144.985 74.9117 145.342 74.8137 145.581C74.8411 145.424 74.8646 145.263 74.8921 145.115C75.0018 144.558 75.1312 144.052 75.2527 143.609C75.3233 143.354 75.3938 143.127 75.4605 142.915C76.0282 142.689 76.5573 142.376 77.0285 141.986C77.2229 141.799 77.3741 141.571 77.4716 141.32C77.5691 141.068 77.6105 140.798 77.5929 140.528C77.5585 140.412 77.5007 140.305 77.4232 140.212C77.3458 140.119 77.2502 140.043 77.1423 139.988C77.0345 139.934 76.9166 139.901 76.7959 139.894C76.6753 139.886 76.5543 139.903 76.4405 139.944C75.7192 140.156 75.2958 141.445 75.2645 142.116C75.2645 142.175 75.3468 143.084 75.3625 143.076C75.2945 143.275 75.224 143.494 75.1508 143.735C75.0214 144.178 74.8764 144.683 74.7588 145.24C74.6239 145.84 74.5231 146.447 74.4569 147.059C74.3831 147.744 74.3687 148.434 74.4138 149.121C74.4138 149.121 74.4138 149.121 74.4138 149.144C74.3315 148.94 74.0845 148.36 74.061 148.333C73.7239 147.753 72.7321 146.831 71.9991 146.992C71.8766 147.021 71.7617 147.076 71.662 147.153C71.5624 147.23 71.4804 147.328 71.4214 147.439C71.3624 147.55 71.3278 147.673 71.32 147.799C71.3121 147.924 71.3312 148.05 71.3758 148.168C71.4876 148.411 71.6506 148.628 71.8535 148.802C72.0564 148.977 72.2946 149.105 72.5518 149.18C73.1622 149.292 73.7861 149.311 74.4021 149.234C74.4684 149.933 74.5797 150.627 74.7353 151.312C74.8254 151.704 74.9273 152.096 75.0371 152.488C74.9587 152.316 74.8921 152.159 74.8764 152.139C74.5432 151.559 73.5514 150.634 72.8145 150.795C72.6923 150.824 72.5778 150.88 72.4785 150.957C72.3792 151.034 72.2974 151.131 72.2385 151.243C72.1796 151.354 72.145 151.476 72.1368 151.601C72.1286 151.727 72.1472 151.853 72.1912 151.971C72.3059 152.216 72.4727 152.433 72.6799 152.607C72.887 152.781 73.1296 152.907 73.3907 152.978C73.9825 153.09 74.5879 153.111 75.1861 153.041L75.3154 153.499C75.5232 154.229 75.7349 154.958 75.9191 155.679C75.9857 155.93 76.0406 156.185 76.0955 156.435C76.0289 156.283 75.9701 156.149 75.9583 156.134C75.6212 155.553 74.6294 154.628 73.8964 154.789C73.7742 154.819 73.6597 154.874 73.5604 154.951C73.4611 155.029 73.3793 155.126 73.3205 155.237C73.2616 155.348 73.2269 155.47 73.2187 155.596C73.2106 155.721 73.2291 155.847 73.2731 155.965C73.3877 156.209 73.5539 156.426 73.7603 156.6C73.9667 156.774 74.2084 156.901 74.4687 156.973C75.0446 157.084 75.6343 157.107 76.217 157.039C76.268 157.298 76.3189 157.561 76.3542 157.823C76.3542 157.996 76.4091 158.16 76.4209 158.337C76.4326 158.513 76.4483 158.686 76.464 158.854C76.464 159.183 76.4953 159.524 76.5032 159.846C76.5032 160.073 76.5032 160.285 76.5032 160.501C76.4444 160.246 76.3111 159.752 76.2954 159.717C76.0601 159.175 75.6887 158.704 75.2174 158.348C75.195 158.287 75.1661 158.228 75.1312 158.172C75.0691 158.064 74.985 157.97 74.8842 157.896C74.7835 157.823 74.6684 157.771 74.5464 157.745C74.4244 157.718 74.2983 157.718 74.1761 157.744C74.054 157.77 73.9387 157.821 73.8376 157.894C73.2417 158.352 73.3084 159.709 73.5357 160.34C73.5357 160.375 73.7396 160.763 73.865 161.006L73.5789 160.614C73.3868 160.348 73.1869 160.089 72.9673 159.807L72.6381 159.415C72.5283 159.277 72.3989 159.148 72.2813 159.023C71.9952 158.717 71.6933 158.419 71.3797 158.125C71.875 157.788 72.3142 157.375 72.6812 156.902C72.8314 156.677 72.9306 156.422 72.9719 156.154C73.0132 155.887 72.9956 155.613 72.9203 155.354C72.8789 155.24 72.8148 155.136 72.732 155.049C72.6492 154.961 72.5494 154.891 72.4386 154.843C72.3279 154.795 72.2085 154.77 72.0878 154.769C71.9671 154.769 71.8476 154.793 71.7365 154.84C71.0779 155.201 70.9525 156.549 71.0701 157.192C71.0701 157.235 71.2229 157.698 71.3092 157.949C71.121 157.776 70.9172 157.6 70.7369 157.431C70.1685 156.937 69.5609 156.459 68.9925 155.977L68.4554 155.534C68.9676 155.184 69.4236 154.758 69.8078 154.272C69.9609 154.044 70.0618 153.786 70.1031 153.514C70.1445 153.243 70.1253 152.966 70.0469 152.704C70.0016 152.587 69.9322 152.482 69.8434 152.394C69.7547 152.306 69.6484 152.238 69.5316 152.194C69.4147 152.15 69.2899 152.131 69.1653 152.139C69.0407 152.146 68.919 152.18 68.8082 152.237C68.1497 152.602 68.0242 153.946 68.1418 154.589C68.1418 154.64 68.3613 155.307 68.4241 155.471C68.0321 155.146 67.6401 154.817 67.2755 154.475C66.7754 154.018 66.3042 153.529 65.8643 153.013C66.38 152.661 66.8398 152.232 67.2285 151.743C67.3773 151.518 67.4754 151.262 67.516 150.995C67.5566 150.728 67.5387 150.455 67.4637 150.195C67.4164 150.083 67.3468 149.982 67.259 149.898C67.1713 149.814 67.0673 149.749 66.9535 149.707C66.8396 149.665 66.7184 149.646 66.5971 149.653C66.4759 149.659 66.3572 149.69 66.2485 149.744C65.5938 150.109 65.4645 151.453 65.5821 152.096C65.5821 152.139 65.7506 152.649 65.8329 152.88H65.7977C65.3709 152.348 64.993 151.779 64.6687 151.179C64.4845 150.849 64.3277 150.524 64.1826 150.207C64.7209 149.921 65.2116 149.553 65.6369 149.117C65.8083 148.908 65.9321 148.665 65.9998 148.404C66.0675 148.142 66.0774 147.869 66.0289 147.604C65.9966 147.484 65.9393 147.372 65.861 147.275C65.7826 147.178 65.6849 147.099 65.5741 147.043C65.4633 146.986 65.3418 146.954 65.2176 146.947C65.0934 146.94 64.9692 146.96 64.8529 147.004C64.1591 147.294 63.8729 148.619 63.9317 149.285C63.9317 149.321 64.0062 149.677 64.0611 149.956C63.9984 149.811 63.9278 149.662 63.8729 149.521C63.6534 148.999 63.4809 148.505 63.3398 148.066C63.2575 147.815 63.1909 147.588 63.1281 147.372C63.4724 146.873 63.7369 146.323 63.9121 145.742C63.9697 145.478 63.9694 145.206 63.9112 144.942C63.853 144.679 63.7383 144.431 63.575 144.217C63.4916 144.124 63.3894 144.049 63.2753 143.998C63.1612 143.947 63.0376 143.921 62.9125 143.921C62.7875 143.921 62.6639 143.947 62.5498 143.998C62.4357 144.049 62.3335 144.124 62.2501 144.217C61.7679 144.793 62.1246 146.098 62.4813 146.667C62.5127 146.718 63.085 147.427 63.0929 147.416C63.1477 147.623 63.2105 147.843 63.281 148.082C63.4182 148.525 63.575 149.027 63.7828 149.556C64.0006 150.131 64.2519 150.692 64.5354 151.238C64.8492 151.851 65.2179 152.435 65.6369 152.982V153.002C65.4566 152.876 64.9392 152.543 64.8961 152.519C64.2963 152.221 62.9596 151.998 62.4343 152.519C62.3498 152.612 62.2856 152.721 62.2458 152.839C62.206 152.958 62.1916 153.083 62.2034 153.208C62.2152 153.332 62.2531 153.453 62.3144 153.562C62.3758 153.671 62.4594 153.766 62.5597 153.84C62.7886 153.997 63.0494 154.101 63.3233 154.144C63.5972 154.188 63.8774 154.17 64.1434 154.091Z" fill="#263238"/>
<path opacity="0.3" d="M62.2459 150.744C62.867 150.656 63.4719 150.478 64.0413 150.214C64.0413 150.214 63.4454 149.525 63.4023 149.489C62.9006 149.042 61.6736 148.474 61.0229 148.854C60.9173 148.921 60.8269 149.009 60.7575 149.113C60.6881 149.216 60.6411 149.333 60.6197 149.456C60.5983 149.579 60.6029 149.706 60.6331 149.827C60.6634 149.948 60.7187 150.061 60.7955 150.16C60.9805 150.356 61.206 150.51 61.4564 150.611C61.7069 150.712 61.9763 150.757 62.2459 150.744Z" fill="#263238"/>
<path opacity="0.3" d="M74.6644 145.851C74.6644 145.851 74.5468 144.95 74.5311 144.895C74.3586 144.248 73.6452 143.096 72.8965 143.053C72.7714 143.049 72.6471 143.073 72.5317 143.121C72.4162 143.169 72.3122 143.241 72.2264 143.332C72.1405 143.423 72.0749 143.531 72.0336 143.649C71.9924 143.767 71.9765 143.892 71.987 144.017C72.033 144.283 72.1364 144.536 72.2901 144.758C72.4438 144.98 72.644 145.166 72.8769 145.303C73.363 145.636 74.6644 145.851 74.6644 145.851Z" fill="#263238"/>
<path opacity="0.3" d="M64.1434 154.091C64.7116 153.847 65.2401 153.519 65.7114 153.119C66.1522 153.664 66.6275 154.18 67.1344 154.664C67.4284 154.946 67.7341 155.224 68.0438 155.495C67.8831 155.393 67.742 155.299 67.7185 155.291C67.1187 154.993 65.782 154.769 65.2567 155.291C65.1723 155.383 65.1081 155.491 65.0684 155.61C65.0286 155.728 65.0142 155.853 65.026 155.977C65.0379 156.102 65.0757 156.222 65.137 156.331C65.1984 156.439 65.2819 156.534 65.3821 156.608C65.6142 156.751 65.8751 156.842 66.146 156.873C66.417 156.904 66.6916 156.875 66.9501 156.788C67.5078 156.557 68.0262 156.241 68.4868 155.851L68.8435 156.161C69.4197 156.655 70.0195 157.145 70.5526 157.643C70.7447 157.819 70.9446 158 71.1171 158.18C70.976 158.086 70.8545 158.011 70.8349 158.003C70.2351 157.702 68.8984 157.482 68.3731 158.003C68.2881 158.095 68.2234 158.204 68.1833 158.322C68.1432 158.44 68.1286 158.566 68.1405 158.69C68.1523 158.815 68.1904 158.935 68.2521 159.044C68.3138 159.152 68.3978 159.247 68.4985 159.321C68.7306 159.464 68.9915 159.554 69.2625 159.586C69.5334 159.617 69.808 159.588 70.0665 159.501C70.6096 159.277 71.1148 158.97 71.564 158.591C71.7482 158.784 71.9325 158.983 72.1049 159.164C72.2186 159.297 72.3362 159.419 72.4421 159.556L72.7635 159.948C72.9595 160.214 73.1555 160.485 73.3476 160.732C73.4769 160.916 73.5945 161.092 73.7161 161.269C73.524 161.092 73.1437 160.755 73.1085 160.728C72.5597 160.336 71.27 159.92 70.6702 160.371C70.5729 160.449 70.4931 160.547 70.436 160.658C70.3789 160.769 70.3457 160.891 70.3387 161.015C70.3317 161.14 70.3509 161.264 70.3952 161.381C70.4395 161.498 70.5078 161.604 70.5957 161.692C70.8015 161.868 71.0433 161.996 71.3041 162.068C71.5649 162.14 71.8383 162.153 72.1049 162.108C72.7027 161.956 73.2738 161.715 73.7984 161.39C73.9983 161.684 74.1904 161.974 74.3668 162.249C74.9783 163.201 75.4526 164.017 75.7741 164.601L76.2445 164.405L76.2131 164.354C75.876 163.782 75.3781 162.966 74.7392 162.002C74.5393 161.7 74.3158 161.383 74.0845 161.061C74.355 160.796 74.609 160.514 74.845 160.218C75.4135 160.401 76.0044 160.506 76.6012 160.528C76.6012 160.885 76.6012 161.234 76.6012 161.559C76.6012 162.688 76.5306 163.633 76.4836 164.303L76.9971 164.083C77.0285 163.437 77.0559 162.578 77.0441 161.571C77.0441 161.21 77.0441 160.826 77.0206 160.426C77.6293 160.324 78.2188 160.13 78.7689 159.85C78.9986 159.708 79.1947 159.517 79.3436 159.292C79.4925 159.066 79.5907 158.811 79.6313 158.544C79.6392 158.42 79.6207 158.295 79.577 158.178C79.5333 158.06 79.4654 157.954 79.3777 157.865C79.2901 157.776 79.1846 157.706 79.0682 157.66C78.9519 157.615 78.8272 157.594 78.7023 157.6C77.9536 157.655 77.2637 158.823 77.1069 159.473C77.1069 159.513 77.0402 159.94 77.0128 160.21C77.0128 160.05 77.0128 159.893 76.9932 159.724C76.9932 159.395 76.954 159.066 76.9265 158.713C76.9069 158.544 76.8913 158.372 76.8717 158.196C76.8521 158.019 76.8207 157.843 76.7933 157.666C76.7266 157.251 76.6365 156.839 76.5385 156.424C77.1386 156.412 77.7335 156.309 78.3025 156.118C78.5524 156.01 78.7758 155.849 78.9572 155.646C79.1386 155.443 79.2737 155.202 79.353 154.942C79.379 154.819 79.3788 154.692 79.3525 154.57C79.3263 154.447 79.2745 154.331 79.2005 154.23C79.1266 154.129 79.0321 154.044 78.9233 153.982C78.8145 153.919 78.6938 153.881 78.569 153.868C77.8203 153.809 76.9618 154.86 76.707 155.479C76.707 155.518 76.5581 155.985 76.4875 156.239C76.4287 155.993 76.366 155.742 76.2954 155.491C76.0955 154.769 75.8681 154.044 75.6408 153.319L75.4409 152.653C76.0615 152.641 76.6771 152.538 77.2676 152.347C77.5175 152.239 77.7409 152.078 77.9223 151.875C78.1037 151.671 78.2388 151.431 78.3181 151.171C78.3447 151.048 78.345 150.921 78.319 150.798C78.293 150.675 78.2413 150.559 78.1672 150.458C78.0932 150.356 77.9985 150.272 77.8893 150.21C77.7802 150.147 77.6592 150.109 77.5341 150.097C76.7854 150.038 75.9269 151.085 75.6721 151.704C75.6525 151.751 75.4605 152.421 75.4213 152.598C75.2723 152.108 75.1312 151.618 75.0293 151.132C74.8625 150.474 74.7394 149.806 74.6608 149.133C75.2842 149.123 75.9026 149.02 76.4953 148.827C76.7461 148.72 76.9703 148.559 77.1519 148.356C77.3335 148.153 77.468 147.912 77.5459 147.651C77.5725 147.528 77.5728 147.401 77.5468 147.278C77.5208 147.155 77.469 147.039 77.395 146.938C77.3209 146.836 77.2262 146.752 77.1171 146.689C77.008 146.627 76.8869 146.589 76.7619 146.577C76.0132 146.518 75.1547 147.568 74.896 148.188C74.896 148.227 74.7353 148.737 74.6725 148.972H74.6294C74.5707 148.292 74.5707 147.609 74.6294 146.929C74.6608 146.537 74.7078 146.196 74.7627 145.851C75.3695 145.91 75.9817 145.874 76.5777 145.746C76.8375 145.669 77.0773 145.536 77.2804 145.356C77.4836 145.177 77.6451 144.955 77.7537 144.707C77.7935 144.589 77.8079 144.464 77.7961 144.34C77.7842 144.216 77.7464 144.096 77.685 143.987C77.6236 143.879 77.54 143.785 77.4397 143.711C77.3394 143.637 77.2247 143.585 77.1029 143.558C76.3621 143.413 75.3938 144.362 75.0724 144.95C75.0724 144.985 74.9117 145.342 74.8137 145.581C74.8411 145.424 74.8646 145.263 74.8921 145.115C75.0018 144.558 75.1312 144.052 75.2527 143.609C75.3233 143.354 75.3938 143.127 75.4605 142.915C76.0282 142.689 76.5573 142.376 77.0285 141.986C77.2229 141.799 77.3741 141.571 77.4716 141.32C77.5691 141.068 77.6105 140.798 77.5929 140.528C77.5585 140.412 77.5007 140.305 77.4232 140.212C77.3458 140.119 77.2502 140.043 77.1423 139.988C77.0345 139.934 76.9166 139.901 76.7959 139.894C76.6753 139.886 76.5543 139.903 76.4405 139.944C75.7192 140.156 75.2958 141.445 75.2645 142.116C75.2645 142.175 75.3468 143.084 75.3625 143.076C75.2945 143.275 75.224 143.494 75.1508 143.735C75.0214 144.178 74.8764 144.683 74.7588 145.24C74.6239 145.84 74.5231 146.447 74.4569 147.059C74.3831 147.744 74.3687 148.434 74.4138 149.121C74.4138 149.121 74.4138 149.121 74.4138 149.144C74.3315 148.94 74.0845 148.36 74.061 148.333C73.7239 147.753 72.7321 146.831 71.9991 146.992C71.8766 147.021 71.7617 147.076 71.662 147.153C71.5624 147.23 71.4804 147.328 71.4214 147.439C71.3624 147.55 71.3278 147.673 71.32 147.799C71.3121 147.924 71.3312 148.05 71.3758 148.168C71.4876 148.411 71.6506 148.628 71.8535 148.802C72.0564 148.977 72.2946 149.105 72.5518 149.18C73.1622 149.292 73.7861 149.311 74.4021 149.234C74.4684 149.933 74.5797 150.627 74.7353 151.312C74.8254 151.704 74.9273 152.096 75.0371 152.488C74.9587 152.316 74.8921 152.159 74.8764 152.139C74.5432 151.559 73.5514 150.634 72.8145 150.795C72.6923 150.824 72.5778 150.88 72.4785 150.957C72.3792 151.034 72.2974 151.131 72.2385 151.243C72.1796 151.354 72.145 151.476 72.1368 151.601C72.1286 151.727 72.1472 151.853 72.1912 151.971C72.3059 152.216 72.4727 152.433 72.6799 152.607C72.887 152.781 73.1296 152.907 73.3907 152.978C73.9825 153.09 74.5879 153.111 75.1861 153.041L75.3154 153.499C75.5232 154.229 75.7349 154.958 75.9191 155.679C75.9857 155.93 76.0406 156.185 76.0955 156.435C76.0289 156.283 75.9701 156.149 75.9583 156.134C75.6212 155.553 74.6294 154.628 73.8964 154.789C73.7742 154.819 73.6597 154.874 73.5604 154.951C73.4611 155.029 73.3793 155.126 73.3205 155.237C73.2616 155.348 73.2269 155.47 73.2187 155.596C73.2106 155.721 73.2291 155.847 73.2731 155.965C73.3877 156.209 73.5539 156.426 73.7603 156.6C73.9667 156.774 74.2084 156.901 74.4687 156.973C75.0446 157.084 75.6343 157.107 76.217 157.039C76.268 157.298 76.3189 157.561 76.3542 157.823C76.3542 157.996 76.4091 158.16 76.4209 158.337C76.4326 158.513 76.4483 158.686 76.464 158.854C76.464 159.183 76.4953 159.524 76.5032 159.846C76.5032 160.073 76.5032 160.285 76.5032 160.501C76.4444 160.246 76.3111 159.752 76.2954 159.717C76.0601 159.175 75.6887 158.704 75.2174 158.348C75.195 158.287 75.1661 158.228 75.1312 158.172C75.0691 158.064 74.985 157.97 74.8842 157.896C74.7835 157.823 74.6684 157.771 74.5464 157.745C74.4244 157.718 74.2983 157.718 74.1761 157.744C74.054 157.77 73.9387 157.821 73.8376 157.894C73.2417 158.352 73.3084 159.709 73.5357 160.34C73.5357 160.375 73.7396 160.763 73.865 161.006L73.5789 160.614C73.3868 160.348 73.1869 160.089 72.9673 159.807L72.6381 159.415C72.5283 159.277 72.3989 159.148 72.2813 159.023C71.9952 158.717 71.6933 158.419 71.3797 158.125C71.875 157.788 72.3142 157.375 72.6812 156.902C72.8314 156.677 72.9306 156.422 72.9719 156.154C73.0132 155.887 72.9956 155.613 72.9203 155.354C72.8789 155.24 72.8148 155.136 72.732 155.049C72.6492 154.961 72.5494 154.891 72.4386 154.843C72.3279 154.795 72.2085 154.77 72.0878 154.769C71.9671 154.769 71.8476 154.793 71.7365 154.84C71.0779 155.201 70.9525 156.549 71.0701 157.192C71.0701 157.235 71.2229 157.698 71.3092 157.949C71.121 157.776 70.9172 157.6 70.7369 157.431C70.1685 156.937 69.5609 156.459 68.9925 155.977L68.4554 155.534C68.9676 155.184 69.4236 154.758 69.8078 154.272C69.9609 154.044 70.0618 153.786 70.1031 153.514C70.1445 153.243 70.1253 152.966 70.0469 152.704C70.0016 152.587 69.9322 152.482 69.8434 152.394C69.7547 152.306 69.6484 152.238 69.5316 152.194C69.4147 152.15 69.2899 152.131 69.1653 152.139C69.0407 152.146 68.919 152.18 68.8082 152.237C68.1497 152.602 68.0242 153.946 68.1418 154.589C68.1418 154.64 68.3613 155.307 68.4241 155.471C68.0321 155.146 67.6401 154.817 67.2755 154.475C66.7754 154.018 66.3042 153.529 65.8643 153.013C66.38 152.661 66.8398 152.232 67.2285 151.743C67.3773 151.518 67.4754 151.262 67.516 150.995C67.5566 150.728 67.5387 150.455 67.4637 150.195C67.4164 150.083 67.3468 149.982 67.259 149.898C67.1713 149.814 67.0673 149.749 66.9535 149.707C66.8396 149.665 66.7184 149.646 66.5971 149.653C66.4759 149.659 66.3572 149.69 66.2485 149.744C65.5938 150.109 65.4645 151.453 65.5821 152.096C65.5821 152.139 65.7506 152.649 65.8329 152.88H65.7977C65.3709 152.348 64.993 151.779 64.6687 151.179C64.4845 150.849 64.3277 150.524 64.1826 150.207C64.7209 149.921 65.2116 149.553 65.6369 149.117C65.8083 148.908 65.9321 148.665 65.9998 148.404C66.0675 148.142 66.0774 147.869 66.0289 147.604C65.9966 147.484 65.9393 147.372 65.861 147.275C65.7826 147.178 65.6849 147.099 65.5741 147.043C65.4633 146.986 65.3418 146.954 65.2176 146.947C65.0934 146.94 64.9692 146.96 64.8529 147.004C64.1591 147.294 63.8729 148.619 63.9317 149.285C63.9317 149.321 64.0062 149.677 64.0611 149.956C63.9984 149.811 63.9278 149.662 63.8729 149.521C63.6534 148.999 63.4809 148.505 63.3398 148.066C63.2575 147.815 63.1909 147.588 63.1281 147.372C63.4724 146.873 63.7369 146.323 63.9121 145.742C63.9697 145.478 63.9694 145.206 63.9112 144.942C63.853 144.679 63.7383 144.431 63.575 144.217C63.4916 144.124 63.3894 144.049 63.2753 143.998C63.1612 143.947 63.0376 143.921 62.9125 143.921C62.7875 143.921 62.6639 143.947 62.5498 143.998C62.4357 144.049 62.3335 144.124 62.2501 144.217C61.7679 144.793 62.1246 146.098 62.4813 146.667C62.5127 146.718 63.085 147.427 63.0929 147.416C63.1477 147.623 63.2105 147.843 63.281 148.082C63.4182 148.525 63.575 149.027 63.7828 149.556C64.0006 150.131 64.2519 150.692 64.5354 151.238C64.8492 151.851 65.2179 152.435 65.6369 152.982V153.002C65.4566 152.876 64.9392 152.543 64.8961 152.519C64.2963 152.221 62.9596 151.998 62.4343 152.519C62.3498 152.612 62.2856 152.721 62.2458 152.839C62.206 152.958 62.1916 153.083 62.2034 153.208C62.2152 153.332 62.2531 153.453 62.3144 153.562C62.3758 153.671 62.4594 153.766 62.5597 153.84C62.7886 153.997 63.0494 154.101 63.3233 154.144C63.5972 154.188 63.8774 154.17 64.1434 154.091Z" fill="#263238"/>
<path d="M139.438 36.6794H123.366C122.671 36.6794 122.005 36.9552 121.513 37.4462C121.021 37.9371 120.745 38.6032 120.744 39.298V48.608C120.745 49.3028 121.021 49.9689 121.513 50.4598C122.005 50.9508 122.671 51.2266 123.366 51.2266H129.952L131.418 53.7706L132.888 51.2266H139.426C140.121 51.2266 140.787 50.9507 141.278 50.4596C141.769 49.9685 142.045 49.3025 142.045 48.608V39.298C142.045 38.6056 141.771 37.9413 141.282 37.4505C140.794 36.9598 140.131 36.6826 139.438 36.6794Z" fill="white" stroke="#263238" stroke-linecap="round" stroke-linejoin="round"/>
<path d="M137.396 42.5007C137.396 42.896 137.318 43.2875 137.167 43.6528C137.016 44.018 136.794 44.3499 136.514 44.6292L135.73 45.4132L131.469 49.6782L127.204 45.4132L126.42 44.6292C125.942 44.052 125.696 43.3175 125.731 42.5689C125.765 41.8203 126.077 41.1114 126.606 40.5803C127.134 40.0491 127.842 39.734 128.59 39.6962C129.339 39.6585 130.074 39.9008 130.654 40.376L131.438 41.16L132.222 40.376C132.643 39.9538 133.181 39.6664 133.766 39.55C134.352 39.4337 134.959 39.4937 135.51 39.7225C136.061 39.9513 136.532 40.3386 136.863 40.8352C137.194 41.3319 137.37 41.9156 137.369 42.5124L137.396 42.5007Z" fill="#F35D74" stroke="#263238" stroke-linecap="round" stroke-linejoin="round"/>
<path d="M48.6746 67.2946L34.6488 69.5094C34.042 69.6059 33.4983 69.939 33.1367 70.4357C32.7752 70.9325 32.6254 71.5523 32.7202 72.1594L34.002 80.2777C34.0984 80.8845 34.4316 81.4282 34.9283 81.7898C35.4251 82.1513 36.0449 82.3011 36.6519 82.2063L42.4026 81.2969L44.0372 83.3157L44.9663 80.8931L50.6777 79.9915C51.2842 79.8951 51.8277 79.5619 52.1886 79.065C52.5495 78.5681 52.6984 77.9482 52.6024 77.3416L51.3245 69.2233C51.2281 68.6165 50.895 68.0727 50.3982 67.7112C49.9015 67.3496 49.2816 67.1999 48.6746 67.2946Z" fill="white" stroke="#263238" stroke-linecap="round" stroke-linejoin="round"/>
<path d="M47.6944 72.6611C47.8039 73.3596 47.6319 74.0729 47.2162 74.6447L46.6478 75.4522L43.5118 79.7642L39.1998 76.6282L38.3726 76.048C37.9453 75.7365 37.6204 75.305 37.439 74.8082C37.2577 74.3115 37.2281 73.7721 37.3542 73.2585C37.4803 72.745 37.7563 72.2805 38.147 71.9243C38.5378 71.568 39.0257 71.336 39.5486 71.2578C40.2395 71.1512 40.9445 71.3232 41.5086 71.736L42.3201 72.324L42.9042 71.5165C43.2141 71.0896 43.6438 70.7643 44.1388 70.5818C44.6337 70.3992 45.1717 70.3677 45.6846 70.4911C46.1975 70.6145 46.6623 70.8873 47.0201 71.275C47.3778 71.6627 47.6125 72.1478 47.6944 72.669V72.6611Z" fill="#F35D74" stroke="#263238" stroke-linecap="round" stroke-linejoin="round"/>
<path d="M47.224 156.114L36.6753 160.148C36.4493 160.234 36.2425 160.364 36.0668 160.531C35.8911 160.697 35.7499 160.896 35.6513 161.117C35.5526 161.338 35.4985 161.577 35.4919 161.818C35.4853 162.06 35.5265 162.301 35.613 162.527L37.965 168.638C38.1404 169.094 38.4894 169.462 38.9353 169.661C39.3813 169.86 39.8879 169.874 40.3444 169.701L44.6564 168.043L46.2558 169.344L46.5811 167.306L50.8735 165.663C51.0995 165.577 51.3063 165.446 51.482 165.28C51.6577 165.114 51.7989 164.914 51.8976 164.693C51.9962 164.472 52.0504 164.234 52.0569 163.992C52.0635 163.75 52.0224 163.51 51.9359 163.284L49.5839 157.176C49.4091 156.725 49.0635 156.36 48.6219 156.161C48.1802 155.962 47.678 155.945 47.224 156.114Z" fill="white" stroke="#263238" stroke-linecap="round" stroke-linejoin="round"/>
<path d="M47.3456 160.45C47.4462 160.709 47.4942 160.987 47.4868 161.265C47.4794 161.544 47.4168 161.818 47.3025 162.072L46.9811 162.798L45.2484 166.671L41.3755 164.942L40.6503 164.617C40.2665 164.446 39.9421 164.165 39.7182 163.809C39.4944 163.454 39.3812 163.04 39.3929 162.62C39.4047 162.2 39.5409 161.793 39.7843 161.45C40.0277 161.108 40.3673 160.846 40.76 160.697C41.0192 160.596 41.2959 160.548 41.5738 160.555C41.8518 160.563 42.1255 160.625 42.379 160.74L43.1081 161.065L43.4295 160.34C43.6 159.956 43.8807 159.631 44.236 159.407C44.5912 159.183 45.005 159.069 45.425 159.081C45.8449 159.092 46.252 159.228 46.5946 159.471C46.9373 159.714 47.2 160.053 47.3495 160.446L47.3456 160.45Z" fill="#F35D74" stroke="#263238" stroke-linecap="round" stroke-linejoin="round"/>
<path d="M161.139 95.256L150.359 91.877C149.893 91.7309 149.388 91.776 148.955 92.0025C148.522 92.2289 148.197 92.6181 148.051 93.0843L146.091 99.325C145.945 99.7913 145.99 100.296 146.216 100.729C146.443 101.162 146.832 101.488 147.298 101.634L151.704 103.025L152.155 105.04L153.676 103.641L158.062 105.017C158.529 105.163 159.035 105.118 159.468 104.892C159.902 104.665 160.228 104.276 160.375 103.809L162.335 97.5727C162.483 97.107 162.44 96.6016 162.216 96.1673C161.992 95.733 161.605 95.4053 161.139 95.256Z" fill="white" stroke="#263238" stroke-linecap="round" stroke-linejoin="round"/>
<path d="M158.544 98.7369C158.461 99.0031 158.326 99.2501 158.147 99.464C157.968 99.678 157.749 99.8545 157.502 99.9835L156.8 100.352L153.041 102.312L151.081 98.5527L150.712 97.8471C150.472 97.3507 150.435 96.7802 150.608 96.2567C150.781 95.7331 151.152 95.2977 151.641 95.0427C152.13 94.7878 152.699 94.7333 153.227 94.891C153.756 95.0486 154.202 95.4059 154.472 95.8871L154.84 96.5927L155.542 96.2242C155.913 96.0299 156.334 95.9501 156.751 95.9949C157.168 96.0398 157.563 96.2073 157.884 96.4762C158.206 96.7452 158.441 97.1035 158.559 97.5059C158.677 97.9083 158.674 98.3367 158.548 98.7369H158.544Z" fill="#F35D74" stroke="#263238" stroke-linecap="round" stroke-linejoin="round"/>
<path d="M61.242 103.464H43.9352C43.1867 103.464 42.4688 103.762 41.9395 104.291C41.4102 104.82 41.1128 105.538 41.1128 106.287V116.306C41.1123 116.677 41.1849 117.045 41.3265 117.388C41.4681 117.731 41.6759 118.042 41.9381 118.305C42.2002 118.567 42.5115 118.775 42.8542 118.918C43.1969 119.06 43.5642 119.133 43.9352 119.133H51.0304L52.5984 121.877L54.1664 119.133H61.2224C61.5934 119.133 61.9607 119.06 62.3034 118.918C62.6461 118.775 62.9574 118.567 63.2195 118.305C63.4817 118.042 63.6895 117.731 63.8311 117.388C63.9727 117.045 64.0453 116.677 64.0448 116.306V106.287C64.0448 105.542 63.7501 104.827 63.2251 104.298C62.7 103.769 61.9871 103.47 61.242 103.464Z" fill="white" stroke="#263238" stroke-linecap="round" stroke-linejoin="round"/>
<path d="M59.0431 109.737C59.0434 110.163 58.9593 110.586 58.7959 110.98C58.6324 111.374 58.3927 111.732 58.0906 112.034L57.2321 112.896L52.6379 117.49L48.0397 112.896L47.1812 112.034C46.8668 111.735 46.6153 111.376 46.4417 110.979C46.268 110.581 46.1757 110.153 46.1702 109.719C46.1646 109.286 46.246 108.855 46.4094 108.453C46.5728 108.052 46.815 107.687 47.1217 107.38C47.4284 107.073 47.7934 106.831 48.1952 106.668C48.597 106.504 49.0274 106.423 49.4611 106.428C49.8948 106.434 50.3231 106.526 50.7205 106.7C51.118 106.873 51.4767 107.125 51.7755 107.439L52.6379 108.302L53.4963 107.439C53.9508 106.985 54.5297 106.676 55.1599 106.551C55.7901 106.425 56.4432 106.49 57.0368 106.736C57.6305 106.981 58.1379 107.398 58.495 107.932C58.8521 108.466 59.0428 109.094 59.0431 109.737Z" fill="#F35D74" stroke="#263238" stroke-linecap="round" stroke-linejoin="round"/>
<path d="M125.017 11.7365L113.923 9.60401C113.443 9.51203 112.946 9.61432 112.541 9.88844C112.136 10.1626 111.856 10.5861 111.763 11.0662L110.544 17.4871C110.452 17.9669 110.555 18.4636 110.829 18.8679C111.103 19.2722 111.527 19.551 112.006 19.6431L116.557 20.5173L117.232 22.4773L118.584 20.9093L123.088 21.7756C123.568 21.8676 124.066 21.7653 124.47 21.4912C124.875 21.2171 125.155 20.7935 125.248 20.3135L126.479 13.8925C126.525 13.6549 126.524 13.4105 126.475 13.1734C126.426 12.9363 126.331 12.7112 126.196 12.5108C126.06 12.3105 125.886 12.139 125.683 12.0061C125.481 11.8732 125.255 11.7816 125.017 11.7365Z" fill="white" stroke="#263238" stroke-linecap="round" stroke-linejoin="round"/>
<path d="M122.833 15.484C122.782 15.7604 122.677 16.0239 122.524 16.2594C122.37 16.4949 122.172 16.6977 121.94 16.856L121.281 17.3029L117.773 19.6823L115.393 16.1543L114.946 15.4958C114.631 15.0279 114.514 14.4539 114.622 13.9C114.729 13.3461 115.053 12.8576 115.521 12.5421C115.988 12.2265 116.562 12.1098 117.116 12.2175C117.67 12.3252 118.159 12.6485 118.474 13.1163L118.917 13.7749L119.56 13.328C119.907 13.0924 120.317 12.9651 120.736 12.9622C121.156 12.9593 121.567 13.081 121.917 13.3118C122.268 13.5427 122.542 13.8723 122.705 14.2589C122.868 14.6456 122.913 15.072 122.833 15.484Z" fill="#F35D74" stroke="#263238" stroke-linecap="round" stroke-linejoin="round"/>
<path d="M71.2184 16.5973H59.921C59.4327 16.5983 58.9647 16.7928 58.6194 17.138C58.2741 17.4833 58.0796 17.9514 58.0786 18.4397V24.9822C58.0796 25.4705 58.2741 25.9385 58.6194 26.2838C58.9647 26.6291 59.4327 26.8235 59.921 26.8246H64.5544L65.5893 28.616L66.6399 26.8246H71.238C71.7267 26.8246 72.1953 26.6304 72.5408 26.2849C72.8863 25.9394 73.0804 25.4708 73.0804 24.9822V18.424C73.0784 18.1817 73.0286 17.9422 72.9338 17.7192C72.8391 17.4962 72.7013 17.2941 72.5284 17.1244C72.3554 16.9547 72.1507 16.8208 71.9259 16.7304C71.7011 16.6399 71.4607 16.5947 71.2184 16.5973Z" fill="white" stroke="#263238" stroke-linecap="round" stroke-linejoin="round"/>
<path d="M69.7759 20.6937C69.7762 20.9721 69.7213 21.2478 69.6143 21.5049C69.5073 21.7619 69.3504 21.9952 69.1527 22.1911L68.5999 22.7556L65.6011 25.7544L62.6023 22.7556L62.0418 22.1911C61.8214 22.0001 61.6427 21.7656 61.517 21.5024C61.3914 21.2392 61.3213 20.9529 61.3113 20.6614C61.3013 20.3699 61.3515 20.0794 61.4589 19.8082C61.5662 19.537 61.7283 19.2908 61.9351 19.0851C62.1419 18.8794 62.3889 18.7186 62.6607 18.6126C62.9325 18.5067 63.2232 18.458 63.5147 18.4696C63.8061 18.4811 64.0921 18.5526 64.3546 18.6797C64.6172 18.8068 64.8507 18.9866 65.0406 19.208L65.6011 19.7686L66.1617 19.208C66.4584 18.9162 66.8344 18.7179 67.2429 18.6378C67.6513 18.5578 68.0743 18.5995 68.4593 18.7577C68.8442 18.916 69.1743 19.1838 69.4083 19.528C69.6424 19.8722 69.7702 20.2775 69.7759 20.6937Z" fill="#F35D74" stroke="#263238" stroke-linecap="round" stroke-linejoin="round"/>
<path d="M25.48 174.44H170.912" stroke="black" stroke-miterlimit="10"/>
<path d="M128.615 162.135H66.3109C63.9511 162.135 62.0381 164.048 62.0381 166.408V181.559C62.0381 183.919 63.9511 185.832 66.3109 185.832H128.615C130.975 185.832 132.888 183.919 132.888 181.559V166.408C132.888 164.048 130.975 162.135 128.615 162.135Z" fill="white" stroke="#263238" stroke-linecap="round" stroke-linejoin="round"/>
<path d="M87.9725 171.625C87.9731 172.27 87.8463 172.909 87.5995 173.505C87.3526 174.101 86.9904 174.643 86.5338 175.098L85.2324 176.4L78.2822 183.35L71.3438 176.4L70.0424 175.098C69.1202 174.177 68.6019 172.927 68.6016 171.623C68.6012 170.319 69.1188 169.069 70.0404 168.146C70.9621 167.224 72.2123 166.706 73.5161 166.706C74.8198 166.705 76.0704 167.223 76.9925 168.144L78.294 169.45L79.5954 168.144C80.2833 167.458 81.1594 166.99 82.113 166.801C83.0665 166.612 84.0547 166.71 84.9525 167.083C85.8504 167.455 86.6176 168.086 87.1573 168.894C87.6969 169.703 87.9847 170.653 87.9842 171.625H87.9725Z" fill="#F35D74" stroke="#263238" stroke-linecap="round" stroke-linejoin="round"/>
<path d="M95.3462 169.434C94.7738 169.434 94.4132 169.744 94.4132 170.563V171.79H92.7119V170.677C92.7119 168.846 93.6292 167.8 95.3932 167.8C97.1572 167.8 98.0745 168.846 98.0745 170.677C98.0745 174.275 94.4955 175.616 94.4955 177.494C94.4877 177.576 94.4877 177.659 94.4955 177.741H97.8981V179.375H92.7119V177.968C92.7119 174.601 96.2752 174.048 96.2752 170.743C96.2752 169.713 95.9185 169.434 95.3462 169.434Z" fill="#263238"/>
<path d="M99.0425 170.677C99.0425 168.846 100.007 167.8 101.786 167.8C103.566 167.8 104.53 168.846 104.53 170.677V176.627C104.53 178.458 103.566 179.505 101.786 179.505C100.007 179.505 99.0425 178.458 99.0425 176.627V170.677ZM100.838 176.741C100.838 177.56 101.198 177.87 101.771 177.87C102.343 177.87 102.704 177.576 102.704 176.741V170.563C102.704 169.744 102.343 169.434 101.771 169.434C101.198 169.434 100.838 169.744 100.838 170.563V176.741Z" fill="#263238"/>
<path d="M105.664 179.375V177.643H107.408V179.211L106.624 181.026H105.887L106.361 179.391L105.664 179.375Z" fill="#263238"/>
<path d="M110.324 175.679V176.741C110.324 177.56 110.681 177.854 111.253 177.854C111.826 177.854 112.186 177.56 112.186 176.741V174.224C112.186 173.409 111.826 173.096 111.253 173.096C110.681 173.096 110.324 173.409 110.324 174.224V174.569H108.623L108.948 167.933H113.68V169.568H110.544L110.399 172.312C110.559 172.042 110.789 171.822 111.066 171.674C111.342 171.527 111.654 171.459 111.967 171.477C113.292 171.477 113.962 172.41 113.962 174.095V176.643C113.962 178.474 113.045 179.52 111.281 179.52C109.517 179.52 108.6 178.474 108.6 176.643V175.694L110.324 175.679Z" fill="#263238"/>
<path d="M115.064 170.775C115.064 168.846 115.946 167.8 117.808 167.8C119.572 167.8 120.489 168.846 120.489 170.677V170.971H118.776V170.579C118.776 169.76 118.415 169.45 117.843 169.45C117.208 169.45 116.847 169.76 116.847 170.857V172.95C116.988 172.631 117.223 172.363 117.521 172.182C117.819 172 118.165 171.914 118.513 171.935C119.838 171.935 120.509 172.868 120.509 174.554V176.643C120.509 178.474 119.544 179.52 117.765 179.52C115.985 179.52 115.021 178.474 115.021 176.643L115.064 170.775ZM116.863 174.695V176.753C116.863 177.572 117.224 177.866 117.796 177.866C118.368 177.866 118.725 177.572 118.725 176.753V174.695C118.725 173.876 118.368 173.566 117.796 173.566C117.224 173.566 116.863 173.864 116.863 174.683V174.695Z" fill="#263238"/>
<path d="M125.118 170.743C125.118 169.713 124.762 169.434 124.189 169.434C123.617 169.434 123.256 169.744 123.256 170.563V171.304H121.555V170.677C121.555 168.846 122.472 167.8 124.236 167.8C126 167.8 126.918 168.846 126.918 170.677V170.971C126.918 172.198 126.526 172.966 125.659 173.323C126.561 173.715 126.918 174.565 126.918 175.726V176.623C126.918 178.454 126.004 179.501 124.236 179.501C122.469 179.501 121.555 178.454 121.555 176.623V175.675H123.256V176.737C123.256 177.556 123.617 177.866 124.189 177.866C124.762 177.866 125.118 177.588 125.118 176.576V175.675C125.118 174.613 124.762 174.221 123.942 174.221H123.339V172.586H124.04C124.711 172.586 125.118 172.292 125.118 171.375V170.743Z" fill="#263238"/>
<path d="M93.245 128.65C93.245 129.211 93.2763 129.881 93.2881 130.61C93.2489 128.482 93.194 126.922 93.194 126.922V115.326L83.1235 115.75L85.6245 128.944C87.3689 129.403 90.8146 130.026 93.245 128.65Z" fill="white" stroke="#263238" stroke-linecap="round" stroke-linejoin="round"/>
<path d="M91.5557 154.448C91.5557 154.448 93.3315 138.674 93.3315 134.758C93.3315 132.449 93.2845 130.148 93.2453 128.643C90.8149 130.019 87.3653 129.395 85.6248 128.937V129.023C85.6248 129.023 84.5076 137.255 85.4876 141.175C86.4676 145.095 89.6075 154.844 89.6075 155.546C89.6075 156.247 86.6871 159.799 86.6871 162.762C86.6871 163.601 90.0113 164.036 90.5561 162.076C90.7169 161.488 90.807 160.979 90.8972 160.508V162.343H91.5871L91.6733 156.855L91.5009 157.517C91.8419 155.299 91.5557 154.448 91.5557 154.448Z" fill="#263238" stroke="#263238" stroke-linecap="round" stroke-linejoin="round"/>
<path d="M98.2707 129.035C98.3334 129.595 98.404 130.262 98.4902 130.995C98.2472 128.874 98.0982 127.326 98.0982 127.326L96.5537 115.82L106.585 114.895L105.868 128.31C104.194 128.999 100.862 130.077 98.2707 129.035Z" fill="white" stroke="#263238" stroke-linecap="round" stroke-linejoin="round"/>
<path d="M103.335 162.417C103.825 156.78 103.386 154.385 103.386 154.385C103.386 154.385 99.521 138.988 98.9996 135.107C98.6899 132.821 98.4312 130.532 98.2705 129.035C100.862 130.077 104.194 128.999 105.864 128.313V128.4C105.864 128.4 108.071 136.428 107.624 140.438C107.177 144.448 106.169 153.766 106.263 154.448C106.357 155.13 107.577 159.626 107.973 162.562C108.074 163.393 103.159 164.448 103.335 162.417Z" fill="#263238" stroke="#263238" stroke-linecap="round" stroke-linejoin="round"/>
<path d="M108.996 89.4584H79.6309V116.867H108.996V89.4584Z" fill="#263238" stroke="#263238" stroke-linecap="round" stroke-linejoin="round"/>
<path d="M97.3887 61.3872H87.0713V93.5939H97.3887V61.3872Z" fill="white" stroke="#263238" stroke-linecap="round" stroke-linejoin="round"/>
<path d="M89.7641 61.9282L90.5951 110.328L75.8755 110.705L77.5101 65.9148L87.4473 61.1364L89.7641 61.9282Z" fill="#8F8F8F" stroke="#263238" stroke-linecap="round" stroke-linejoin="round"/>
<path d="M88.706 97.118H78.1377V98.3764H88.706V97.118Z" fill="#8F8F8F" stroke="#263238" stroke-linecap="round" stroke-linejoin="round"/>
<path d="M86.7535 60.5327C86.7535 60.5327 78.2627 63.9039 78.8939 65.0368C79.525 66.1696 82.6688 67.4279 82.6688 67.4279C82.6688 67.4279 78.1373 70.9559 79.6465 72.2064C81.1557 73.4569 90.3403 79.8818 90.3403 79.8818L90.4657 61.2618C90.4657 61.2618 88.2 59.9329 86.7535 60.5327Z" fill="white" stroke="#263238" stroke-linecap="round" stroke-linejoin="round"/>
<path d="M86.7536 60.5327L85.7266 80.7913L91.1597 80.9402L90.7206 62.5907L86.7536 60.5327Z" fill="#F35D74" stroke="#263238" stroke-linecap="round" stroke-linejoin="round"/>
<path d="M89.7642 61.9282L90.7206 77.1966L96.0048 76.9771L92.9942 62.3673L89.7642 61.9282Z" fill="#F35D74" stroke="#263238" stroke-linecap="round" stroke-linejoin="round"/>
<path d="M96.5891 57.0243L95.6914 59.5449L90.1133 59.1842L90.2034 55.766L96.5891 57.0243Z" fill="white" stroke="#263238" stroke-linecap="round" stroke-linejoin="round"/>
<path d="M97.1066 58.4081C97.1066 58.4081 97.7651 60.6856 97.1771 61.7127C96.5891 62.7397 95.8561 64.2803 92.0419 63.6962C88.2278 63.1121 83.8923 61.0502 84.2607 58.9922C84.6292 56.9342 86.3462 57.385 88.4042 57.385C90.4622 57.385 97.1066 58.4081 97.1066 58.4081Z" fill="#F35D74" stroke="#263238" stroke-linecap="round" stroke-linejoin="round"/>
<path d="M91.9556 40.6661C91.9556 40.6661 94.4017 42.1401 95.3229 43.0181C96.2441 43.8962 96.5616 45.9542 96.8556 46.4834C97.1496 47.0126 99.0508 47.0361 99.384 47.7104C99.7172 48.3846 99.2194 49.6704 99.2194 49.6704C99.2194 49.6704 100.258 53.5904 100.258 54.7115C100.258 55.8326 97.3691 56.8205 96.589 57.0282C95.809 57.236 91.7831 57.1223 91.7831 57.1223C91.7831 57.1223 91.1755 56.8283 89.8937 54.59C88.6118 52.3517 89.1881 47.1028 89.6154 44.7116C90.0426 42.3204 91.9556 40.6661 91.9556 40.6661Z" fill="white" stroke="#263238" stroke-linecap="round" stroke-linejoin="round"/>
<path d="M99.0115 51.1678C99.0115 51.1678 98.5882 51.5834 97.2358 51.6382C96.4844 51.6881 95.731 51.5786 95.0249 51.3168C95.0249 51.3168 96.8359 53.2768 97.6317 53.1278C98.4275 52.9789 99.0115 51.1678 99.0115 51.1678Z" stroke="#263238" stroke-linecap="round" stroke-linejoin="round"/>
<path d="M94.0801 48.3768C94.4726 47.8403 95.0514 47.4698 95.703 47.338" stroke="#263238" stroke-linecap="round" stroke-linejoin="round"/>
<path d="M93.167 46.3422C93.167 46.3422 93.2572 45.2564 94.735 44.8605" stroke="#263238" stroke-linecap="round" stroke-linejoin="round"/>
<path d="M124.554 67.8552L126.906 64.3272C126.906 64.3272 127.659 63.0414 127.98 62.9317C128.742 62.7146 129.393 62.2174 129.803 61.5401C130.34 60.5758 131.838 59.1881 132.053 60.2543C132.269 61.3206 130.983 62.9317 130.983 62.9317L130.45 63.896L133.453 63.1434C133.453 63.1434 135.271 59.9289 135.703 60.6777C136.134 61.4264 135.487 64.5389 134.95 65.7149C134.413 66.8909 132.273 68.502 131.199 69.1488C130.125 69.7956 125.624 70.5404 125.624 70.5404L124.554 67.8552Z" fill="#F35D74" stroke="#263238" stroke-linecap="round" stroke-linejoin="round"/>
<path d="M129.411 67.722L132.237 66.0874C132.237 66.0874 134.025 62.5123 134.617 62.8102C135.209 63.1082 135.475 63.7824 135.213 64.7467" fill="#F35D74"/>
<path d="M129.411 67.722L132.237 66.0874C132.237 66.0874 134.025 62.5123 134.617 62.8102C135.209 63.1082 135.475 63.7824 135.213 64.7467" stroke="#263238" stroke-linecap="round" stroke-linejoin="round"/>
<path d="M101.732 62.8885L105.746 63.896L116.467 71.3244L124.931 66.7772L128.317 71.6694L118.306 80.1365C117.829 80.5406 117.248 80.8035 116.63 80.8956C116.011 80.9877 115.379 80.9054 114.805 80.6579L107.628 77.565L106.232 75.9343" fill="#8F8F8F"/>
<path d="M101.732 62.8885L105.746 63.896L116.467 71.3244L124.931 66.7772L128.317 71.6694L118.306 80.1365C117.829 80.5406 117.248 80.8035 116.63 80.8956C116.011 80.9877 115.379 80.9054 114.805 80.6579L107.628 77.565L106.232 75.9343" stroke="#263238" stroke-linecap="round" stroke-linejoin="round"/>
<path d="M95.8794 62.3947L96.8829 110.219L111.853 109.337C111.853 109.337 106.879 65.4327 106.365 64.4096C105.852 63.3865 95.7422 61.0266 95.7422 61.0266L95.8794 62.3947Z" fill="#8F8F8F" stroke="#263238" stroke-linecap="round" stroke-linejoin="round"/>
<path d="M109.09 96.7378H98.647V97.9961H109.09V96.7378Z" fill="#8F8F8F" stroke="#263238" stroke-linecap="round" stroke-linejoin="round"/>
<path d="M96.0048 79.7564C96.0048 79.7564 103.3 70.1955 103.425 69.0627C103.551 67.9298 101.16 65.7895 101.16 65.7895C101.16 65.7895 103.488 64.1431 103.614 63.5159C103.739 62.8887 95.75 61.011 95.75 61.011L96.0048 79.7564Z" fill="white" stroke="#263238" stroke-linecap="round" stroke-linejoin="round"/>
<path d="M78.8941 65.0367C78.8941 65.0367 75.4954 66.1696 75.2446 67.2986C74.9937 68.4275 72.8534 91.9593 73.2336 92.4611C73.6138 92.9628 86.5616 95.4834 86.5616 95.4834L87.5181 84.8406L80.5209 83.7822L79.7682 79.0429" fill="#8F8F8F"/>
<path d="M78.8941 65.0367C78.8941 65.0367 75.4954 66.1696 75.2446 67.2986C74.9937 68.4275 72.8534 91.9593 73.2336 92.4611C73.6138 92.9628 86.5616 95.4834 86.5616 95.4834L87.5181 84.8406L80.5209 83.7822L79.7682 79.0429" stroke="#263238" stroke-linecap="round" stroke-linejoin="round"/>
<path d="M80.5289 83.7822C80.5289 83.7822 77.7614 83.3902 75.0762 87.4317" stroke="#263238" stroke-linecap="round" stroke-linejoin="round"/>
<path d="M87.5258 84.8406L86.5693 95.4834C87.283 93.4238 87.8708 91.3227 88.3294 89.1918C89.0821 85.6677 88.1452 85.0405 87.5258 84.8406Z" stroke="#263238" stroke-linecap="round" stroke-linejoin="round"/>
<path d="M90.6973 86.8438L95.7109 80.5757L100.101 82.4534L94.2057 89.478L90.6973 86.8438Z" fill="#263238" stroke="#263238" stroke-linecap="round" stroke-linejoin="round"/>
<path d="M87.4359 85.3384C87.4359 85.3384 89.5684 84.3349 89.9447 84.084C90.3211 83.8332 91.1991 83.3353 91.1991 83.3353H93.8334L91.9518 85.3384L97.7181 86.342L97.3261 87.5964C96.7467 87.817 96.1985 88.1122 95.6954 88.4744C95.0682 88.9762 94.3195 89.8543 93.4414 90.1052C92.4535 90.327 91.4338 90.3695 90.4308 90.2306C90.0388 90.1052 87.0439 89.478 87.0439 89.478L87.4359 85.3384Z" fill="#F35D74" stroke="#263238" stroke-linecap="round" stroke-linejoin="round"/>
<path d="M92.6689 39.8939C92.6689 39.8939 91.979 46.7421 91.1636 51.2384C90.3482 55.7346 92.6454 59.145 94.0918 59.3841C95.5383 59.6232 96.7614 58.5492 96.7614 58.5492C96.7614 58.5492 97.514 61.3676 95.4756 63.1669C93.4372 64.9662 84.2997 65.072 81.4734 61.544C78.647 58.016 77.6435 50.0467 80.117 46.1149C82.5906 42.1832 90.117 38.808 92.6689 39.8939Z" fill="#263238" stroke="#263238" stroke-linecap="round" stroke-linejoin="round"/>
</svg>
