<svg width="196" height="196" viewBox="0 0 196 196" fill="none" xmlns="http://www.w3.org/2000/svg">
<path d="M134.064 29.0786V148.364C134.064 151.534 132.806 154.575 130.566 156.818C128.325 159.062 125.286 160.324 122.116 160.328H65.3779C62.2049 160.328 59.1618 159.068 56.9182 156.824C54.6745 154.58 53.4141 151.537 53.4141 148.364V29.0786C53.4151 25.9062 54.676 22.8642 56.9196 20.6214C59.1631 18.3786 62.2056 17.1187 65.3779 17.1187H89.1017L89.1253 17.2049C89.8269 19.7294 91.442 21.3719 93.2334 21.3719H94.2605C96.0519 21.3719 97.6669 19.7294 98.3686 17.2049L98.3961 17.1187H122.116C125.286 17.1228 128.324 18.3846 130.564 20.6269C132.804 22.8693 134.063 25.909 134.064 29.0786Z" fill="#D6D6D6"/>
<path d="M102.881 104.488V66.7419H120.207C120.357 66.7423 120.504 66.6997 120.63 66.6191C120.757 66.5385 120.857 66.4233 120.92 66.2872L134.064 37.5144V33.7434L119.686 65.1739H102.881V17.1187H101.313V36.456C85.6639 34.9115 76.495 42.289 71.5441 48.8275C68.4318 52.9978 66.118 57.7079 64.7193 62.72L53.4141 55.5425V57.4006L73.6609 70.2543V93.1902L53.4258 89.4975V91.093L101.324 99.8267V104.139L53.4258 142.398V144.405L75.0877 127.102L91.5949 149.446C91.6679 149.545 91.763 149.625 91.8726 149.68C91.9823 149.735 92.1033 149.764 92.226 149.764C92.292 149.764 92.3578 149.756 92.422 149.74L118.447 143.076V160.328H120.015V127.867C120.014 127.722 119.974 127.58 119.898 127.457C119.822 127.334 119.713 127.234 119.584 127.169L113.739 124.213L123.727 113.315L134.064 117.298V115.64L123.766 111.681C123.619 111.623 123.458 111.612 123.304 111.647C123.15 111.683 123.011 111.764 122.904 111.881L112.273 123.48L92.2573 113.355L102.583 105.103C102.676 105.03 102.751 104.936 102.802 104.83C102.854 104.723 102.881 104.606 102.881 104.488ZM118.435 128.349V141.418L92.5317 148.054L76.3029 126.103L90.9089 114.433L118.435 128.349ZM101.313 98.2195L75.2171 93.4606V71.2264L101.313 87.808V98.2195ZM101.313 85.9382L66.1109 63.5942C67.4404 58.6053 69.7015 53.9129 72.7749 49.7644C79.6193 40.7249 89.2154 36.7775 101.293 38.0044L101.313 85.9382Z" fill="white"/>
<path d="M134.08 88.3489H131.732L125.805 103.17H113.951L120.207 88.6782H110.987V74.5191H124.817L134.08 56.5381V88.3489Z" fill="#C4C4C4"/>
<path d="M68.2082 30.968H56.4482V40.768H68.2082V30.968Z" fill="#C4C4C4"/>
<path d="M78.6352 30.968H70.168V38.024H78.6352V30.968Z" fill="#C4C4C4"/>
<path d="M69.6509 62.179L98.7569 80.9755V41.552C98.7569 41.552 77.9378 39.545 69.6509 62.179Z" fill="#C4C4C4"/>
<path d="M86.632 30.968H81.144V35.5427H86.632V30.968Z" fill="#C4C4C4"/>
<path d="M96.8242 123.088L86.2402 130.536L92.1202 141.512L113.288 140.336L114.464 130.144L106.232 126.616L102.704 132.104L99.1762 130.144L102.312 124.264L96.8242 123.088Z" fill="#C4C4C4"/>
<path d="M62.9083 100.975V122.151L53.4141 126.98V100.528L62.9083 100.975Z" fill="#C4C4C4"/>
<path d="M78.7137 114.119V101.72L65.5425 101.101V120.814L78.7137 114.119Z" fill="#C4C4C4"/>
<path d="M80.6895 101.814V113.115L88.5922 109.097V102.183L80.6895 101.814Z" fill="#C4C4C4"/>
<path d="M139.211 60.9128V45.7542H137.839V26.3463C137.838 23.1736 136.577 20.1312 134.334 17.8877C132.09 15.6443 129.048 14.3835 125.875 14.3824H61.6186C58.4459 14.3835 55.4035 15.6443 53.1601 17.8877C50.9166 20.1312 49.6558 23.1736 49.6548 26.3463V156.91C49.6548 160.083 50.9153 163.126 53.1589 165.369C55.4026 167.613 58.4456 168.874 61.6186 168.874H125.875C129.048 168.874 132.091 167.613 134.335 165.369C136.579 163.126 137.839 160.083 137.839 156.91V73.8332H139.211V64.876H137.839V60.9128H139.211ZM134.064 148.364C134.064 151.534 132.806 154.575 130.566 156.818C128.325 159.062 125.286 160.324 122.116 160.328H65.3779C62.2049 160.328 59.1618 159.068 56.9182 156.824C54.6745 154.58 53.4141 151.537 53.4141 148.364V29.0785C53.4151 25.9062 54.676 22.8642 56.9196 20.6213C59.1631 18.3785 62.2056 17.1186 65.3779 17.1186H89.1017L89.1253 17.2048C89.8269 19.7293 91.442 21.3718 93.2334 21.3718H94.2605C96.0519 21.3718 97.6669 19.7293 98.3686 17.2048L98.3961 17.1186H122.116C125.286 17.1228 128.324 18.3845 130.564 20.6269C132.804 22.8692 134.063 25.9089 134.064 29.0785V148.364Z" fill="#707070" stroke="#263238" stroke-linejoin="round"/>
<path d="M124.492 16.0327H63.0024C61.4315 16.0327 59.8759 16.3422 58.4246 16.9435C56.9733 17.5448 55.6547 18.4261 54.5441 19.5371C53.4334 20.6481 52.5526 21.967 51.9518 23.4185C51.3509 24.87 51.042 26.4256 51.0425 27.9966V155.263C51.0425 158.436 52.3024 161.478 54.5452 163.722C56.788 165.965 59.8301 167.226 63.0024 167.227H124.492C127.664 167.226 130.706 165.965 132.949 163.722C135.192 161.478 136.451 158.436 136.451 155.263V27.9966C136.452 26.4256 136.143 24.87 135.542 23.4185C134.941 21.967 134.06 20.6481 132.95 19.5371C131.839 18.4261 130.521 17.5448 129.069 16.9435C127.618 16.3422 126.062 16.0327 124.492 16.0327ZM134.064 148.364C134.064 151.534 132.806 154.575 130.566 156.818C128.325 159.061 125.286 160.324 122.116 160.328H65.3779C62.2049 160.328 59.1619 159.067 56.9182 156.824C54.6745 154.58 53.4141 151.537 53.4141 148.364V29.0785C53.4151 25.9061 54.676 22.8641 56.9196 20.6213C59.1631 18.3785 62.2056 17.1186 65.3779 17.1186H89.1018L89.1253 17.2048C89.827 19.7293 91.442 21.3718 93.2334 21.3718H94.2605C96.0519 21.3718 97.667 19.7293 98.3686 17.2048L98.3961 17.1186H122.116C125.286 17.1227 128.324 18.3845 130.564 20.6268C132.804 22.8692 134.063 25.9089 134.064 29.0785V148.364Z" fill="#263238" stroke="#263238" stroke-linejoin="round"/>
<path d="M93.5 18.8121C94.1192 18.8121 94.6211 18.3101 94.6211 17.6909C94.6211 17.0718 94.1192 16.5698 93.5 16.5698C92.8808 16.5698 92.3789 17.0718 92.3789 17.6909C92.3789 18.3101 92.8808 18.8121 93.5 18.8121Z" fill="white"/>
<path d="M60.5836 21.9951C60.5836 23.1319 59.3096 23.5396 59.3017 24.4098V24.4686H60.5405V24.8606H58.8862V24.5392C58.8862 23.3201 60.1641 23.0849 60.1641 22.0226C60.1641 21.6306 60.0348 21.4306 59.7212 21.4306C59.4076 21.4306 59.2821 21.6541 59.2821 21.9873V22.3205H58.8901V22.0147C58.8901 21.4385 59.1567 21.0543 59.7369 21.0543C60.317 21.0543 60.5836 21.4189 60.5836 21.9951Z" fill="#263238"/>
<path d="M62.6456 21.9911V22.0891C62.6673 22.2517 62.6344 22.4169 62.5521 22.5588C62.4698 22.7006 62.3427 22.8112 62.1909 22.8731C62.3415 22.9367 62.4674 23.0475 62.5495 23.189C62.6315 23.3305 62.6652 23.4948 62.6456 23.6571V23.9472C62.6456 24.5234 62.379 24.8998 61.7949 24.8998C61.2109 24.8998 60.9521 24.5078 60.9521 23.9472V23.6767H61.3441V23.9629C61.3441 24.3 61.4853 24.5038 61.7871 24.5038C62.0889 24.5038 62.2261 24.3039 62.2261 23.9237V23.6336C62.2261 23.2612 62.0693 23.0848 61.7518 23.073H61.5441V22.681H61.791C61.8563 22.6818 61.9209 22.6683 61.9804 22.6416C62.04 22.6149 62.093 22.5756 62.1359 22.5264C62.1787 22.4772 62.2104 22.4193 62.2287 22.3566C62.247 22.294 62.2515 22.2281 62.2418 22.1636V21.9911C62.2418 21.5991 62.1085 21.4031 61.8028 21.4031C61.497 21.4031 61.3598 21.6148 61.3598 21.9519V22.1479H60.9678V21.9911C60.9678 21.4149 61.2344 21.0425 61.8106 21.0425C62.3869 21.0425 62.6456 21.4149 62.6456 21.9911Z" fill="#263238"/>
<path d="M63.4608 22.2773V22.7987H63.0688V22.2773H63.4608ZM63.4608 24.3275V24.8489H63.0688V24.3275H63.4608Z" fill="#263238"/>
<path d="M64.3116 22.6144C64.3666 22.5154 64.4483 22.4339 64.5474 22.3791C64.6465 22.3244 64.7591 22.2986 64.8721 22.3047C65.3582 22.3047 65.5699 22.6575 65.5699 23.1985V23.9355C65.5699 24.5117 65.2955 24.888 64.7193 24.888C64.143 24.888 63.8765 24.496 63.8765 23.9355V23.6807H64.2685V23.9629C64.2685 24.3 64.4096 24.5039 64.7114 24.5039C65.0133 24.5039 65.1505 24.3 65.1505 23.9629V23.2299C65.1505 22.8888 65.0133 22.685 64.7114 22.685C64.6571 22.6801 64.6023 22.6866 64.5506 22.7041C64.4989 22.7215 64.4514 22.7496 64.4111 22.7865C64.3709 22.8234 64.3388 22.8683 64.317 22.9184C64.2951 22.9684 64.2839 23.0224 64.2841 23.077V23.1632H63.8921L63.9941 21.0699H65.4641V21.4619H64.3547L64.3116 22.6144Z" fill="#263238"/>
<path d="M67.6672 21.9833V22.0538H67.2752V21.9519C67.2752 21.6109 67.134 21.411 66.8283 21.411C66.5225 21.411 66.3696 21.6148 66.3696 22.0186V22.8653C66.415 22.7431 66.4987 22.6389 66.6082 22.5682C66.7178 22.4976 66.8472 22.4643 66.9772 22.4733C67.4633 22.4733 67.6789 22.8222 67.6789 23.367V23.9394C67.6789 24.5156 67.3928 24.8919 66.8165 24.8919C66.2403 24.8919 65.9502 24.4999 65.9502 23.9394V22.0107C65.9502 21.4149 66.2168 21.0425 66.8165 21.0425C67.4163 21.0425 67.6672 21.407 67.6672 21.9833ZM66.3696 23.3945V23.9629C66.3696 24.3 66.5108 24.5038 66.8165 24.5038C67.1223 24.5038 67.2634 24.3 67.2634 23.9629V23.3945C67.2634 23.0574 67.1184 22.8535 66.8165 22.8535C66.5147 22.8535 66.3696 23.0574 66.3696 23.3945Z" fill="#263238"/>
<path d="M108.819 22.1519H107.753V24.8135H108.819V22.1519Z" fill="#263238"/>
<path d="M110.239 21.6188H109.172V24.8136H110.239V21.6188Z" fill="#263238"/>
<path d="M111.658 21.2385H110.591V24.8096H111.658V21.2385Z" fill="#263238"/>
<path d="M113.073 20.58H112.01V24.8096H113.073V20.58Z" fill="#263238"/>
<path d="M126.244 24.7391H119.858V20.8191H126.244V24.7391ZM120.215 24.3824H125.891V21.1915H120.215V24.3824Z" fill="#263238"/>
<path d="M124.115 21.5757H120.744V23.9982H124.115V21.5757Z" fill="#263238"/>
<path d="M126.824 22.3282H126.021V23.2494H126.824V22.3282Z" fill="#263238"/>
<path d="M117.518 23.8885C117.475 23.8903 117.433 23.8794 117.396 23.8571C116.095 23.0731 115.236 23.8022 115.201 23.8297C115.153 23.8712 115.091 23.8921 115.028 23.8877C114.964 23.8833 114.906 23.8539 114.864 23.8062C114.843 23.7828 114.828 23.7556 114.818 23.7262C114.808 23.6967 114.804 23.6656 114.806 23.6347C114.808 23.6037 114.817 23.5734 114.831 23.5457C114.845 23.5179 114.864 23.4932 114.887 23.473C114.931 23.4298 116.032 22.489 117.631 23.4455C117.659 23.4617 117.682 23.483 117.701 23.5083C117.72 23.5336 117.733 23.5624 117.741 23.593C117.749 23.6236 117.75 23.6554 117.746 23.6866C117.741 23.7178 117.73 23.7478 117.714 23.7748C117.693 23.8087 117.665 23.8369 117.63 23.8568C117.596 23.8767 117.557 23.8876 117.518 23.8885Z" fill="#263238"/>
<path d="M117.992 23.0888C117.949 23.0881 117.907 23.0759 117.871 23.0535C115.993 21.9363 114.735 23.0182 114.715 23.03C114.667 23.0688 114.605 23.0875 114.544 23.0821C114.482 23.0766 114.425 23.0475 114.384 23.0008C114.344 22.9541 114.323 22.8934 114.326 22.8316C114.329 22.7698 114.356 22.7116 114.401 22.6693C114.401 22.6693 115.942 21.3522 118.114 22.6458C118.168 22.6777 118.208 22.7298 118.224 22.7907C118.24 22.8517 118.231 22.9165 118.2 22.9712C118.178 23.0067 118.147 23.0362 118.111 23.0567C118.075 23.0773 118.034 23.0883 117.992 23.0888Z" fill="#263238"/>
<path d="M118.435 22.1597C118.392 22.1601 118.35 22.1478 118.314 22.1244C115.93 20.7093 114.351 22.0421 114.284 22.1009C114.236 22.1424 114.174 22.1633 114.111 22.1589C114.047 22.1545 113.989 22.1251 113.947 22.0774C113.926 22.054 113.911 22.0268 113.901 21.9974C113.891 21.9679 113.887 21.9368 113.889 21.9059C113.891 21.8749 113.9 21.8446 113.914 21.8169C113.928 21.7891 113.947 21.7644 113.97 21.7442C113.99 21.7442 115.868 20.1174 118.557 21.7167C118.584 21.7325 118.607 21.7534 118.626 21.7784C118.645 21.8034 118.659 21.8318 118.666 21.8621C118.674 21.8924 118.675 21.9239 118.671 21.9548C118.666 21.9857 118.655 22.0154 118.639 22.0421C118.618 22.0776 118.588 22.1071 118.553 22.1277C118.517 22.1483 118.477 22.1593 118.435 22.1597Z" fill="#263238"/>
<path d="M116.201 24.888C116.532 24.888 116.801 24.6195 116.801 24.2882C116.801 23.957 116.532 23.6885 116.201 23.6885C115.87 23.6885 115.601 23.957 115.601 24.2882C115.601 24.6195 115.87 24.888 116.201 24.888Z" fill="#263238"/>
<path d="M172.966 125.922C172.986 125.922 173.358 124.487 173.358 124.393C173.511 123.308 173.166 121.12 172.057 120.583C171.871 120.502 171.671 120.461 171.469 120.462C171.267 120.462 171.067 120.506 170.882 120.588C170.698 120.671 170.532 120.791 170.397 120.942C170.262 121.092 170.16 121.269 170.097 121.461C169.799 122.277 170.175 123.276 170.622 123.962C171.139 124.77 172.966 125.918 172.966 125.922Z" fill="#263238"/>
<path d="M151.159 125.44C152.041 125.832 154.197 125.773 154.197 125.773C154.197 125.773 153.735 124.362 153.695 124.276C153.221 123.288 151.735 121.653 150.508 121.818C150.306 121.85 150.113 121.924 149.941 122.036C149.77 122.147 149.624 122.294 149.513 122.466C149.402 122.638 149.328 122.832 149.297 123.034C149.266 123.237 149.278 123.443 149.332 123.641C149.544 124.491 150.407 125.119 151.159 125.44Z" fill="#263238"/>
<path d="M179.403 118.106C178.18 117.976 176.729 119.65 176.267 120.65C176.228 120.74 175.781 122.163 175.804 122.163H175.828C175.596 122.426 175.353 122.708 175.091 123.025C174.613 123.609 174.079 124.276 173.546 125.044C172.963 125.862 172.429 126.715 171.947 127.596C171.4 128.579 170.942 129.609 170.579 130.673V130.712C170.579 130.356 170.579 129.348 170.559 129.27C170.418 128.184 169.505 126.165 168.297 125.942C168.096 125.91 167.89 125.92 167.693 125.973C167.496 126.026 167.313 126.12 167.155 126.249C166.997 126.378 166.868 126.538 166.776 126.721C166.685 126.903 166.633 127.102 166.624 127.306C166.549 128.172 167.176 129.035 167.8 129.583C168.49 130.199 170.402 130.795 170.544 130.842C170.201 131.935 169.931 133.049 169.736 134.178C169.618 134.836 169.52 135.499 169.43 136.169C169.43 135.855 169.43 135.577 169.43 135.542C169.289 134.452 168.376 132.433 167.168 132.21C166.967 132.178 166.761 132.19 166.564 132.243C166.367 132.296 166.184 132.391 166.026 132.52C165.868 132.649 165.739 132.81 165.647 132.992C165.556 133.175 165.504 133.374 165.495 133.578C165.42 134.44 166.047 135.307 166.671 135.852C167.294 136.396 168.913 136.945 169.344 137.086C169.309 137.341 169.277 137.596 169.246 137.87C169.097 139.101 168.956 140.332 168.78 141.536C168.721 141.959 168.642 142.374 168.568 142.79C168.568 142.516 168.568 142.28 168.568 142.245C168.427 141.159 167.517 139.14 166.306 138.917C166.105 138.885 165.899 138.897 165.702 138.95C165.505 139.003 165.321 139.098 165.163 139.227C165.005 139.356 164.876 139.517 164.785 139.699C164.693 139.882 164.641 140.081 164.632 140.285C164.562 141.147 165.189 142.014 165.808 142.559C166.428 143.104 167.894 143.601 168.403 143.766C168.313 144.189 168.227 144.613 168.121 145.02C168.039 145.295 167.984 145.565 167.89 145.84C167.796 146.114 167.713 146.381 167.631 146.647C167.443 147.153 167.259 147.678 167.067 148.168C166.933 148.509 166.804 148.835 166.675 149.16C166.741 148.737 166.855 147.91 166.855 147.839C166.84 146.875 166.58 145.93 166.098 145.095C166.102 144.987 166.095 144.88 166.079 144.773C166.053 144.571 165.986 144.376 165.88 144.202C165.775 144.027 165.633 143.877 165.466 143.76C165.299 143.644 165.108 143.564 164.908 143.526C164.708 143.488 164.502 143.492 164.303 143.539C163.127 143.856 162.363 145.942 162.304 147.035C162.304 147.098 162.343 147.819 162.378 148.251C162.319 147.992 162.265 147.741 162.198 147.467C162.072 146.941 161.935 146.424 161.786 145.863L161.504 145.04C161.43 144.77 161.312 144.491 161.218 144.213C160.983 143.57 160.716 142.931 160.434 142.292C160.893 142.182 162.519 141.767 163.178 141.269C163.836 140.771 164.519 139.952 164.511 139.086C164.516 138.882 164.479 138.679 164.401 138.49C164.323 138.302 164.206 138.132 164.059 137.991C163.911 137.851 163.735 137.743 163.543 137.675C163.35 137.607 163.146 137.58 162.943 137.596C161.72 137.729 160.661 139.674 160.442 140.732C160.442 140.803 160.356 141.59 160.324 142.022C160.148 141.63 159.975 141.261 159.787 140.877C159.242 139.779 158.654 138.686 158.074 137.588C157.894 137.251 157.721 136.918 157.549 136.581C157.713 136.542 159.654 136.091 160.387 135.53C161.038 135.032 161.724 134.217 161.72 133.351C161.725 133.147 161.688 132.944 161.61 132.755C161.532 132.567 161.415 132.397 161.268 132.256C161.12 132.116 160.944 132.008 160.752 131.94C160.559 131.872 160.355 131.845 160.152 131.861C158.933 131.994 157.874 133.939 157.651 134.997C157.651 135.079 157.533 136.212 157.521 136.502C157.129 135.761 156.757 135.021 156.416 134.276C155.951 133.27 155.55 132.236 155.216 131.179C155.295 131.179 157.325 130.701 158.074 130.124C158.725 129.627 159.415 128.811 159.407 127.945C159.412 127.741 159.375 127.538 159.297 127.35C159.219 127.161 159.103 126.991 158.955 126.851C158.807 126.71 158.631 126.603 158.439 126.534C158.247 126.466 158.042 126.439 157.839 126.455C156.616 126.589 155.557 128.533 155.334 129.591C155.334 129.662 155.24 130.528 155.212 130.94H155.142C154.837 129.867 154.629 128.769 154.519 127.659C154.452 127.051 154.421 126.463 154.401 125.891C154.793 125.844 156.553 125.609 157.286 125.166C158.019 124.723 158.76 123.99 158.854 123.143C158.882 122.941 158.867 122.736 158.81 122.54C158.753 122.344 158.655 122.163 158.524 122.007C158.392 121.852 158.229 121.725 158.046 121.637C157.862 121.548 157.662 121.499 157.459 121.493C156.228 121.493 154.962 123.308 154.624 124.35C154.605 124.409 154.483 125.005 154.397 125.44C154.397 125.185 154.397 124.919 154.397 124.656C154.397 123.727 154.46 122.88 154.519 122.128C154.554 121.696 154.593 121.312 154.636 120.952C154.993 120.705 156.412 119.705 156.851 118.992C157.29 118.278 157.635 117.283 157.306 116.475C157.237 116.283 157.129 116.107 156.989 115.96C156.848 115.812 156.678 115.696 156.489 115.618C156.301 115.541 156.098 115.503 155.894 115.509C155.691 115.515 155.49 115.564 155.307 115.652C154.217 116.216 153.927 118.415 154.107 119.497C154.107 119.587 154.538 121.022 154.554 121.01H154.577C154.53 121.359 154.479 121.732 154.436 122.139C154.362 122.892 154.283 123.743 154.264 124.676C154.23 125.68 154.254 126.685 154.334 127.686C154.421 128.809 154.609 129.921 154.895 131.01C154.894 131.023 154.894 131.037 154.895 131.05C154.699 130.744 154.111 129.913 154.08 129.854C153.362 129.027 151.488 127.847 150.36 128.325C150.174 128.41 150.008 128.533 149.873 128.686C149.738 128.839 149.636 129.019 149.575 129.214C149.514 129.409 149.495 129.614 149.519 129.817C149.542 130.02 149.608 130.215 149.713 130.391C150.132 131.151 151.132 131.524 151.943 131.645C152.857 131.779 154.781 131.218 154.934 131.175C155.252 132.276 155.645 133.354 156.11 134.401C156.373 135.017 156.659 135.624 156.953 136.232C156.777 135.973 156.62 135.746 156.592 135.718C155.875 134.887 154.001 133.707 152.872 134.186C152.686 134.27 152.521 134.393 152.385 134.546C152.25 134.699 152.149 134.879 152.088 135.074C152.027 135.269 152.008 135.475 152.031 135.677C152.055 135.88 152.121 136.076 152.225 136.251C152.645 137.012 153.644 137.388 154.456 137.506C155.267 137.623 156.926 137.18 157.361 137.059C157.478 137.29 157.592 137.521 157.706 137.753C158.262 138.862 158.823 139.968 159.34 141.069C159.524 141.461 159.689 141.853 159.854 142.245C159.701 142.018 159.568 141.826 159.544 141.798C158.827 140.971 156.949 139.787 155.82 140.269C155.634 140.354 155.468 140.477 155.333 140.63C155.198 140.783 155.097 140.963 155.036 141.158C154.976 141.353 154.957 141.559 154.981 141.762C155.005 141.965 155.072 142.16 155.177 142.335C155.593 143.092 156.592 143.468 157.404 143.586C158.215 143.703 159.717 143.307 160.234 143.162C160.391 143.554 160.552 143.97 160.689 144.366C160.775 144.64 160.877 144.895 160.947 145.177C161.018 145.459 161.1 145.722 161.175 145.993C161.304 146.518 161.437 147.059 161.547 147.561C161.626 147.921 161.692 148.262 161.763 148.607C161.586 148.215 161.226 147.467 161.187 147.408C160.602 146.479 158.929 145.028 157.741 145.33C157.542 145.385 157.358 145.482 157.2 145.614C157.041 145.746 156.913 145.91 156.823 146.095C156.733 146.281 156.683 146.483 156.677 146.689C156.671 146.895 156.709 147.1 156.788 147.29C157.086 148.105 158.019 148.627 158.803 148.858C159.666 149.121 161.575 148.882 161.814 148.858C161.927 149.427 162.033 149.983 162.123 150.512C162.445 152.335 162.645 153.864 162.77 154.938C162.79 155.126 162.809 155.299 162.825 155.459H159.129L160.258 177.466H167L168.129 155.459H164.64L164.718 155.299C165.189 154.315 165.847 152.9 166.553 151.171C166.78 150.622 167.008 150.034 167.239 149.427C167.47 149.477 169.36 149.862 170.242 149.662C171.026 149.481 172.006 149.031 172.366 148.239C172.456 148.056 172.507 147.856 172.515 147.652C172.522 147.449 172.487 147.246 172.412 147.056C172.336 146.867 172.221 146.696 172.075 146.554C171.929 146.412 171.754 146.302 171.563 146.232C170.387 145.84 168.623 147.161 167.968 148.043C167.933 148.098 167.576 148.709 167.361 149.097C167.455 148.85 167.545 148.607 167.639 148.352C167.823 147.847 167.996 147.333 168.18 146.784C168.262 146.518 168.341 146.247 168.423 145.973C168.505 145.699 168.568 145.409 168.642 145.122C168.799 144.456 168.929 143.774 169.034 143.088C169.477 143.249 171.065 143.797 171.884 143.743C172.704 143.688 173.727 143.382 174.201 142.657C174.318 142.49 174.399 142.3 174.438 142.1C174.476 141.899 174.473 141.693 174.426 141.495C174.38 141.296 174.293 141.109 174.169 140.947C174.046 140.784 173.89 140.65 173.711 140.552C172.621 139.987 170.661 141.026 169.885 141.798C169.838 141.845 169.34 142.465 169.078 142.81C169.14 142.394 169.207 141.982 169.262 141.559C169.411 140.34 169.528 139.105 169.654 137.87L169.771 136.737C169.928 136.796 171.798 137.494 172.719 137.427C173.535 137.373 174.562 137.071 175.032 136.345C175.149 136.178 175.23 135.989 175.269 135.788C175.309 135.588 175.305 135.382 175.259 135.183C175.213 134.984 175.126 134.797 175.003 134.634C174.88 134.471 174.725 134.335 174.546 134.237C173.452 133.676 171.496 134.711 170.72 135.487C170.661 135.546 169.936 136.436 169.779 136.663C169.865 135.832 169.963 135.005 170.089 134.197C170.253 133.101 170.49 132.017 170.798 130.952C170.869 130.979 172.817 131.716 173.758 131.649C174.577 131.591 175.6 131.293 176.075 130.563C176.192 130.397 176.273 130.207 176.311 130.007C176.35 129.806 176.346 129.6 176.3 129.401C176.254 129.203 176.166 129.016 176.043 128.854C175.92 128.691 175.764 128.557 175.585 128.458C174.495 127.894 172.539 128.933 171.759 129.705C171.708 129.756 171.167 130.434 170.916 130.763L170.853 130.728C171.19 129.666 171.621 128.636 172.143 127.651C172.421 127.102 172.719 126.596 173.021 126.11C173.37 126.283 174.981 127.063 175.824 127.098C176.667 127.134 177.694 126.941 178.246 126.275C178.381 126.121 178.482 125.941 178.543 125.746C178.603 125.551 178.622 125.345 178.598 125.142C178.574 124.939 178.508 124.744 178.403 124.568C178.299 124.393 178.158 124.241 177.992 124.123C176.968 123.445 174.91 124.26 174.052 124.946C174.005 124.981 173.574 125.413 173.268 125.73C173.409 125.515 173.55 125.287 173.687 125.079C174.201 124.295 174.718 123.629 175.181 123.033C175.448 122.696 175.694 122.398 175.93 122.12C176.361 122.12 178.097 122.061 178.858 121.704C179.618 121.348 180.449 120.705 180.63 119.858C180.672 119.662 180.673 119.459 180.634 119.262C180.594 119.065 180.514 118.878 180.399 118.714C180.284 118.549 180.136 118.411 179.964 118.306C179.793 118.201 179.602 118.133 179.403 118.106ZM165.879 150.92C165.142 152.617 164.464 154.005 163.974 154.965C163.876 155.161 163.786 155.33 163.703 155.491H163.625C163.597 155.303 163.574 155.099 163.542 154.867C163.394 153.786 163.15 152.241 162.794 150.407C162.68 149.826 162.547 149.211 162.402 148.58C162.977 148.351 163.538 148.089 164.083 147.796C164.711 148.478 166.322 149.274 166.53 149.364C166.31 149.905 166.094 150.43 165.879 150.92Z" fill="#263238"/>
<path opacity="0.3" d="M151.159 125.44C152.041 125.832 154.197 125.773 154.197 125.773C154.197 125.773 153.735 124.362 153.695 124.276C153.221 123.288 151.735 121.653 150.508 121.818C150.306 121.85 150.113 121.924 149.941 122.036C149.77 122.147 149.624 122.294 149.513 122.466C149.402 122.638 149.328 122.832 149.297 123.034C149.266 123.237 149.278 123.443 149.332 123.641C149.544 124.491 150.407 125.119 151.159 125.44Z" fill="#263238"/>
<path opacity="0.3" d="M172.966 125.922C172.986 125.922 173.358 124.487 173.358 124.393C173.511 123.308 173.166 121.12 172.057 120.583C171.871 120.502 171.671 120.461 171.469 120.462C171.267 120.462 171.067 120.506 170.882 120.588C170.698 120.671 170.532 120.791 170.397 120.942C170.262 121.092 170.16 121.269 170.097 121.461C169.799 122.277 170.175 123.276 170.622 123.962C171.139 124.77 172.966 125.918 172.966 125.922Z" fill="#263238"/>
<path opacity="0.3" d="M179.403 118.106C178.18 117.976 176.729 119.65 176.267 120.65C176.228 120.74 175.781 122.163 175.804 122.163H175.828C175.596 122.426 175.353 122.708 175.091 123.025C174.613 123.609 174.079 124.276 173.546 125.044C172.963 125.862 172.429 126.715 171.947 127.596C171.4 128.579 170.942 129.609 170.579 130.673V130.712C170.579 130.356 170.579 129.348 170.559 129.27C170.418 128.184 169.505 126.165 168.297 125.942C168.096 125.91 167.89 125.92 167.693 125.973C167.496 126.026 167.313 126.12 167.155 126.249C166.997 126.378 166.868 126.538 166.776 126.721C166.685 126.903 166.633 127.102 166.624 127.306C166.549 128.172 167.176 129.035 167.8 129.583C168.49 130.199 170.402 130.795 170.544 130.842C170.201 131.935 169.931 133.049 169.736 134.178C169.618 134.836 169.52 135.499 169.43 136.169C169.43 135.855 169.43 135.577 169.43 135.542C169.289 134.452 168.376 132.433 167.168 132.21C166.967 132.178 166.761 132.19 166.564 132.243C166.367 132.296 166.184 132.391 166.026 132.52C165.868 132.649 165.739 132.81 165.647 132.992C165.556 133.175 165.504 133.374 165.495 133.578C165.42 134.44 166.047 135.307 166.671 135.852C167.294 136.396 168.913 136.945 169.344 137.086C169.309 137.341 169.277 137.596 169.246 137.87C169.097 139.101 168.956 140.332 168.78 141.536C168.721 141.959 168.642 142.374 168.568 142.79C168.568 142.516 168.568 142.28 168.568 142.245C168.427 141.159 167.517 139.14 166.306 138.917C166.105 138.885 165.899 138.897 165.702 138.95C165.505 139.003 165.321 139.098 165.163 139.227C165.005 139.356 164.876 139.517 164.785 139.699C164.693 139.882 164.641 140.081 164.632 140.285C164.562 141.147 165.189 142.014 165.808 142.559C166.428 143.104 167.894 143.601 168.403 143.766C168.313 144.189 168.227 144.613 168.121 145.02C168.039 145.295 167.984 145.565 167.89 145.84C167.796 146.114 167.713 146.381 167.631 146.647C167.443 147.153 167.259 147.678 167.067 148.168C166.933 148.509 166.804 148.835 166.675 149.16C166.741 148.737 166.855 147.91 166.855 147.839C166.84 146.875 166.58 145.93 166.098 145.095C166.102 144.987 166.095 144.88 166.079 144.773C166.053 144.571 165.986 144.376 165.88 144.202C165.775 144.027 165.633 143.877 165.466 143.76C165.299 143.644 165.108 143.564 164.908 143.526C164.708 143.488 164.502 143.492 164.303 143.539C163.127 143.856 162.363 145.942 162.304 147.035C162.304 147.098 162.343 147.819 162.378 148.251C162.319 147.992 162.265 147.741 162.198 147.467C162.072 146.941 161.935 146.424 161.786 145.863L161.504 145.04C161.43 144.77 161.312 144.491 161.218 144.213C160.983 143.57 160.716 142.931 160.434 142.292C160.893 142.182 162.519 141.767 163.178 141.269C163.836 140.771 164.519 139.952 164.511 139.086C164.516 138.882 164.479 138.679 164.401 138.49C164.323 138.302 164.206 138.132 164.059 137.991C163.911 137.851 163.735 137.743 163.543 137.675C163.35 137.607 163.146 137.58 162.943 137.596C161.72 137.729 160.661 139.674 160.442 140.732C160.442 140.803 160.356 141.59 160.324 142.022C160.148 141.63 159.975 141.261 159.787 140.877C159.242 139.779 158.654 138.686 158.074 137.588C157.894 137.251 157.721 136.918 157.549 136.581C157.713 136.542 159.654 136.091 160.387 135.53C161.038 135.032 161.724 134.217 161.72 133.351C161.725 133.147 161.688 132.944 161.61 132.755C161.532 132.567 161.415 132.397 161.268 132.256C161.12 132.116 160.944 132.008 160.752 131.94C160.559 131.872 160.355 131.845 160.152 131.861C158.933 131.994 157.874 133.939 157.651 134.997C157.651 135.079 157.533 136.212 157.521 136.502C157.129 135.761 156.757 135.021 156.416 134.276C155.951 133.27 155.55 132.236 155.216 131.179C155.295 131.179 157.325 130.701 158.074 130.124C158.725 129.627 159.415 128.811 159.407 127.945C159.412 127.741 159.375 127.538 159.297 127.35C159.219 127.161 159.103 126.991 158.955 126.851C158.807 126.71 158.631 126.603 158.439 126.534C158.247 126.466 158.042 126.439 157.839 126.455C156.616 126.589 155.557 128.533 155.334 129.591C155.334 129.662 155.24 130.528 155.212 130.94H155.142C154.837 129.867 154.629 128.769 154.519 127.659C154.452 127.051 154.421 126.463 154.401 125.891C154.793 125.844 156.553 125.609 157.286 125.166C158.019 124.723 158.76 123.99 158.854 123.143C158.882 122.941 158.867 122.736 158.81 122.54C158.753 122.344 158.655 122.163 158.524 122.007C158.392 121.852 158.229 121.725 158.046 121.637C157.862 121.548 157.662 121.499 157.459 121.493C156.228 121.493 154.962 123.308 154.624 124.35C154.605 124.409 154.483 125.005 154.397 125.44C154.397 125.185 154.397 124.919 154.397 124.656C154.397 123.727 154.46 122.88 154.519 122.128C154.554 121.696 154.593 121.312 154.636 120.952C154.993 120.705 156.412 119.705 156.851 118.992C157.29 118.278 157.635 117.283 157.306 116.475C157.237 116.283 157.129 116.107 156.989 115.96C156.848 115.812 156.678 115.696 156.489 115.618C156.301 115.541 156.098 115.503 155.894 115.509C155.691 115.515 155.49 115.564 155.307 115.652C154.217 116.216 153.927 118.415 154.107 119.497C154.107 119.587 154.538 121.022 154.554 121.01H154.577C154.53 121.359 154.479 121.732 154.436 122.139C154.362 122.892 154.283 123.743 154.264 124.676C154.23 125.68 154.254 126.685 154.334 127.686C154.421 128.809 154.609 129.921 154.895 131.01C154.894 131.023 154.894 131.037 154.895 131.05C154.699 130.744 154.111 129.913 154.08 129.854C153.362 129.027 151.488 127.847 150.36 128.325C150.174 128.41 150.008 128.533 149.873 128.686C149.738 128.839 149.636 129.019 149.575 129.214C149.514 129.409 149.495 129.614 149.519 129.817C149.542 130.02 149.608 130.215 149.713 130.391C150.132 131.151 151.132 131.524 151.943 131.645C152.857 131.779 154.781 131.218 154.934 131.175C155.252 132.276 155.645 133.354 156.11 134.401C156.373 135.017 156.659 135.624 156.953 136.232C156.777 135.973 156.62 135.746 156.592 135.718C155.875 134.887 154.001 133.707 152.872 134.186C152.686 134.27 152.521 134.393 152.385 134.546C152.25 134.699 152.149 134.879 152.088 135.074C152.027 135.269 152.008 135.475 152.031 135.677C152.055 135.88 152.121 136.076 152.225 136.251C152.645 137.012 153.644 137.388 154.456 137.506C155.267 137.623 156.926 137.18 157.361 137.059C157.478 137.29 157.592 137.521 157.706 137.753C158.262 138.862 158.823 139.968 159.34 141.069C159.524 141.461 159.689 141.853 159.854 142.245C159.701 142.018 159.568 141.826 159.544 141.798C158.827 140.971 156.949 139.787 155.82 140.269C155.634 140.354 155.468 140.477 155.333 140.63C155.198 140.783 155.097 140.963 155.036 141.158C154.976 141.353 154.957 141.559 154.981 141.762C155.005 141.965 155.072 142.16 155.177 142.335C155.593 143.092 156.592 143.468 157.404 143.586C158.215 143.703 159.717 143.307 160.234 143.162C160.391 143.554 160.552 143.97 160.689 144.366C160.775 144.64 160.877 144.895 160.947 145.177C161.018 145.459 161.1 145.722 161.175 145.993C161.304 146.518 161.437 147.059 161.547 147.561C161.626 147.921 161.692 148.262 161.763 148.607C161.586 148.215 161.226 147.467 161.187 147.408C160.602 146.479 158.929 145.028 157.741 145.33C157.542 145.385 157.358 145.482 157.2 145.614C157.041 145.746 156.913 145.91 156.823 146.095C156.733 146.281 156.683 146.483 156.677 146.689C156.671 146.895 156.709 147.1 156.788 147.29C157.086 148.105 158.019 148.627 158.803 148.858C159.666 149.121 161.575 148.882 161.814 148.858C161.927 149.427 162.033 149.983 162.123 150.512C162.445 152.335 162.645 153.864 162.77 154.938C162.79 155.126 162.809 155.299 162.825 155.459H159.129L160.258 177.466H167L168.129 155.459H164.64L164.718 155.299C165.189 154.315 165.847 152.9 166.553 151.171C166.78 150.622 167.008 150.034 167.239 149.427C167.47 149.477 169.36 149.862 170.242 149.662C171.026 149.481 172.006 149.031 172.366 148.239C172.456 148.056 172.507 147.856 172.515 147.652C172.522 147.449 172.487 147.246 172.412 147.056C172.336 146.867 172.221 146.696 172.075 146.554C171.929 146.412 171.754 146.302 171.563 146.232C170.387 145.84 168.623 147.161 167.968 148.043C167.933 148.098 167.576 148.709 167.361 149.097C167.455 148.85 167.545 148.607 167.639 148.352C167.823 147.847 167.996 147.333 168.18 146.784C168.262 146.518 168.341 146.247 168.423 145.973C168.505 145.699 168.568 145.409 168.642 145.122C168.799 144.456 168.929 143.774 169.034 143.088C169.477 143.249 171.065 143.797 171.884 143.743C172.704 143.688 173.727 143.382 174.201 142.657C174.318 142.49 174.399 142.3 174.438 142.1C174.476 141.899 174.473 141.693 174.426 141.495C174.38 141.296 174.293 141.109 174.169 140.947C174.046 140.784 173.89 140.65 173.711 140.552C172.621 139.987 170.661 141.026 169.885 141.798C169.838 141.845 169.34 142.465 169.078 142.81C169.14 142.394 169.207 141.982 169.262 141.559C169.411 140.34 169.528 139.105 169.654 137.87L169.771 136.737C169.928 136.796 171.798 137.494 172.719 137.427C173.535 137.373 174.562 137.071 175.032 136.345C175.149 136.178 175.23 135.989 175.269 135.788C175.309 135.588 175.305 135.382 175.259 135.183C175.213 134.984 175.126 134.797 175.003 134.634C174.88 134.471 174.725 134.335 174.546 134.237C173.452 133.676 171.496 134.711 170.72 135.487C170.661 135.546 169.936 136.436 169.779 136.663C169.865 135.832 169.963 135.005 170.089 134.197C170.253 133.101 170.49 132.017 170.798 130.952C170.869 130.979 172.817 131.716 173.758 131.649C174.577 131.591 175.6 131.293 176.075 130.563C176.192 130.397 176.273 130.207 176.311 130.007C176.35 129.806 176.346 129.6 176.3 129.401C176.254 129.203 176.166 129.016 176.043 128.854C175.92 128.691 175.764 128.557 175.585 128.458C174.495 127.894 172.539 128.933 171.759 129.705C171.708 129.756 171.167 130.434 170.916 130.763L170.853 130.728C171.19 129.666 171.621 128.636 172.143 127.651C172.421 127.102 172.719 126.596 173.021 126.11C173.37 126.283 174.981 127.063 175.824 127.098C176.667 127.134 177.694 126.941 178.246 126.275C178.381 126.121 178.482 125.941 178.543 125.746C178.603 125.551 178.622 125.345 178.598 125.142C178.574 124.939 178.508 124.744 178.403 124.568C178.299 124.393 178.158 124.241 177.992 124.123C176.968 123.445 174.91 124.26 174.052 124.946C174.005 124.981 173.574 125.413 173.268 125.73C173.409 125.515 173.55 125.287 173.687 125.079C174.201 124.295 174.718 123.629 175.181 123.033C175.448 122.696 175.694 122.398 175.93 122.12C176.361 122.12 178.097 122.061 178.858 121.704C179.618 121.348 180.449 120.705 180.63 119.858C180.672 119.662 180.673 119.459 180.634 119.262C180.594 119.065 180.514 118.878 180.399 118.714C180.284 118.549 180.136 118.411 179.964 118.306C179.793 118.201 179.602 118.133 179.403 118.106ZM165.879 150.92C165.142 152.617 164.464 154.005 163.974 154.965C163.876 155.161 163.786 155.33 163.703 155.491H163.625C163.597 155.303 163.574 155.099 163.542 154.867C163.394 153.786 163.15 152.241 162.794 150.407C162.68 149.826 162.547 149.211 162.402 148.58C162.977 148.351 163.538 148.089 164.083 147.796C164.711 148.478 166.322 149.274 166.53 149.364C166.31 149.905 166.094 150.43 165.879 150.92Z" fill="#263238"/>
<path d="M151.704 177.498H184.922" stroke="#263238" stroke-linejoin="round"/>
<path d="M34.4956 177.498H148.176" stroke="#263238" stroke-linejoin="round"/>
<path d="M19.2549 177.498H30.9678" stroke="#263238" stroke-linejoin="round"/>
<path d="M129.482 176.204C129.462 176.492 129.417 176.778 129.348 177.059C129.027 178.235 127.196 177.811 126.122 178.235C125.048 178.658 123.649 179.203 122.681 179.524C121.712 179.846 118.706 180.065 117.193 179.74C116.197 179.528 115.719 178.987 115.699 178.427C115.692 178.118 115.805 177.819 116.013 177.592C116.655 176.839 119.125 175.871 120.525 174.797C121.924 173.723 123.751 171.139 123.751 171.139C125.793 171.68 129.239 171.249 129.239 171.249C129.239 171.249 129.45 172.425 129.45 172.754C129.526 173.903 129.536 175.055 129.482 176.204Z" fill="white" stroke="#263238" stroke-linecap="round" stroke-linejoin="round"/>
<path d="M129.481 176.204C129.462 176.492 129.417 176.778 129.348 177.059C129.027 178.235 127.196 177.811 126.122 178.235C125.048 178.658 123.648 179.203 122.68 179.524C121.712 179.846 118.705 180.065 117.192 179.74C116.197 179.528 115.718 178.987 115.699 178.427C116.248 178.819 117.584 179.528 120.124 179.305C123.652 179.003 124.856 177.78 126.31 177.172C127.342 176.772 128.402 176.448 129.481 176.204Z" fill="white" stroke="#263238" stroke-linecap="round" stroke-linejoin="round"/>
<path d="M129.333 171.79C129.286 171.492 129.243 171.253 129.243 171.253C128.161 171.377 127.073 171.429 125.985 171.41L125.907 171.469C125.907 171.469 126.122 171.359 126.232 172.221C126.294 172.792 126.294 173.368 126.232 173.938C126.232 173.938 128.678 173.358 129.027 172.543C129.129 172.304 129.235 172.041 129.333 171.79Z" fill="white" stroke="#263238" stroke-linecap="round" stroke-linejoin="round"/>
<path d="M141.512 180.673C140.524 181.3 135.679 184.009 134.848 184.166C134.017 184.322 130.928 184.111 130.054 183.382C129.368 182.817 129.184 182.06 129.627 181.422C129.77 181.222 129.951 181.053 130.16 180.924C131.203 180.246 133.025 178.317 133.86 177.223C134.695 176.13 135.997 174.201 135.997 174.201L136.099 173.629L141.414 173.785C141.414 173.785 141.516 174.93 141.567 175.142C141.761 175.877 141.901 176.625 141.986 177.38C142.049 177.823 142.12 178.238 142.163 178.619C142.245 179.536 142.194 180.234 141.512 180.673Z" fill="white" stroke="#263238" stroke-linecap="round" stroke-linejoin="round"/>
<path d="M141.512 180.673C140.524 181.3 135.679 184.009 134.848 184.166C134.017 184.322 130.928 184.111 130.054 183.382C129.368 182.817 129.184 182.061 129.627 181.422C129.693 181.786 130.195 183.632 133.433 183.499C137.02 183.346 139.842 180.14 141.445 179.07C141.7 178.897 141.939 178.748 142.163 178.619C142.245 179.536 142.194 180.234 141.512 180.673Z" fill="white" stroke="#263238" stroke-linecap="round" stroke-linejoin="round"/>
<path d="M141.394 173.797L136.079 173.64L135.977 174.213L135.726 174.577C135.859 174.577 137.455 174.491 137.902 174.891C138.349 175.291 138.423 176.663 139.517 176.298C140.261 176.028 140.947 175.619 141.539 175.095C141.485 174.789 141.394 173.797 141.394 173.797Z" fill="white" stroke="#263238" stroke-linecap="round" stroke-linejoin="round"/>
<path d="M119.78 121.798C119.78 121.798 119.348 133.088 120.211 139.968C121.073 146.847 121.285 151.794 121.387 152.12C121.489 152.445 123.535 166.094 123.641 166.957C123.747 167.819 124.072 168.783 124.072 169.105C124.072 169.426 124.394 169.536 126.009 169.967C127.083 170.204 128.202 170.129 129.235 169.752C129.235 169.752 129.987 162.335 129.987 160.399C129.987 158.462 129.019 149.646 129.019 149.325C129.019 149.003 129.662 134.276 129.662 134.276L130.199 134.703C130.199 134.703 130.952 147.282 131.277 149.646C131.602 152.01 131.704 154.162 132.136 155.346C132.567 156.53 133.535 164.052 133.962 165.146C134.39 166.239 134.715 170.304 134.715 170.304L135.036 171.594C135.036 171.594 135.468 172.77 138.172 172.77C140.877 172.77 141.398 172.123 141.398 172.123C141.398 172.123 141.504 166.428 141.504 163.738C141.504 161.049 140.105 153.096 139.893 151.269C139.682 149.442 139.352 142.022 139.783 140.516C140.215 139.011 140.959 130.199 140.959 126.436C140.995 124.677 140.923 122.917 140.744 121.167C140.744 121.167 130.532 121.81 127.09 121.273C123.649 120.736 120.426 119.983 120.426 119.983L119.78 121.798Z" fill="#263238" stroke="#263238" stroke-linecap="round" stroke-linejoin="round"/>
<path d="M122.9 121.371C122.9 121.371 127.522 122.767 134.938 122.124L135.044 120.187L123.221 116.208L122.9 121.371Z" fill="#808080" stroke="#263238" stroke-linecap="round" stroke-linejoin="round"/>
<path d="M129.167 121.021L126.116 120.907L126.071 122.11L129.122 122.224L129.167 121.021Z" fill="white" stroke="#263238" stroke-linecap="round" stroke-linejoin="round"/>
<path d="M135.907 89.6543C135.907 89.6543 132.143 89.227 130.317 89.7641C128.49 90.3011 126.232 90.94 125.585 92.6648C124.938 94.3896 121.771 119.921 121.771 119.921C121.771 119.921 125.264 121.05 128.38 121.05C131.497 121.05 134.832 120.834 134.832 120.834C134.832 120.834 135.154 107.071 135.907 104.601C136.659 102.132 135.907 89.6543 135.907 89.6543Z" fill="#F35D74" stroke="#263238" stroke-linecap="round" stroke-linejoin="round"/>
<path d="M127.369 91.4144C127.369 91.4144 127.502 94.0839 128.282 94.7347C129.062 95.3854 129.129 95.5853 129.129 95.5853L129.583 100.681C129.583 100.681 131.281 97.608 131.477 97.216C131.667 96.5122 131.798 95.7936 131.869 95.0679C132.436 94.6413 132.981 94.1846 133.5 93.6998C134.084 93.1118 134.542 89.2035 134.542 88.7449C134.542 88.2863 134.413 85.8127 134.413 85.8127C134.413 85.8127 133.041 88.8743 131.543 90.2423C130.046 91.6104 128.611 91.7437 128.286 91.6771C127.961 91.6104 127.369 91.4144 127.369 91.4144Z" fill="white" stroke="#263238" stroke-linecap="round" stroke-linejoin="round"/>
<path d="M127.306 90.6304C127.306 90.6304 127.173 100.082 127.173 103.923C127.173 107.765 125.997 112.59 124.762 115.848C123.527 119.105 120.842 127.87 120.007 129.893C119.46 131.229 119.003 132.6 118.639 133.997C118.639 133.997 117.4 133.017 117.334 129.826C117.267 126.636 118.051 122.919 118.18 120.638C118.31 118.357 118.376 113.582 118.376 113.582C118.376 113.582 118.376 114.687 116.683 115.542C114.989 116.397 113.939 116.781 112.837 114.695C111.736 112.61 111.861 111.371 112.904 109.482C113.947 107.592 114.923 102.704 115.769 100.489C116.616 98.2744 116.553 95.1463 117.467 94.4955C118.38 93.8448 122.743 92.0847 124.503 91.042C126.263 89.9993 126.981 89.9993 126.981 89.9993C126.981 89.9993 127.239 89.8503 127.306 90.6304Z" fill="white" stroke="#263238" stroke-linecap="round" stroke-linejoin="round"/>
<path d="M114.797 108.549C114.797 108.549 113.492 111.246 113.864 112.175C114.237 113.104 115.432 114.135 116.843 113.292C118.255 112.449 118.701 112.363 118.235 110.595C117.769 108.827 116.005 107.526 114.797 108.549Z" stroke="#263238" stroke-linecap="round" stroke-linejoin="round"/>
<path d="M119.101 99.4426C119.058 98.5331 119.031 97.9294 119.031 97.9294L119.101 99.4426Z" fill="white"/>
<path d="M119.101 99.4426C119.058 98.5331 119.031 97.9294 119.031 97.9294" stroke="#263238" stroke-linecap="round" stroke-linejoin="round"/>
<path d="M118.384 113.57C118.384 113.57 119.298 108.615 119.298 105.813C119.298 104.28 119.219 102.061 119.149 100.368" fill="white"/>
<path d="M118.384 113.57C118.384 113.57 119.298 108.615 119.298 105.813C119.298 104.28 119.219 102.061 119.149 100.368" stroke="#263238" stroke-linecap="round" stroke-linejoin="round"/>
<path d="M126.981 89.9797C126.981 89.9797 126.412 89.9797 125.056 90.7088C124.754 92.4258 124.174 96.4203 124.566 100.082C124.903 103.178 126.017 106.405 126.773 108.314C127.02 106.86 127.151 105.389 127.165 103.915C127.165 100.074 127.298 90.6226 127.298 90.6226C127.24 89.8503 126.981 89.9797 126.981 89.9797Z" fill="white" stroke="#263238" stroke-linecap="round" stroke-linejoin="round"/>
<path d="M123.088 81.5556C123.088 81.5556 123.625 84.9973 124.166 86.483C124.707 87.9687 125.989 89.5837 126.518 90.599C127.047 91.6143 128.204 92.6884 129.486 92.6884C130.767 92.6884 132.52 90.9361 132.857 90.3364C133.194 89.7366 134.139 88.6468 134.209 87.9844C134.28 87.3219 134.276 86.2321 134.276 86.2321C134.688 86.0957 135.053 85.8463 135.331 85.5122C135.608 85.1781 135.786 84.7729 135.844 84.3427C136.031 83.5311 135.96 82.6813 135.64 81.9123C135.325 81.1592 134.941 80.4374 134.491 79.7563C133.547 78.1883 130.446 77.3259 127.475 77.7963C124.503 78.2667 123.021 79.5328 123.088 81.5556Z" fill="white" stroke="#263238" stroke-linecap="round" stroke-linejoin="round"/>
<path d="M123.171 84.28C124.459 84.033 125.785 84.0504 127.067 84.3309C127.067 84.3309 127.404 85.5461 126.675 86.3536C125.946 87.1612 124.582 86.8946 124.178 86.7456C123.774 86.5967 123.147 85.9068 123.171 84.28Z" fill="white" stroke="#263238" stroke-linecap="round" stroke-linejoin="round"/>
<path d="M128.416 84.2212C129.709 83.9552 131.042 83.9552 132.336 84.2212C132.336 84.2212 132.688 85.4286 131.944 86.2518C131.199 87.075 129.858 86.8201 129.454 86.6908C129.051 86.5614 128.416 85.848 128.416 84.2212Z" fill="white" stroke="#263238" stroke-linecap="round" stroke-linejoin="round"/>
<path d="M127.067 84.3231C127.488 84.1217 127.969 84.0854 128.415 84.2212" stroke="#263238" stroke-linecap="round" stroke-linejoin="round"/>
<path d="M132.316 84.2133L134.15 82.9746" stroke="#263238" stroke-linecap="round" stroke-linejoin="round"/>
<path d="M127.173 84.8837C127.173 84.8837 127.898 84.6015 128.349 84.8837" stroke="#263238" stroke-linecap="round" stroke-linejoin="round"/>
<path d="M128.784 83.7587C129.56 83.4347 130.416 83.3501 131.242 83.5157" stroke="#263238" stroke-linecap="round" stroke-linejoin="round"/>
<path d="M126.647 83.9586C125.986 83.5857 125.206 83.4845 124.472 83.6764" stroke="#263238" stroke-linecap="round" stroke-linejoin="round"/>
<path d="M127.173 85.5697C127.173 85.5697 127.091 88.5136 127.13 88.6351C127.359 88.8591 127.658 88.9975 127.976 89.0271C128.331 88.9867 128.683 88.9186 129.027 88.8233" stroke="#263238" stroke-linecap="round" stroke-linejoin="round"/>
<path d="M127.494 89.7681C127.494 89.7681 128.302 90.4541 129.791 89.8465" stroke="#263238" stroke-linecap="round" stroke-linejoin="round"/>
<path d="M121.873 78.3177C121.873 78.3177 119.646 78.9919 120.05 80.411C120.454 81.83 123.021 82.3004 125.585 81.6223C127.419 81.0986 129.207 80.422 130.928 79.5995C130.76 79.8067 130.68 80.0716 130.706 80.3372C130.731 80.6027 130.86 80.8475 131.065 81.0186C131.806 81.6928 131.739 79.5995 131.739 79.5995C131.739 79.5995 131.673 82.0299 132.617 82.3671C133.562 82.7042 133.629 82.9041 133.629 82.9041C133.629 82.9041 133.292 84.2565 133.695 84.3898C134.099 84.5231 134.166 82.9747 134.166 82.9747C134.166 82.9747 134.303 82.1632 134.977 82.0299L135.652 81.8927C135.652 81.8927 135.518 77.373 135.111 75.6874C134.703 74.0018 130.591 72.0418 127.016 73.3354C123.441 74.629 121.736 76.3616 121.873 78.3177Z" fill="#263238" stroke="#263238" stroke-linecap="round" stroke-linejoin="round"/>
<path d="M114.143 110.376L115.711 107.898L117.012 109.984C116.425 110.327 115.816 110.632 115.189 110.897C114.822 110.764 114.47 110.589 114.143 110.376Z" fill="white" stroke="#263238" stroke-linecap="round" stroke-linejoin="round"/>
<path d="M117.333 111.677C117.714 111.84 118.107 111.971 118.509 112.069C118.9 112.046 119.282 111.941 119.629 111.762C119.977 111.582 120.283 111.331 120.528 111.026C120.92 110.375 120.266 110.309 120.266 110.309L119.482 111.026L118.176 110.963L117.333 111.677Z" fill="white" stroke="#263238" stroke-linecap="round" stroke-linejoin="round"/>
<path d="M113.296 105.162L117.075 110.897L120.266 110.963L116.879 105.162H113.296Z" fill="#263238" stroke="#263238" stroke-linecap="round" stroke-linejoin="round"/>
<path d="M117.208 108.878C117.208 108.878 114.146 109.921 114.146 110.375C114.174 110.608 114.292 110.82 114.474 110.967C114.657 111.114 114.89 111.183 115.123 111.159C115.644 111.159 117.663 109.854 117.867 109.462C118.07 109.07 117.855 108.811 117.208 108.878Z" fill="white" stroke="#263238" stroke-linecap="round" stroke-linejoin="round"/>
<path d="M115.444 111.222C115.491 111.401 115.581 111.566 115.706 111.703C115.831 111.839 115.987 111.944 116.162 112.006C116.75 112.198 118.514 110.964 118.835 110.505C119.157 110.046 118.18 110.18 117.467 110.442C116.754 110.705 115.444 111.222 115.444 111.222Z" fill="white" stroke="#263238" stroke-linecap="round" stroke-linejoin="round"/>
<path d="M114.205 106.663C114.124 106.727 114.056 106.806 114.005 106.897C113.955 106.987 113.923 107.086 113.911 107.189C113.899 107.292 113.907 107.396 113.935 107.495C113.964 107.595 114.012 107.688 114.076 107.769C114.535 108.419 115.644 108.553 115.644 108.553L114.205 106.663Z" fill="white" stroke="#263238" stroke-linecap="round" stroke-linejoin="round"/>
<path d="M134.538 88.741C134.538 88.741 131.998 105.75 131.402 107.247C130.806 108.745 132.512 120.246 132.512 121.81C132.512 123.374 134.009 123.637 134.593 123.962C135.177 124.288 139.94 126.569 140.653 127.741C141.367 128.913 143.197 131.391 143.197 131.391C143.197 131.391 142.104 120.328 141.959 114.35C141.9 111.94 142.088 108.357 142.088 108.357C142.088 108.357 144.832 94.1506 144.566 93.1078C144.299 92.0651 139.94 90.3638 138.047 89.721C136.898 89.3235 135.726 88.9962 134.538 88.741Z" fill="white" stroke="#263238" stroke-linecap="round" stroke-linejoin="round"/>
<path d="M137.729 90.944C137.796 90.5011 137.858 90.0268 137.906 89.6583C136.802 89.2837 135.678 88.9735 134.538 88.7292C134.538 88.7292 131.998 105.738 131.402 107.236C131.288 107.667 131.248 108.115 131.285 108.561C131.63 108.074 133.088 105.989 134.401 103.653C135.906 100.991 137.592 91.8692 137.729 90.944Z" fill="white" stroke="#263238" stroke-linecap="round" stroke-linejoin="round"/>
<path d="M132.845 122.986C134.076 123.371 135.342 123.634 136.624 123.77C138.906 124.029 144.299 126.181 146.22 128.541C146.841 129.243 147.387 130.008 147.851 130.822C147.851 130.822 145.158 131.214 144.637 131.265C144.115 131.316 142.943 131.394 142.943 131.394C142.943 131.394 140.858 128.396 139.807 127.549C138.757 126.702 133.233 123.962 132.845 122.986Z" fill="white" stroke="#263238" stroke-linecap="round" stroke-linejoin="round"/>
<path d="M123.221 169.023V170.881C123.222 171.033 123.267 171.183 123.351 171.31C123.436 171.438 123.555 171.538 123.696 171.598C124.513 171.908 125.364 172.118 126.232 172.221C127.303 172.397 128.402 172.224 129.368 171.727C129.488 171.658 129.587 171.559 129.656 171.439C129.724 171.319 129.76 171.183 129.76 171.045V169.344C129.761 169.249 129.74 169.154 129.701 169.068C129.661 168.981 129.603 168.904 129.531 168.842C129.458 168.78 129.373 168.735 129.282 168.709C129.19 168.683 129.093 168.678 128.999 168.693C127.823 168.885 125.511 169.144 123.79 168.576C123.722 168.557 123.651 168.555 123.582 168.569C123.513 168.583 123.449 168.613 123.393 168.656C123.338 168.7 123.294 168.756 123.264 168.819C123.234 168.883 123.22 168.952 123.221 169.023Z" fill="#808080" stroke="#263238" stroke-linecap="round" stroke-linejoin="round"/>
<path d="M134.456 170.998V173.095C134.456 173.268 134.507 173.437 134.603 173.581C134.698 173.724 134.834 173.836 134.993 173.903C135.915 174.252 136.876 174.488 137.855 174.605C139.067 174.807 140.311 174.612 141.402 174.048C141.543 173.972 141.66 173.858 141.74 173.72C141.82 173.582 141.861 173.424 141.857 173.264V171.359C141.858 171.252 141.834 171.146 141.79 171.048C141.745 170.951 141.679 170.864 141.597 170.795C141.516 170.726 141.42 170.675 141.316 170.646C141.213 170.618 141.105 170.612 140.999 170.63C139.67 170.845 137.079 171.135 135.119 170.493C135.041 170.469 134.958 170.464 134.878 170.479C134.798 170.493 134.723 170.526 134.658 170.576C134.593 170.625 134.541 170.689 134.506 170.763C134.471 170.836 134.454 170.917 134.456 170.998Z" fill="#808080" stroke="#263238" stroke-linecap="round" stroke-linejoin="round"/>
<path d="M138.846 124.77L136.726 126.722L139.865 129.775L141.049 127.823L138.846 124.77Z" fill="white" stroke="#263238" stroke-linecap="round" stroke-linejoin="round"/>
<path d="M141.771 101.254C141.771 101.254 141.316 105.099 141.508 106.467C141.7 107.835 144.766 115.444 144.766 115.444L138.25 124.876C138.25 124.876 139.034 128.196 141.249 129.238C141.249 129.238 147.655 123.002 148.874 121.681C151.484 118.85 152.484 116.393 152.484 115.35C152.484 114.307 146.071 95.3226 145.942 94.864C145.812 94.4054 145.158 92.6492 143.531 92.1906" fill="white"/>
<path d="M141.771 101.254C141.771 101.254 141.316 105.099 141.508 106.467C141.7 107.835 144.766 115.444 144.766 115.444L138.25 124.876C138.25 124.876 139.034 128.196 141.249 129.238C141.249 129.238 147.655 123.002 148.874 121.681C151.484 118.85 152.484 116.393 152.484 115.35C152.484 114.307 146.071 95.3226 145.942 94.864C145.812 94.4054 145.158 92.6492 143.531 92.1906" stroke="#263238" stroke-linecap="round" stroke-linejoin="round"/>
<path d="M145.393 115.428C145.393 115.428 147.251 114.315 149.203 115.056" stroke="#263238" stroke-linecap="round" stroke-linejoin="round"/>
<path d="M147.624 114.221C148.43 114.077 149.26 114.243 149.948 114.687" stroke="#263238" stroke-linecap="round" stroke-linejoin="round"/>
<path d="M125.62 32.3048C127.38 32.305 129.117 32.6978 130.705 33.4546C132.293 34.2114 133.693 35.3132 134.801 36.6795H156.776C158.388 36.7201 159.921 37.389 161.047 38.5436C162.172 39.6981 162.803 41.2468 162.803 42.8594C162.803 44.472 162.172 46.0207 161.047 47.1752C159.921 48.3298 158.388 48.9987 156.776 49.0393H136.392C135.526 50.9397 134.174 52.5784 132.472 53.7903L125.891 58.8863C125.866 58.9047 125.835 58.9143 125.805 58.9138C125.776 58.9141 125.748 58.9044 125.726 58.8863L118.502 53.6374C117.02 52.5404 115.82 51.1065 115.002 49.4543C114.185 47.802 113.772 45.9788 113.798 44.1354C113.802 41.0003 115.048 37.9948 117.264 35.7772C119.481 33.5597 122.485 32.311 125.62 32.3048Z" fill="#263238"/>
<path d="M157.075 47.8241H128.576V35.7387H157.075C158.677 35.7387 160.213 36.3752 161.346 37.508C162.479 38.6409 163.115 40.1774 163.115 41.7795C163.116 42.5731 162.96 43.359 162.657 44.0923C162.353 44.8257 161.908 45.4921 161.347 46.0534C160.786 46.6148 160.12 47.0601 159.387 47.3639C158.654 47.6677 157.868 47.8241 157.075 47.8241Z" fill="white" stroke="#263238" stroke-linecap="round" stroke-linejoin="round"/>
<path d="M157.717 40.0076H142.437" stroke="#263238" stroke-linejoin="round"/>
<path d="M157.717 41.9362H142.437" stroke="#263238" stroke-linejoin="round"/>
<path d="M157.717 43.861H142.437" stroke="#263238" stroke-linejoin="round"/>
<path d="M118.878 52.4457L126.098 57.6985L132.68 52.6025C134.317 51.4411 135.627 49.8781 136.485 48.0639C137.343 46.2497 137.719 44.2453 137.579 42.2434C137.438 40.2415 136.785 38.3095 135.682 36.6331C134.578 34.9567 133.062 33.5924 131.279 32.6712C129.497 31.75 127.507 31.3031 125.501 31.3732C123.495 31.4434 121.542 32.0285 119.828 33.072C118.113 34.1156 116.697 35.5826 115.713 37.332C114.73 39.0815 114.213 41.0544 114.213 43.0613C114.189 44.8836 114.599 46.6856 115.41 48.3176C116.222 49.9497 117.41 51.3648 118.878 52.4457Z" fill="white" stroke="#263238" stroke-linecap="round" stroke-linejoin="round"/>
<path d="M136.126 43.12C136.127 45.1552 135.524 47.1449 134.394 48.8375C133.264 50.5301 131.657 51.8496 129.777 52.6291C127.897 53.4087 125.828 53.6132 123.832 53.217C121.836 52.8207 120.002 51.8414 118.563 50.4028C117.123 48.9643 116.142 47.1312 115.744 45.1352C115.347 43.1393 115.55 41.0703 116.328 39.1897C117.106 37.3092 118.424 35.7016 120.116 34.5703C121.808 33.439 123.797 32.8347 125.832 32.8339C127.184 32.8293 128.524 33.0921 129.775 33.6073C131.025 34.1224 132.162 34.8798 133.118 35.8358C134.075 36.7918 134.833 37.9275 135.35 39.1776C135.866 40.4277 136.13 41.7675 136.126 43.12Z" fill="#F35D74" stroke="#263238" stroke-linejoin="round"/>
<path d="M133.303 50.1996L125.902 48.2749L118.062 49.8703C118.16 49.9879 118.266 50.1016 118.372 50.2114C119.334 51.225 120.491 52.0321 121.775 52.5838C123.058 53.1354 124.441 53.4198 125.838 53.4198C127.235 53.4198 128.617 53.1354 129.901 52.5838C131.184 52.0321 132.342 51.225 133.303 50.2114V50.1996Z" fill="white" stroke="#263238" stroke-linecap="round" stroke-linejoin="round"/>
<path d="M124.581 47.7653C123.948 48.1038 123.381 48.554 122.907 49.0941C122.174 49.9526 120.947 52.2301 121.061 52.1439C121.175 52.0577 124.624 49.9526 124.624 49.9526L124.581 47.7653Z" fill="#F35D74" stroke="#263238" stroke-linecap="round" stroke-linejoin="round"/>
<path d="M127.455 47.3341L124.75 50.2976L125.522 53.0024L128.701 48.9687L127.455 47.3341Z" fill="#F35D74" stroke="#263238" stroke-linecap="round" stroke-linejoin="round"/>
<path d="M122.477 36.9891C122.477 36.9891 120.716 37.3341 120.517 35.7896C120.317 34.2451 122.708 32.0538 126.142 32.0538C129.576 32.0538 132.28 34.9311 132.151 37.7222C132.033 39.5228 131.418 41.2555 130.375 42.728C129.733 43.2531 128.986 43.6341 128.184 43.8452C127.584 43.9275 127.157 43.0612 127.455 41.9558C127.753 40.8503 126.812 40.5367 127.2 39.5097C127.588 38.4826 128.102 38.4787 128.27 38.1338C128.439 37.7888 126.553 37.0597 124.836 37.1459C123.119 37.2322 122.477 36.9891 122.477 36.9891Z" fill="#263238" stroke="#263238" stroke-linecap="round" stroke-linejoin="round"/>
<path d="M124.366 46.0914L124.335 46.2561C124.245 46.7853 123.966 48.4395 123.892 49.4391C123.809 50.6426 124.676 50.6151 125.009 50.2545C125.342 49.8938 127.157 48.1102 127.455 47.338C127.753 46.5658 128.443 44.2451 128.443 44.2451L124.366 46.0914Z" fill="white" stroke="#263238" stroke-linecap="round" stroke-linejoin="round"/>
<path d="M122.476 36.9892C122.476 36.9892 121.877 40.3408 121.661 42.0852C121.446 43.8296 121.23 44.8723 121.963 46.0052C122.696 47.1381 124.75 46.3972 125.781 45.9621C126.863 45.4272 127.911 44.825 128.917 44.1589C128.917 44.1589 130.375 44.2451 130.975 43.516C131.076 43.3859 131.147 43.2348 131.182 43.0738C131.217 42.9128 131.216 42.746 131.179 42.5855C131.141 42.425 131.068 42.275 130.965 42.1464C130.862 42.0178 130.731 41.9138 130.583 41.8421C130.331 41.8331 130.08 41.8738 129.844 41.9619C129.608 42.05 129.391 42.1838 129.207 42.3557C128.952 42.6575 128.995 43.0025 128.694 43.0025C128.392 43.0025 127.964 43.0848 128.051 42.7869C128.137 42.4889 128.78 41.4972 128.607 40.8543C128.435 40.2114 127.149 39.7802 128.215 39.1805C129.282 38.5807 130.407 38.6238 129.893 37.7222C129.38 36.8206 126.714 35.8759 125.04 36.2169C124.16 36.3815 123.301 36.6404 122.476 36.9892Z" fill="white" stroke="#263238" stroke-linecap="round" stroke-linejoin="round"/>
<path d="M123.033 37.977C123.033 37.977 124.041 37.7653 123.978 38.7924C123.954 39.1844 122.175 41.0699 122.433 41.4972C122.609 41.7732 122.843 42.0074 123.119 42.1832" stroke="#263238" stroke-linecap="round" stroke-linejoin="round"/>
<path d="M125.181 39.051C125.318 38.9383 125.479 38.8581 125.652 38.8164C125.824 38.7748 126.004 38.7727 126.178 38.8104C126.351 38.8481 126.514 38.9246 126.654 39.0342C126.793 39.1438 126.906 39.2835 126.984 39.443" stroke="#263238" stroke-linecap="round" stroke-linejoin="round"/>
<path d="M122.696 43.4297C122.696 43.4297 122.955 44.0726 123.982 43.9863C124.443 43.9884 124.898 43.8865 125.314 43.6884" stroke="#263238" stroke-linecap="round" stroke-linejoin="round"/>
<path d="M125.773 40.4623C125.714 40.7446 125.542 40.9484 125.381 40.9171C125.22 40.8857 125.158 40.627 125.22 40.3447C125.283 40.0625 125.452 39.8587 125.612 39.89C125.773 39.9214 125.832 40.1801 125.773 40.4623Z" fill="#263238"/>
<path d="M123.276 39.5098C123.221 39.7842 123.061 39.9841 122.916 39.9567C122.771 39.9292 122.696 39.6823 122.751 39.4079C122.806 39.1335 122.967 38.9335 123.112 38.9649C123.257 38.9963 123.331 39.2354 123.276 39.5098Z" fill="#263238"/>
<path d="M74.5742 52.7593C72.8145 52.7594 71.0769 53.1525 69.4886 53.9101C67.9002 54.6676 66.5012 55.7704 65.3936 57.1379H43.4181C42.5934 57.1171 41.7729 57.2616 41.005 57.5629C40.2371 57.8641 39.5372 58.316 38.9466 58.8919C38.356 59.4678 37.8866 60.1561 37.5661 60.9162C37.2457 61.6763 37.0806 62.4929 37.0806 63.3178C37.0806 64.1427 37.2457 64.9593 37.5661 65.7194C37.8866 66.4795 38.356 67.1678 38.9466 67.7437C39.5372 68.3196 40.2371 68.7715 41.005 69.0727C41.7729 69.374 42.5934 69.5184 43.4181 69.4977H63.8021C64.6679 71.3987 66.0201 73.0376 67.7221 74.2487L74.3037 79.3447C74.3268 79.3642 74.3559 79.3753 74.3861 79.3761C74.4156 79.3753 74.4443 79.3658 74.4684 79.3486L81.6969 74.088C83.178 72.9913 84.3771 71.5581 85.195 69.9066C86.0129 68.255 86.4263 66.4326 86.4009 64.5898C86.3967 61.4541 85.1495 58.448 82.9326 56.2303C80.7157 54.0127 77.7099 52.7645 74.5742 52.7593Z" fill="#263238"/>
<path d="M42.7907 68.3139H71.2891V56.2285H42.7907C41.1879 56.2296 39.651 56.8667 38.5177 58.0001C37.3843 59.1335 36.7471 60.6703 36.7461 62.2732C36.7471 63.8756 37.3844 65.4121 38.5179 66.5448C39.6514 67.6776 41.1883 68.3139 42.7907 68.3139Z" fill="white" stroke="#263238" stroke-linecap="round" stroke-linejoin="round"/>
<path d="M42.1479 60.4973H57.4281" stroke="#263238" stroke-linejoin="round"/>
<path d="M42.1479 62.426H57.4281" stroke="#263238" stroke-linejoin="round"/>
<path d="M42.1479 64.3546H57.4281" stroke="#263238" stroke-linejoin="round"/>
<path d="M80.9871 72.9355L73.7625 78.1883L67.1809 73.0923C65.5443 71.9308 64.2341 70.3679 63.3762 68.5537C62.5182 66.7395 62.1415 64.735 62.2822 62.7332C62.4229 60.7313 63.0762 58.7993 64.1794 57.1229C65.2826 55.4465 66.7985 54.0821 68.5814 53.1609C70.3644 52.2398 72.3543 51.7928 74.3599 51.863C76.3655 51.9332 78.3193 52.5182 80.0334 53.5618C81.7476 54.6053 83.1644 56.0724 84.1477 57.8218C85.131 59.5712 85.6476 61.5442 85.648 63.551C85.673 65.3731 85.2632 67.1749 84.4527 68.807C83.6421 70.4391 82.454 71.8544 80.9871 72.9355Z" fill="white" stroke="#263238" stroke-linecap="round" stroke-linejoin="round"/>
<path d="M75.5798 73.7091C81.1906 72.8063 85.0073 67.526 84.1046 61.9152C83.2019 56.3043 77.9216 52.4876 72.3107 53.3904C66.6999 54.2931 62.8832 59.5734 63.7859 65.1843C64.6886 70.7951 69.9689 74.6118 75.5798 73.7091Z" fill="#F35D74" stroke="#263238" stroke-linejoin="round"/>
<path d="M82.8843 68.647C83.6251 64.4566 79.5091 62.7396 79.0975 60.6071C79.0975 60.6071 80.1285 60.3994 80.4735 58.6079C80.8184 56.8165 80.0579 54.4057 76.4084 53.6491C72.7589 52.8926 68.4861 56.0011 67.7844 58.8157C67.0827 61.6302 69.0937 62.9474 68.0588 63.9822C67.8812 64.1392 67.6785 64.2651 67.4591 64.3546C66.9416 64.6682 66.2125 65.1151 65.7225 65.3856C64.8993 65.8403 64.4407 70.3248 68.7409 70.8736C73.0411 71.4224 74.0447 70.0504 76.4241 69.776C77.9215 69.6035 80.399 69.7564 82.0297 69.8936" fill="#263238"/>
<path d="M82.8843 68.647C83.6251 64.4566 79.5091 62.7396 79.0975 60.6071C79.0975 60.6071 80.1285 60.3994 80.4735 58.6079C80.8184 56.8165 80.0579 54.4057 76.4084 53.6491C72.7589 52.8926 68.4861 56.0011 67.7844 58.8157C67.0827 61.6302 69.0937 62.9474 68.0588 63.9822C67.8812 64.1392 67.6785 64.2651 67.4591 64.3546C66.9416 64.6682 66.2125 65.1151 65.7225 65.3856C64.8993 65.8403 64.4407 70.3248 68.7409 70.8736C73.0411 71.4224 74.0447 70.0504 76.4241 69.776C77.9215 69.6035 80.399 69.7564 82.0297 69.8936" stroke="#263238" stroke-linecap="round" stroke-linejoin="round"/>
<path d="M81.779 67.6318C80.3365 67.6318 78.545 68.6627 77.9257 68.6627C77.3063 68.6627 77.2357 66.0481 77.2357 66.0481L73.9978 65.3582C73.9978 65.3582 74.3428 67.9062 74.2056 68.941C74.0684 69.9759 71.7242 70.117 70.7599 70.2464C69.7956 70.3758 69.2468 71.0069 68.9724 72.4534C68.9701 72.4834 68.9701 72.5135 68.9724 72.5435C70.2104 73.2339 71.5789 73.6585 72.9904 73.7901C74.3859 73.5431 75.7932 73.2648 76.9104 72.9786C77.6591 72.7866 78.3882 72.618 79.0781 72.473C80.7008 71.5417 82.0395 70.1867 82.9511 68.553C82.8972 68.2851 82.7496 68.0452 82.5348 67.8764C82.32 67.7075 82.052 67.6208 81.779 67.6318Z" fill="white" stroke="#263238" stroke-linecap="round" stroke-linejoin="round"/>
<path d="M69.188 72.6729C71.3866 73.818 73.9245 74.1313 76.3356 73.5552C78.7466 72.979 80.8688 71.5522 82.3121 69.5369C80.5952 69.7564 80.4384 70.6619 79.4388 70.6619C78.3373 70.6619 77.028 70.5247 75.5188 71.2107C74.0096 71.8967 73.794 72.175 71.6615 72.175C70.8119 72.1727 69.9705 72.342 69.188 72.6729Z" fill="#F35D74" stroke="#263238" stroke-linecap="round" stroke-linejoin="round"/>
<path d="M76.8907 56.8164C76.8907 56.8164 79.3015 58.6784 79.4387 61.2264C79.5759 63.7744 78.7488 65.6325 77.9256 66.5302C77.1024 67.4278 75.9969 67.079 74.8954 66.3224C74.1674 65.7926 73.5373 65.1399 73.0334 64.3938C72.698 64.3597 72.3835 64.2149 72.1396 63.9822C71.8602 63.7532 71.6656 63.4371 71.5869 63.0845C71.5869 63.0845 73.6528 63.0178 74.1349 61.638C74.6171 60.2582 74.2055 59.0234 74.8954 58.059C75.4056 57.4366 76.107 56.9998 76.8907 56.8164Z" fill="white" stroke="#263238" stroke-linecap="round" stroke-linejoin="round"/>
<path d="M76.2714 60.3288C76.2714 60.3288 75.0954 59.78 74.6172 60.8109" stroke="#263238" stroke-linecap="round" stroke-linejoin="round"/>
<path d="M77.6475 59.976C77.6475 59.976 78.4746 59.3567 78.749 60.0427" stroke="#263238" stroke-linecap="round" stroke-linejoin="round"/>
<path d="M77.3061 65.2209C77.1399 65.2582 76.9676 65.2589 76.8011 65.2231C76.6346 65.1872 76.4779 65.1156 76.3418 65.0132" stroke="#263238" stroke-linecap="round" stroke-linejoin="round"/>
<path d="M77.7177 60.5365C77.5675 61.2146 77.4978 61.908 77.51 62.6023C77.5805 63.4295 77.3061 63.6372 76.8906 63.5" stroke="#263238" stroke-linecap="round" stroke-linejoin="round"/>
<path d="M75.5346 62.2379C75.671 62.2379 75.7815 61.9992 75.7815 61.7048C75.7815 61.4103 75.671 61.1716 75.5346 61.1716C75.3982 61.1716 75.2876 61.4103 75.2876 61.7048C75.2876 61.9992 75.3982 62.2379 75.5346 62.2379Z" fill="#263238"/>
<path d="M78.412 61.9516C78.5484 61.9516 78.659 61.7129 78.659 61.4185C78.659 61.1241 78.5484 60.8854 78.412 60.8854C78.2756 60.8854 78.165 61.1241 78.165 61.4185C78.165 61.7129 78.2756 61.9516 78.412 61.9516Z" fill="#263238"/>
<path d="M74.2248 120.513C72.4655 120.513 70.7283 120.906 69.1401 121.662C67.5518 122.419 66.1525 123.521 65.0442 124.887H43.0687C41.4566 124.928 39.9242 125.597 38.7984 126.751C37.6726 127.906 37.0425 129.455 37.0425 131.067C37.0425 132.68 37.6726 134.228 38.7984 135.383C39.9242 136.538 41.4566 137.206 43.0687 137.247H63.4527C64.3199 139.147 65.6718 140.786 67.3727 141.998L73.9543 147.094C73.9793 147.112 74.0096 147.122 74.0406 147.122C74.0691 147.122 74.0969 147.112 74.119 147.094L81.3435 141.845C82.8253 140.748 84.0247 139.314 84.8426 137.662C85.6605 136.01 86.0736 134.187 86.0475 132.343C86.0434 129.208 84.7967 126.203 82.5806 123.985C80.3646 121.767 77.3599 120.519 74.2248 120.513Z" fill="#263238"/>
<path d="M42.5515 136.189H71.0499V124.103H42.5515C40.9494 124.103 39.4129 124.74 38.28 125.873C37.1472 127.005 36.5107 128.542 36.5107 130.144C36.5102 130.938 36.6661 131.724 36.9694 132.457C37.2728 133.19 37.7177 133.857 38.2786 134.418C38.8396 134.979 39.5057 135.425 40.2389 135.728C40.972 136.032 41.7579 136.189 42.5515 136.189Z" fill="white" stroke="#263238" stroke-linecap="round" stroke-linejoin="round"/>
<path d="M41.9087 128.372H57.1888" stroke="#263238" stroke-linejoin="round"/>
<path d="M41.9087 130.301H57.1888" stroke="#263238" stroke-linejoin="round"/>
<path d="M41.9087 132.226H57.1888" stroke="#263238" stroke-linejoin="round"/>
<path d="M80.7517 140.81L73.5272 146.063L66.9455 140.967C65.3089 139.806 63.9987 138.243 63.1408 136.429C62.2829 134.614 61.9062 132.61 62.0468 130.608C62.1875 128.606 62.8409 126.674 63.944 124.998C65.0472 123.321 66.5632 121.957 68.3461 121.036C70.129 120.115 72.1189 119.668 74.1245 119.738C76.1301 119.808 78.0839 120.393 79.7981 121.437C81.5122 122.48 82.929 123.947 83.9123 125.697C84.8956 127.446 85.4123 129.419 85.4126 131.426C85.437 133.248 85.027 135.049 84.2164 136.681C83.4059 138.313 82.2182 139.729 80.7517 140.81Z" fill="white" stroke="#263238" stroke-linecap="round" stroke-linejoin="round"/>
<path d="M63.4409 131.344C63.4409 133.379 64.0444 135.368 65.1751 137.06C66.3058 138.753 67.9129 140.072 69.7931 140.85C71.6734 141.629 73.7424 141.833 75.7384 141.436C77.7345 141.039 79.568 140.059 81.0071 138.62C82.4461 137.181 83.4262 135.347 83.8232 133.351C84.2203 131.355 84.0165 129.286 83.2377 127.406C82.4588 125.526 81.1399 123.918 79.4478 122.788C77.7556 121.657 75.7661 121.054 73.7309 121.054C72.3789 121.051 71.0397 121.315 69.7901 121.832C68.5405 122.348 67.4051 123.106 66.449 124.062C65.493 125.018 64.7352 126.153 64.219 127.403C63.7027 128.652 63.4384 129.992 63.4409 131.344Z" fill="#F35D74" stroke="#263238" stroke-linejoin="round"/>
<path d="M65.8047 137.91C66.7335 139.029 67.889 139.94 69.1952 140.581C70.5013 141.222 71.9285 141.578 73.3825 141.628C74.8366 141.677 76.2846 141.417 77.6311 140.866C78.9777 140.315 80.1922 139.485 81.1946 138.431L76.2397 137.326L69.3836 136.984L65.8047 137.91Z" fill="#F35D74" stroke="#263238" stroke-linecap="round" stroke-linejoin="round"/>
<path d="M70.7871 134.487C71.234 132.845 70.7127 130.305 70.7127 130.305C71.8338 129.188 75.1932 134.617 75.1932 134.617C75.1932 134.617 75.1188 135.589 76.2399 137.306C76.3028 137.406 76.3708 137.503 76.4437 137.596C75.7499 138.709 74.2799 140.814 73.1783 140.595C72.0768 140.375 70.3559 138.243 69.3838 136.965C70.403 136.342 70.4461 135.742 70.7871 134.487Z" fill="white" stroke="#263238" stroke-linecap="round" stroke-linejoin="round"/>
<path d="M69.6309 128.145C69.6309 128.145 69.1095 128.066 69.0351 129.039C68.9606 130.011 69.4075 130.536 69.7759 130.536H70.3718C70.4672 131.116 70.5981 131.689 70.7638 132.253C71.0617 133.374 71.0617 133.974 73.4529 134.942C75.8441 135.91 76.4399 135.765 77.1142 134.719C77.7884 133.672 77.7845 129.866 77.859 128.223C77.9335 126.581 78.2314 124.695 78.2314 124.695C77.7379 124.194 77.1558 123.789 76.5144 123.5C75.3933 122.978 71.9594 123.574 70.9127 124.099C69.8661 124.625 70.2424 127.31 70.2424 127.31L69.6309 128.145Z" fill="white" stroke="#263238" stroke-linecap="round" stroke-linejoin="round"/>
<path d="M76.7378 133.17C76.0423 133.353 75.3066 133.311 74.6367 133.049" stroke="#263238" stroke-linecap="round" stroke-linejoin="round"/>
<path d="M76.7261 129.113C76.7261 129.36 76.828 129.564 76.9495 129.564C77.071 129.564 77.1769 129.36 77.1769 129.113C77.1769 128.866 77.075 128.666 76.9495 128.666C76.8241 128.666 76.7261 128.866 76.7261 129.113Z" fill="#263238"/>
<path d="M74.562 129.411C74.562 129.662 74.66 129.862 74.7854 129.862C74.9109 129.862 75.0089 129.662 75.0089 129.411C75.0089 129.16 74.9109 128.964 74.7854 128.964C74.66 128.964 74.562 129.164 74.562 129.411Z" fill="#263238"/>
<path d="M77.4003 127.694C77.2858 127.602 77.1465 127.545 77 127.532C76.8535 127.519 76.7064 127.549 76.5771 127.62" stroke="#263238" stroke-linecap="round" stroke-linejoin="round"/>
<path d="M74.9347 127.843C74.9347 127.843 74.037 127.471 73.3667 128.517" stroke="#263238" stroke-linecap="round" stroke-linejoin="round"/>
<path d="M76.1461 128.725L76.4283 131.728L75.0093 131.877" stroke="#263238" stroke-linecap="round" stroke-linejoin="round"/>
<path d="M68.1373 122.916C68.2118 121.72 70.0973 122.167 71.2733 121.72C72.4493 121.273 74.5583 119.929 76.3497 119.929C76.8183 119.893 77.2845 120.023 77.667 120.296C78.0495 120.569 78.3241 120.967 78.443 121.422L78.3646 120.227C78.3646 120.227 79.5602 120.901 79.4857 122.167C79.4113 123.433 78.5175 124.931 77.9177 124.856C77.318 124.782 72.2416 124.558 71.9437 125.307C71.6457 126.056 72.7669 127.471 72.7669 127.471C72.6924 128.219 71.5909 128.067 71.4968 128.368C71.4545 129.09 71.4794 129.815 71.5713 130.532C71.5771 130.953 71.4701 131.367 71.2616 131.732C71.247 132.104 71.3559 132.47 71.5713 132.774C71.7499 132.971 71.9695 133.127 72.2147 133.23C72.4598 133.333 72.7246 133.381 72.9903 133.37C72.9903 133.37 74.7073 131.802 75.9773 132.026C77.2474 132.249 77.5453 132.849 77.5453 132.849H77.5806C77.5453 133.115 77.5061 133.362 77.463 133.598C77.2513 133.268 76.632 132.465 75.6794 132.465C74.5034 132.465 73.2137 133.884 73.2137 133.884C73.2137 133.884 74.4838 134.703 75.1541 134.703C75.8245 134.703 75.6794 133.884 76.1263 133.958C76.5732 134.033 76.4242 134.48 76.6477 134.48C76.9276 134.429 77.1797 134.279 77.3572 134.056C77.3007 134.283 77.2136 134.5 77.0985 134.703C76.4242 135.75 75.8284 135.879 73.4372 134.927C71.046 133.974 71.046 133.359 70.7481 132.237L70.6657 131.92C70.7365 131.387 70.8559 130.863 71.0225 130.352C71.0421 129.446 70.9245 128.572 70.6736 128.27C70.2816 127.82 69.6269 128.121 69.6269 128.121C69.6269 128.121 68.0629 124.111 68.1373 122.916Z" fill="#263238" stroke="#263238" stroke-linecap="round" stroke-linejoin="round"/>
</svg>
