
<svg width="196" height="196" viewBox="0 0 196 196" fill="none" xmlns="http://www.w3.org/2000/svg">
<path d="M17.7574 144.299C18.7492 144.73 21.1678 144.691 21.1678 144.691C21.1678 144.691 20.6504 143.123 20.6033 143.013C20.0702 141.9 18.3925 140.069 17.0283 140.269C16.8042 140.307 16.5904 140.39 16.4005 140.515C16.2106 140.639 16.0488 140.802 15.9255 140.993C15.8023 141.184 15.7202 141.398 15.6847 141.623C15.6491 141.847 15.6608 142.076 15.719 142.296C15.9464 143.229 16.9185 143.931 17.7574 144.299Z" fill="#F35D74"/>
<path d="M18.5925 151.312C19.6196 151.461 21.7795 150.834 21.948 150.783C22.3041 152.018 22.7415 153.228 23.2573 154.405C23.5552 155.095 23.8767 155.777 24.206 156.459C24.01 156.169 23.814 155.914 23.814 155.879C23.03 154.95 20.9053 153.625 19.6392 154.162C19.4308 154.257 19.2448 154.395 19.0932 154.566C18.9417 154.738 18.828 154.94 18.7596 155.158C18.6912 155.377 18.6696 155.607 18.6962 155.835C18.7228 156.062 18.797 156.282 18.914 156.479C19.3844 157.333 20.5055 157.753 21.4149 157.886C22.3244 158.019 24.1903 157.525 24.6764 157.384C24.8057 157.647 24.9312 157.905 25.0684 158.168C25.6916 159.415 26.3188 160.653 26.899 161.888C27.1068 162.323 27.291 162.758 27.4792 163.194C27.3028 162.939 27.1538 162.723 27.1264 162.692C26.3424 161.763 24.2177 160.438 22.9516 160.979C22.7432 161.074 22.5572 161.212 22.4056 161.383C22.2541 161.555 22.1404 161.757 22.072 161.975C22.0036 162.194 21.982 162.424 22.0086 162.652C22.0352 162.879 22.1094 163.099 22.2264 163.295C22.6968 164.146 23.8179 164.569 24.7273 164.699C25.6368 164.828 27.3224 164.385 27.9025 164.225C28.0789 164.675 28.2592 165.126 28.4121 165.573C28.5101 165.879 28.6238 166.169 28.7022 166.482L28.9609 167.4C29.102 167.988 29.251 168.595 29.3529 169.172C29.4431 169.564 29.5215 169.956 29.5999 170.348C29.4 169.912 28.9923 169.07 28.9531 169.003C28.2984 167.96 26.4208 166.333 25.084 166.671C24.8638 166.734 24.6592 166.842 24.4836 166.989C24.308 167.137 24.1653 167.319 24.0648 167.525C23.9642 167.731 23.9081 167.956 23.9 168.184C23.8919 168.413 23.932 168.642 24.0178 168.854C24.3549 169.767 25.3976 170.351 26.2757 170.622C27.244 170.916 29.3882 170.645 29.6548 170.622C29.7841 171.265 29.9017 171.888 30.0036 172.476C30.2349 173.781 30.3956 174.95 30.5368 175.937H31.4423C31.2855 174.914 31.0777 173.695 30.8072 172.327C30.6779 171.676 30.5289 170.983 30.3682 170.273C31.0164 170.002 31.6474 169.692 32.2576 169.344C32.9632 170.108 34.7704 171.002 35.0016 171.116C34.7586 171.723 34.5116 172.292 34.2725 172.856C33.7708 174.005 33.2964 175.028 32.877 175.894H33.857C34.2137 175.11 34.6096 174.185 35.033 173.174C35.2839 172.562 35.5426 171.9 35.817 171.214C36.0757 171.269 38.1964 171.696 39.1843 171.477C40.078 171.273 41.1443 170.763 41.5676 169.877C41.6691 169.672 41.7261 169.448 41.7351 169.219C41.7441 168.991 41.7047 168.763 41.6196 168.551C41.5346 168.338 41.4056 168.146 41.2413 167.987C41.077 167.828 40.881 167.705 40.666 167.627C39.3607 167.188 37.3654 168.67 36.6363 169.662C36.5932 169.716 36.1972 170.402 35.9542 170.838C36.0561 170.559 36.162 170.289 36.2639 170.003C36.4716 169.434 36.6559 168.862 36.8715 168.243C36.9616 167.945 37.0518 167.639 37.1459 167.333C37.24 167.027 37.3066 166.698 37.3889 166.377C37.5692 165.632 37.7104 164.867 37.8397 164.095C38.3376 164.275 40.1172 164.879 41.0345 164.828C41.9518 164.777 43.1043 164.436 43.6335 163.613C43.7628 163.426 43.8515 163.214 43.8939 162.99C43.9364 162.767 43.9316 162.537 43.8799 162.315C43.8282 162.094 43.7308 161.886 43.5938 161.704C43.4569 161.523 43.2834 161.372 43.0847 161.261C41.8616 160.63 39.6664 161.794 38.7923 162.66C38.7374 162.715 38.1847 163.409 37.8868 163.793C37.9573 163.331 38.0357 162.864 38.0945 162.394C38.2631 161.026 38.3924 159.65 38.5257 158.254C38.5688 157.831 38.612 157.408 38.659 156.984C38.8354 157.051 40.9326 157.831 41.9636 157.768C42.8808 157.702 44.0294 157.376 44.5586 156.553C44.6887 156.366 44.7781 156.154 44.8212 155.931C44.8642 155.708 44.8599 155.478 44.8086 155.256C44.7572 155.034 44.66 154.826 44.523 154.644C44.3861 154.463 44.2126 154.312 44.0137 154.201C42.7868 153.566 40.5916 154.73 39.7017 155.601C39.6351 155.667 38.8354 156.663 38.6472 156.929C38.7452 155.996 38.8511 155.071 38.9922 154.162C39.1743 152.934 39.4362 151.718 39.7762 150.524C39.8585 150.555 42.042 151.379 43.1004 151.308C44.0176 151.245 45.1662 150.916 45.6954 150.093C45.8255 149.906 45.9149 149.694 45.958 149.471C46.001 149.247 45.9967 149.018 45.9454 148.796C45.894 148.574 45.7968 148.366 45.6598 148.184C45.5229 148.002 45.3494 147.851 45.1505 147.741C43.9236 147.11 41.7284 148.274 40.8385 149.14C40.768 149.207 39.9095 150.281 39.7684 150.489C39.7684 150.418 39.8036 150.348 39.8232 150.277C40.2018 149.09 40.6846 147.938 41.2658 146.835C41.5794 146.22 41.9126 145.659 42.2497 145.107C42.6417 145.303 44.4371 146.173 45.3857 146.212C46.3344 146.251 47.4829 146.04 48.1023 145.291C48.2536 145.119 48.3669 144.917 48.4349 144.698C48.503 144.48 48.5242 144.249 48.4972 144.022C48.4702 143.794 48.3956 143.575 48.2783 143.378C48.1609 143.182 48.0034 143.012 47.8161 142.88C46.6676 142.116 44.3587 143.033 43.3944 143.801C43.3434 143.841 42.8573 144.327 42.5124 144.683C42.6652 144.436 42.822 144.182 42.9749 143.95C43.5512 143.084 44.1509 142.323 44.6566 141.657C44.9545 141.265 45.2328 140.944 45.4955 140.63C45.9776 140.63 47.9298 140.563 48.7804 140.164C49.6311 139.764 50.564 139.046 50.764 138.094C50.8189 137.872 50.8264 137.64 50.786 137.415C50.7456 137.19 50.6582 136.975 50.5295 136.786C50.4008 136.597 50.2337 136.437 50.0391 136.316C49.8445 136.196 49.6266 136.117 49.3998 136.087C48.0317 135.938 46.4049 137.815 45.9032 138.941C45.86 139.039 45.3583 140.634 45.3818 140.634H45.472C45.2132 140.928 44.9388 141.245 44.6448 141.598C44.1078 142.257 43.508 143.006 42.9122 143.864C42.258 144.784 41.6573 145.741 41.1129 146.73C40.5002 147.833 39.9873 148.989 39.5802 150.183V150.226C39.5802 149.834 39.5802 148.693 39.5567 148.607C39.3999 147.388 38.3807 145.122 37.0204 144.871C36.7943 144.836 36.5632 144.849 36.3422 144.908C36.1212 144.968 35.9153 145.074 35.7378 145.218C35.5603 145.363 35.4152 145.543 35.312 145.747C35.2088 145.952 35.1498 146.176 35.1388 146.404C35.0604 147.376 35.766 148.345 36.4481 148.956C37.2321 149.65 39.3685 150.316 39.5371 150.371C39.1544 151.597 38.852 152.846 38.6316 154.111C38.5022 154.848 38.3924 155.597 38.2905 156.345C38.2905 155.996 38.2905 155.683 38.2905 155.64C38.1298 154.421 37.1145 152.155 35.7543 151.904C35.5279 151.869 35.2967 151.882 35.0757 151.942C34.8547 152.003 34.6489 152.109 34.4714 152.253C34.294 152.398 34.1491 152.579 34.0459 152.783C33.9428 152.988 33.8837 153.212 33.8727 153.441C33.7943 154.409 34.496 155.381 35.182 155.993C35.868 156.604 37.632 157.192 38.1298 157.353C38.0945 157.643 38.0553 157.929 38.02 158.219C37.8554 159.599 37.6986 160.983 37.4987 162.331C37.432 162.805 37.3458 163.272 37.2596 163.738C37.2596 163.429 37.2596 163.166 37.2596 163.127C37.1028 161.908 36.0836 159.642 34.7233 159.391C34.4974 159.356 34.2665 159.368 34.0457 159.428C33.8249 159.488 33.6192 159.593 33.442 159.738C33.2648 159.883 33.1201 160.063 33.0174 160.267C32.9146 160.472 32.8561 160.695 32.8456 160.924C32.7633 161.896 33.4689 162.884 34.151 163.476C34.8331 164.068 36.503 164.652 37.0636 164.832C36.9616 165.306 36.8636 165.781 36.7421 166.239C36.6559 166.545 36.5932 166.851 36.4873 167.157C36.3815 167.462 36.2913 167.764 36.1933 168.062C35.9856 168.631 35.7778 169.219 35.5622 169.771C35.4132 170.163 35.2643 170.516 35.1192 170.881C35.1937 170.41 35.3192 169.481 35.3231 169.403C35.3055 168.32 35.0128 167.26 34.4724 166.322C34.4763 166.201 34.4685 166.08 34.4489 165.961C34.4204 165.734 34.3444 165.516 34.226 165.32C34.1076 165.125 33.9493 164.956 33.7615 164.826C33.5737 164.695 33.3606 164.606 33.1359 164.563C32.9113 164.52 32.6802 164.525 32.4576 164.577C31.1248 164.934 30.278 167.27 30.2153 168.497C30.2153 168.572 30.2624 169.364 30.2976 169.861C30.231 169.571 30.1683 169.289 30.0977 168.991C29.9566 168.403 29.7998 167.815 29.6352 167.192C29.545 166.89 29.4509 166.588 29.3608 166.279C29.2706 165.969 29.1452 165.663 29.0393 165.35C28.7728 164.628 28.4709 163.911 28.1534 163.197C28.6669 163.072 30.5054 162.609 31.2228 162.045C31.9401 161.481 32.7241 160.571 32.7202 159.599C32.7258 159.37 32.6834 159.143 32.5957 158.932C32.508 158.721 32.377 158.53 32.2111 158.373C32.0453 158.216 31.8482 158.095 31.6327 158.018C31.4172 157.942 31.1881 157.911 30.9601 157.929C29.5881 158.078 28.4004 160.261 28.1495 161.457C28.1495 161.531 28.0554 162.417 28.0201 162.903C27.8241 162.476 27.6281 162.045 27.4164 161.618C26.8049 160.387 26.1464 159.156 25.4956 157.929C25.2957 157.537 25.1036 157.176 24.9076 156.796C25.0919 156.757 27.2596 156.251 28.0907 155.62C28.8198 155.06 29.592 154.146 29.5842 153.174C29.5904 152.945 29.5484 152.718 29.461 152.506C29.3735 152.295 29.2425 152.104 29.0765 151.947C28.9105 151.789 28.7132 151.668 28.4974 151.592C28.2816 151.516 28.0522 151.486 27.8241 151.504C26.456 151.653 25.2644 153.837 25.0174 155.032C24.9978 155.122 24.8841 156.396 24.8724 156.722C24.4372 155.891 24.0178 155.06 23.6336 154.221C23.1096 153.094 22.6605 151.934 22.2891 150.748C22.3753 150.728 24.6411 150.211 25.4917 149.572C26.2208 149.011 26.9931 148.098 26.9892 147.125C26.9954 146.896 26.9534 146.668 26.8657 146.457C26.7779 146.245 26.6466 146.054 26.4801 145.897C26.3137 145.739 26.1159 145.618 25.8997 145.542C25.6834 145.466 25.4536 145.437 25.2252 145.456C23.8571 145.605 22.6693 147.784 22.4184 148.984C22.4184 149.078 22.2773 150.446 22.2734 150.697C22.2499 150.63 22.2224 150.559 22.2028 150.489C21.8611 149.29 21.6275 148.064 21.5051 146.824C21.4267 146.138 21.3914 145.479 21.3718 144.84C21.8069 144.785 23.7865 144.523 24.6058 144.025C25.4251 143.527 26.264 142.727 26.362 141.759C26.3935 141.532 26.3768 141.301 26.313 141.081C26.2492 140.861 26.1398 140.657 25.9919 140.482C25.844 140.307 25.6608 140.165 25.4544 140.066C25.248 139.966 25.023 139.911 24.794 139.905C23.418 139.905 21.9951 141.939 21.6188 143.111C21.5952 143.174 21.458 143.844 21.364 144.334C21.364 144.044 21.364 143.746 21.364 143.468C21.364 142.425 21.4306 141.473 21.4972 140.63C21.5364 140.148 21.5835 139.717 21.6305 139.309C22.0225 139.035 23.6219 137.913 24.1158 137.106C24.6097 136.298 24.9821 135.189 24.6254 134.287C24.5477 134.068 24.424 133.868 24.2627 133.701C24.1014 133.534 23.9062 133.403 23.6901 133.317C23.4741 133.231 23.2422 133.193 23.01 133.204C22.7779 133.215 22.5508 133.276 22.344 133.382C21.117 134.017 20.776 136.479 20.9994 137.694C20.9994 137.8 21.4776 139.407 21.5012 139.395L21.5247 139.376C21.4698 139.768 21.4188 140.183 21.3679 140.638C21.2856 141.485 21.1954 142.441 21.1719 143.484C21.1325 144.611 21.16 145.739 21.2542 146.863C21.3509 148.121 21.5595 149.369 21.8775 150.591C21.8775 150.591 21.8775 150.622 21.8775 150.634C21.6619 150.297 21.0229 149.364 20.9641 149.297C20.1801 148.368 18.0594 147.043 16.7893 147.58C16.5813 147.676 16.3957 147.814 16.2445 147.986C16.0934 148.157 15.9801 148.359 15.9121 148.578C15.8441 148.796 15.8228 149.027 15.8497 149.254C15.8765 149.481 15.9509 149.7 16.068 149.897C16.562 150.748 17.6831 151.171 18.5925 151.312Z" fill="#F35D74"/>
<path d="M42.2224 144.828C42.242 144.828 42.6614 143.221 42.6771 143.119C42.8456 141.9 42.4576 139.446 41.2149 138.846C41.0067 138.752 40.7808 138.703 40.5521 138.702C40.3234 138.701 40.0971 138.748 39.888 138.84C39.6789 138.933 39.4917 139.069 39.3387 139.238C39.1857 139.408 39.0703 139.609 39.0001 139.826C38.6669 140.74 39.0864 141.865 39.5881 142.633C40.1722 143.539 42.2184 144.828 42.2224 144.828Z" fill="#F35D74"/>
<path d="M47.9334 155.848C48.5606 156.122 50.0973 156.087 50.0973 156.087C50.0973 156.087 49.768 155.079 49.7406 155.02C49.4034 154.315 48.3372 153.151 47.4709 153.268C47.3284 153.293 47.1927 153.347 47.0724 153.428C46.9521 153.508 46.85 153.613 46.7725 153.735C46.695 153.857 46.6439 153.994 46.6224 154.137C46.6009 154.28 46.6095 154.426 46.6477 154.566C46.7849 155.165 47.4003 155.624 47.9334 155.848Z" fill="#F35D74"/>
<path d="M48.4628 160.293C49.1135 160.387 50.4855 159.991 50.5953 159.96C50.82 160.743 51.0976 161.511 51.4263 162.257C51.6145 162.692 51.8183 163.127 52.0261 163.558C51.9006 163.374 51.7869 163.213 51.7713 163.194C51.2577 162.602 49.9249 161.759 49.1213 162.104C48.9889 162.164 48.8706 162.251 48.7742 162.36C48.6779 162.469 48.6057 162.597 48.5623 162.736C48.519 162.875 48.5056 163.021 48.5229 163.166C48.5402 163.31 48.5878 163.449 48.6627 163.574C48.9567 164.115 49.6701 164.381 50.2307 164.464C50.7913 164.546 51.9908 164.236 52.3005 164.146L52.5474 164.644C52.9394 165.428 53.3314 166.212 53.7234 166.996C53.8528 167.27 53.9704 167.549 54.088 167.823C53.9782 167.662 53.8841 167.525 53.8645 167.506C53.3549 166.918 52.0221 166.075 51.2146 166.416C51.0826 166.476 50.9647 166.564 50.8687 166.673C50.7727 166.782 50.7008 166.91 50.6575 167.049C50.6142 167.187 50.6007 167.333 50.6176 167.478C50.6346 167.622 50.6817 167.761 50.756 167.886C51.0539 168.427 51.7673 168.697 52.324 168.78C53.0072 168.784 53.687 168.682 54.3389 168.478C54.4525 168.764 54.5662 169.05 54.6603 169.332C54.723 169.528 54.7975 169.724 54.8485 169.912C54.8994 170.101 54.9543 170.304 55.0092 170.493C55.0993 170.865 55.1934 171.253 55.2718 171.618C55.3306 171.872 55.3777 172.115 55.4286 172.362C55.3032 172.084 55.0366 171.551 55.017 171.508C54.6015 170.845 53.4098 169.814 52.5631 170.03C52.4232 170.07 52.2932 170.138 52.1815 170.231C52.0699 170.324 51.9791 170.44 51.9151 170.571C51.8511 170.701 51.8154 170.844 51.8102 170.989C51.805 171.134 51.8305 171.279 51.8849 171.414C52.1005 171.994 52.763 172.366 53.3197 172.535C53.8763 172.703 55.2797 172.535 55.4639 172.535C55.5462 172.927 55.6207 173.339 55.6834 173.711C55.8324 174.538 55.9421 175.279 56.0245 175.906H56.5968C56.4988 175.255 56.3655 174.483 56.2048 173.613C56.1264 173.221 56.0284 172.762 55.9265 172.311C56.3376 172.15 56.7382 171.963 57.126 171.751C57.6555 172.204 58.2452 172.581 58.8782 172.872C58.7214 173.264 58.5685 173.629 58.4157 173.977C58.0981 174.707 57.7963 175.353 57.5297 175.906H58.1491C58.3804 175.397 58.6313 174.82 58.8939 174.177C59.0507 173.785 59.2153 173.37 59.38 172.939C59.5446 172.974 60.8892 173.248 61.5164 173.107C62.0848 172.978 62.7747 172.656 63.0295 172.092C63.094 171.962 63.1302 171.819 63.136 171.674C63.1417 171.529 63.1168 171.384 63.0628 171.249C63.0088 171.114 62.9269 170.992 62.8226 170.89C62.7182 170.789 62.5937 170.711 62.4572 170.661C61.6301 170.383 60.3639 171.324 59.9013 171.955C59.8739 171.99 59.623 172.425 59.4662 172.703L59.6661 172.174C59.7994 171.814 59.917 171.449 60.0581 171.057C60.1169 170.865 60.1718 170.665 60.2306 170.481C60.2894 170.297 60.3365 170.089 60.3874 169.873C60.5011 169.399 60.5913 168.913 60.6736 168.423C61.3204 168.684 62.0043 168.841 62.7002 168.889C63.2843 168.85 64.0134 168.635 64.3505 168.105C64.434 167.987 64.4915 167.852 64.5191 167.709C64.5468 167.567 64.5441 167.42 64.5112 167.279C64.4782 167.137 64.4158 167.004 64.328 166.889C64.2402 166.773 64.129 166.678 64.0017 166.608C63.2177 166.216 61.83 166.945 61.2773 167.494C61.242 167.529 60.8853 167.968 60.701 168.215C60.7481 167.921 60.7951 167.623 60.8343 167.325C60.9401 166.459 61.0225 165.577 61.1087 164.699L61.191 163.891C61.3047 163.934 62.6336 164.428 63.2882 164.385C63.8723 164.342 64.6014 164.13 64.9385 163.601C65.0221 163.482 65.0796 163.347 65.1073 163.204C65.135 163.061 65.1323 162.914 65.0994 162.773C65.0665 162.631 65.0041 162.498 64.9162 162.382C64.8284 162.266 64.7171 162.17 64.5897 162.1C63.8057 161.708 62.418 162.437 61.8653 162.99C61.8261 163.029 61.3165 163.664 61.1949 163.833C61.2577 163.241 61.3282 162.657 61.4184 162.076C61.5344 161.296 61.7021 160.525 61.9201 159.767C61.975 159.787 63.3588 160.308 64.0291 160.261C64.6132 160.222 65.3423 160.007 65.6794 159.477C65.7629 159.359 65.8203 159.224 65.848 159.081C65.8757 158.939 65.873 158.792 65.84 158.651C65.8071 158.509 65.7447 158.376 65.6569 158.261C65.5691 158.145 65.4579 158.05 65.3305 157.98C64.5465 157.588 63.1628 158.317 62.6061 158.866C62.563 158.909 62.0181 159.591 61.928 159.724C61.928 159.681 61.9515 159.634 61.9633 159.591C62.2024 158.836 62.5094 158.104 62.8805 157.404C63.0765 157.012 63.2725 156.655 63.5038 156.306C63.7508 156.432 64.8915 156.984 65.503 157.008C66.1145 157.031 66.8319 156.902 67.2239 156.424C67.3198 156.315 67.3916 156.187 67.4348 156.048C67.478 155.909 67.4915 155.763 67.4745 155.619C67.4575 155.475 67.4103 155.336 67.3361 155.211C67.2619 155.086 67.1622 154.979 67.0436 154.895C66.3145 154.409 64.8484 154.993 64.2369 155.479C64.2055 155.506 63.8958 155.812 63.6763 156.04C63.7743 155.883 63.8762 155.722 63.9742 155.573C64.3388 155.024 64.7073 154.542 65.0365 154.119C65.2286 153.88 65.405 153.664 65.5697 153.468C65.8793 153.468 67.1141 153.425 67.6551 153.17C68.1961 152.915 68.788 152.461 68.9173 151.857C68.9522 151.716 68.957 151.569 68.9314 151.426C68.9057 151.283 68.8502 151.147 68.7685 151.027C68.6868 150.906 68.5806 150.805 68.457 150.728C68.3334 150.652 68.1951 150.602 68.051 150.583C67.1808 150.489 66.1459 151.681 65.8284 152.394C65.8009 152.457 65.4834 153.468 65.4991 153.468H65.5187C65.3541 153.656 65.1777 153.86 64.9934 154.083C64.6524 154.499 64.2721 154.973 63.8958 155.518C63.4792 156.101 63.0983 156.708 62.7551 157.337C62.3653 158.037 62.0386 158.77 61.779 159.528C61.7795 159.537 61.7795 159.547 61.779 159.556C61.779 159.301 61.779 158.584 61.779 158.529C61.681 157.745 61.0303 156.318 60.1718 156.157C60.0295 156.138 59.8847 156.149 59.7467 156.188C59.6086 156.228 59.4803 156.296 59.3698 156.387C59.2593 156.479 59.169 156.593 59.1046 156.721C59.0403 156.849 59.0032 156.99 58.9958 157.133C58.9488 157.749 59.3878 158.364 59.8269 158.752C60.2659 159.14 61.681 159.615 61.7869 159.646C61.5424 160.424 61.3499 161.218 61.2106 162.021C61.1244 162.492 61.0577 162.966 60.995 163.441C60.995 163.221 60.995 163.021 60.995 162.994C60.8931 162.21 60.2424 160.783 59.3839 160.642C59.2415 160.622 59.0965 160.632 58.9582 160.671C58.8199 160.711 58.6913 160.779 58.5807 160.87C58.47 160.962 58.3797 161.076 58.3156 161.205C58.2514 161.333 58.2147 161.474 58.2079 161.618C58.1569 162.229 58.5999 162.849 59.035 163.237C59.621 163.625 60.2637 163.92 60.9401 164.111L60.8696 164.66C60.7637 165.538 60.6657 166.416 60.5403 167.27C60.4933 167.572 60.4384 167.87 60.3874 168.164C60.3874 167.968 60.3874 167.803 60.3874 167.772C60.2894 166.988 59.6387 165.561 58.7802 165.401C58.6379 165.381 58.4931 165.392 58.3551 165.432C58.217 165.471 58.0887 165.539 57.9782 165.631C57.8677 165.722 57.7774 165.836 57.713 165.964C57.6487 166.093 57.6116 166.233 57.6042 166.377C57.5533 166.992 57.9962 167.607 58.4353 167.996C59.0022 168.376 59.6252 168.666 60.2816 168.854C60.2189 169.156 60.1561 169.458 60.0777 169.748C60.0229 169.944 59.9837 170.14 59.917 170.332L59.623 170.912C59.4937 171.273 59.3604 171.649 59.231 171.998C59.1369 172.241 59.0429 172.472 58.9488 172.703C58.9958 172.402 59.0781 171.814 59.0781 171.763C59.0695 171.074 58.8846 170.399 58.5411 169.803C58.5469 169.726 58.5469 169.648 58.5411 169.571C58.523 169.427 58.4747 169.288 58.3994 169.164C58.3241 169.04 58.2235 168.933 58.104 168.85C57.9846 168.767 57.849 168.71 57.7061 168.683C57.5633 168.656 57.4164 168.66 57.2749 168.693C56.4321 168.921 55.8951 170.402 55.8559 171.183C55.8559 171.23 55.8833 171.731 55.9069 172.049C55.8637 171.865 55.8245 171.684 55.7775 171.496C55.6913 171.104 55.5893 170.751 55.4874 170.351L55.311 169.775C55.2561 169.579 55.1738 169.383 55.1072 169.183C54.9386 168.725 54.7465 168.27 54.5427 167.815C54.872 167.737 56.0284 167.423 56.5027 167.086C56.977 166.749 57.4553 166.149 57.4513 165.518C57.4557 165.373 57.4294 165.228 57.374 165.094C57.3186 164.96 57.2354 164.839 57.1299 164.739C57.0244 164.639 56.899 164.562 56.7618 164.514C56.6247 164.466 56.4789 164.448 56.3341 164.46C55.4639 164.554 54.7073 165.938 54.5505 166.702C54.5505 166.749 54.4917 167.313 54.4682 167.619C54.3428 167.349 54.2213 167.078 54.0762 166.804C53.6842 166.02 53.2687 165.236 52.8532 164.452L52.4808 163.735C52.5984 163.707 53.9821 163.386 54.4996 162.986C55.017 162.586 55.4561 162.049 55.4521 161.418C55.4553 161.273 55.428 161.128 55.372 160.994C55.3159 160.86 55.2324 160.739 55.1267 160.64C55.021 160.54 54.8956 160.463 54.7586 160.415C54.6215 160.367 54.4759 160.348 54.331 160.359C53.4647 160.453 52.7081 161.837 52.5513 162.602C52.5513 162.66 52.4651 163.468 52.4573 163.676C52.1829 163.147 51.9163 162.617 51.6733 162.108C51.341 161.393 51.0555 160.657 50.8187 159.905C50.8736 159.905 52.3201 159.564 52.8532 159.152C53.3157 158.799 53.8057 158.219 53.8018 157.584C53.8062 157.439 53.7798 157.294 53.7244 157.16C53.669 157.026 53.5859 156.904 53.4804 156.805C53.3749 156.705 53.2494 156.628 53.1123 156.58C52.9752 156.532 52.8294 156.513 52.6846 156.526C51.8144 156.62 51.0578 158.003 50.901 158.768C50.901 158.831 50.8109 159.697 50.8069 159.858C50.8069 159.815 50.7756 159.771 50.7638 159.724C50.5466 158.964 50.3984 158.186 50.3209 157.4C50.2738 156.965 50.2503 156.545 50.2385 156.138C50.5129 156.106 51.7713 155.938 52.2926 155.624C52.814 155.31 53.3432 154.797 53.4059 154.181C53.4252 154.038 53.414 153.891 53.3732 153.752C53.3324 153.613 53.2629 153.483 53.1691 153.372C53.0753 153.262 52.9593 153.172 52.8286 153.109C52.6978 153.045 52.5553 153.01 52.4102 153.005C51.5361 153.005 50.6345 154.299 50.3914 155.044C50.3914 155.083 50.2934 155.506 50.2307 155.828C50.2307 155.644 50.2307 155.436 50.2307 155.279C50.2307 154.617 50.2738 154.009 50.3169 153.476C50.3405 153.17 50.3718 152.896 50.4032 152.637C50.6541 152.465 51.6654 151.751 51.9712 151.241C52.2769 150.732 52.52 150.022 52.2965 149.45C52.2477 149.313 52.1705 149.188 52.0702 149.082C51.9698 148.977 51.8484 148.894 51.7139 148.839C51.5794 148.783 51.4347 148.757 51.2893 148.761C51.1439 148.765 51.0009 148.799 50.8697 148.862C50.0857 149.254 49.8897 150.822 50.019 151.606C50.019 151.673 50.3209 152.696 50.3365 152.684C50.3013 152.931 50.266 153.194 50.2346 153.468C50.1837 154.005 50.1288 154.613 50.1131 155.275C50.0861 155.99 50.1031 156.706 50.1641 157.419C50.2248 158.213 50.356 159.001 50.5561 159.771C50.5584 159.78 50.5584 159.79 50.5561 159.799C50.4189 159.583 50.0151 158.991 49.9798 158.948C49.4663 158.356 48.1335 157.517 47.3299 157.858C47.1974 157.918 47.0791 158.006 46.9828 158.115C46.8864 158.224 46.8142 158.352 46.7709 158.491C46.7276 158.629 46.7141 158.776 46.7314 158.92C46.7487 159.065 46.7964 159.204 46.8713 159.328C47.177 159.936 47.8865 160.207 48.4628 160.293Z" fill="#F35D74"/>
<path d="M63.4606 156.185C63.4606 156.185 63.7389 155.161 63.7507 155.095C63.8565 154.311 63.6095 152.766 62.8216 152.386C62.6892 152.327 62.5457 152.296 62.4006 152.296C62.2554 152.295 62.1118 152.325 61.9791 152.384C61.8464 152.443 61.7275 152.529 61.6302 152.637C61.5329 152.744 61.4594 152.871 61.4143 153.009C61.2027 153.59 61.4692 154.299 61.8063 154.789C62.1591 155.365 63.4606 156.185 63.4606 156.185Z" fill="#F35D74"/>
<path d="M173.295 123.131L164.024 156.451L169.034 176.494" stroke="#263238" stroke-width="5" stroke-linecap="round" stroke-linejoin="round"/>
<path d="M164.024 156.451H138.47L133.962 176.494" stroke="#263238" stroke-width="5" stroke-linecap="round" stroke-linejoin="round"/>
<path d="M88.1136 123.131L78.8467 156.451L83.8564 176.494" stroke="#263238" stroke-width="5" stroke-linecap="round" stroke-linejoin="round"/>
<path d="M78.8467 156.451H53.2922L48.7803 176.494" stroke="#263238" stroke-width="5" stroke-linecap="round" stroke-linejoin="round"/>
<path d="M84.1973 125.75H176.956L178.207 121.383H85.4438L84.1973 125.75Z" fill="white" stroke="#263238" stroke-linecap="round" stroke-linejoin="round"/>
<path d="M82.2612 132.512H175.02L176.271 128.149H83.5078L82.2612 132.512Z" fill="white" stroke="#263238" stroke-linecap="round" stroke-linejoin="round"/>
<path d="M80.3247 139.278H173.084L174.334 134.911H81.5713L80.3247 139.278Z" fill="white" stroke="#263238" stroke-linecap="round" stroke-linejoin="round"/>
<path d="M78.3882 146.04H171.147L172.398 141.677H79.6347L78.3882 146.04Z" fill="white" stroke="#263238" stroke-linecap="round" stroke-linejoin="round"/>
<path d="M76.4478 152.806H169.211L170.461 148.443H77.6982L76.4478 152.806Z" fill="white" stroke="#263238" stroke-linecap="round" stroke-linejoin="round"/>
<path d="M82.7314 125.75H175.49L176.741 121.383H83.9819L82.7314 125.75Z" fill="white" stroke="#263238" stroke-linecap="round" stroke-linejoin="round"/>
<path d="M80.7949 132.512H173.554L174.804 128.149H82.0454L80.7949 132.512Z" fill="white" stroke="#263238" stroke-linecap="round" stroke-linejoin="round"/>
<path d="M78.8584 139.278H171.617L172.868 134.911H80.1089L78.8584 139.278Z" fill="white" stroke="#263238" stroke-linecap="round" stroke-linejoin="round"/>
<path d="M76.9219 146.04H169.681L170.931 141.677H78.1724L76.9219 146.04Z" fill="white" stroke="#263238" stroke-linecap="round" stroke-linejoin="round"/>
<path d="M74.9854 152.806H167.744L168.995 148.443H76.2358L74.9854 152.806Z" fill="white" stroke="#263238" stroke-linecap="round" stroke-linejoin="round"/>
<path d="M167.803 154.95H51.2852V157.455H167.803V154.95Z" fill="white" stroke="#263238" stroke-linecap="round" stroke-linejoin="round"/>
<path d="M167.807 154.95H138.274V157.455H167.807V154.95Z" fill="white" stroke="#263238" stroke-linecap="round" stroke-linejoin="round"/>
<path d="M186.356 176.612H190.688" stroke="#263238" stroke-linecap="round" stroke-linejoin="round"/>
<path d="M12.4575 176.612H182.382" stroke="#263238" stroke-linecap="round" stroke-linejoin="round"/>
<path d="M118.945 88.3451L120.591 95.4442C120.591 95.4442 118.431 97.9099 116.479 96.9848C114.527 96.0597 113.802 90.9166 113.802 90.9166L118.945 88.3451Z" fill="white" stroke="#263238" stroke-linecap="round" stroke-linejoin="round"/>
<path d="M113.935 70.7639C115.099 71.7796 115.88 73.1628 116.15 74.6839C116.518 77.1418 122.077 93.543 122.077 93.543C120.051 93.2118 117.975 93.3855 116.032 94.0487C113.084 95.1581 110.043 92.2259 110.043 92.2259L109.89 72.8533" fill="#F35D74"/>
<path d="M113.935 70.7639C115.099 71.7796 115.88 73.1628 116.15 74.6839C116.518 77.1418 122.077 93.543 122.077 93.543C120.051 93.2118 117.975 93.3855 116.032 94.0487C113.084 95.1581 110.043 92.2259 110.043 92.2259L109.89 72.8533" stroke="#263238" stroke-linecap="round" stroke-linejoin="round"/>
<path d="M113.927 86.0244L115.409 78.6156" stroke="#263238" stroke-linecap="round" stroke-linejoin="round"/>
<path d="M78.7922 91.6497H78.8197C80.4269 85.9108 83.6922 76.2597 84.3077 74.19C85.1661 71.3637 86.6401 70.6267 86.6401 70.6267L88.8509 84.3859L87.9925 86.2283C87.9925 86.2283 85.6052 92.8688 83.7941 96.1498L88.749 106.624L90.4699 110.309L88.259 113.504C88.259 113.504 78.1846 97.9021 77.675 96.7966C77.1654 95.6912 78.7922 91.6497 78.7922 91.6497Z" fill="white" stroke="#263238" stroke-linecap="round" stroke-linejoin="round"/>
<path d="M87.275 70.3954C86.0311 70.7688 84.9767 71.6031 84.3272 72.7278C83.0963 74.6878 77.0791 94.4759 77.0791 94.4759C78.3507 95.4221 79.8284 96.0535 81.3911 96.3183C82.6467 96.5477 83.9294 96.59 85.1974 96.4438L88.7607 87.1063" fill="#F35D74"/>
<path d="M87.275 70.3954C86.0311 70.7688 84.9767 71.6031 84.3272 72.7278C83.0963 74.6878 77.0791 94.4759 77.0791 94.4759C78.3507 95.4221 79.8284 96.0535 81.3911 96.3183C82.6467 96.5477 83.9294 96.59 85.1974 96.4438L88.7607 87.1063" stroke="#263238" stroke-linecap="round" stroke-linejoin="round"/>
<path d="M85.0288 80.0974L87.9923 88.4941L83.9155 83.4294" stroke="#263238" stroke-linecap="round" stroke-linejoin="round"/>
<path d="M115.797 173.883C115.797 173.883 115.797 174.385 118.933 177.019C122.069 179.654 122.677 180.391 121.803 181.261C120.928 182.131 116.687 180.512 115.311 179.638C113.935 178.764 114.562 178.764 112.939 178.015C111.317 177.266 112.065 174.648 112.316 174.021C112.567 173.393 115.797 173.883 115.797 173.883Z" fill="white" stroke="#263238" stroke-linecap="round" stroke-linejoin="round"/>
<path d="M85.605 173.319C85.605 173.319 85.605 173.817 82.469 176.455C79.333 179.093 78.7215 179.826 79.5956 180.7C80.4698 181.574 84.7151 179.952 86.0871 179.077C87.4591 178.203 86.8398 178.203 88.4627 177.454C90.0855 176.706 89.3329 174.083 89.0859 173.46C88.839 172.837 85.605 173.319 85.605 173.319Z" fill="white" stroke="#263238" stroke-linecap="round" stroke-linejoin="round"/>
<path d="M87.522 126.592C87.13 122.39 88.012 114.146 88.012 113.151C88.012 112.155 89.8975 108.09 90.4424 106.953L90.4973 105.636C90.4973 105.636 109.917 104.903 112.481 103.99C112.481 103.99 115.479 114.527 115.844 124.421C116.209 134.315 117.863 146.408 117.494 153.37C117.2 158.944 116.942 170.057 116.71 173.789C116.686 174.216 116.523 174.624 116.245 174.949C115.968 175.275 115.592 175.501 115.174 175.592L114.723 175.698C114.453 175.76 114.173 175.764 113.901 175.71C113.629 175.656 113.372 175.547 113.145 175.387C112.918 175.228 112.727 175.023 112.584 174.786C112.442 174.548 112.35 174.284 112.316 174.009C111.414 166.765 108.086 142.445 106.699 137.98C105.052 132.665 101.661 118.282 101.661 118.282C101.661 118.282 93.8724 153.735 92.9591 158.501C92.0457 163.268 89.1096 174.075 89.1096 174.075C88.3438 174.366 87.542 174.55 86.7263 174.624C86.0452 174.594 85.3714 174.471 84.7231 174.26L87.522 126.592Z" fill="#263238" stroke="#263238" stroke-linecap="round" stroke-linejoin="round"/>
<path d="M101.203 67.032C101.203 67.032 105.942 67.9768 109.141 68.9254C112.34 69.874 114.464 70.466 114.464 71.5322C114.464 72.5984 113.045 104.46 113.045 104.46C113.045 104.46 112.928 105.766 110.082 106.118C107.236 106.471 92.1985 106.949 91.2656 106.714C90.3326 106.479 89.9641 105.538 89.8465 104.107C89.7289 102.677 86.0559 72.4808 86.2911 71.0618C86.5263 69.6428 98.1373 67.5064 98.4901 67.3888C99.3449 67.0248 100.283 66.9015 101.203 67.032Z" fill="#F35D74" stroke="#263238" stroke-linecap="round" stroke-linejoin="round"/>
<path d="M99.9718 75.8991C102.836 75.8991 105.158 73.9633 105.158 71.5753C105.158 69.1874 102.836 67.2516 99.9718 67.2516C97.1076 67.2516 94.7856 69.1874 94.7856 71.5753C94.7856 73.9633 97.1076 75.8991 99.9718 75.8991Z" fill="#F35D74" stroke="#263238" stroke-linecap="round" stroke-linejoin="round"/>
<path d="M113.488 85.3463C113.488 85.3463 108.584 96.2988 102.069 101.893" stroke="#263238" stroke-linecap="round" stroke-linejoin="round"/>
<path d="M94.778 104.664C94.2932 105.042 93.7672 105.364 93.21 105.624" stroke="#263238" stroke-linecap="round" stroke-linejoin="round"/>
<path d="M103.7 94.8993C103.7 94.8993 99.4741 100.583 95.8599 103.77" stroke="#263238" stroke-linecap="round" stroke-linejoin="round"/>
<path d="M104.566 58.8823C104.566 58.8823 105.664 56.1383 106.209 58.3375C106.754 60.5366 104.841 63.2649 103.747 62.4417" fill="white"/>
<path d="M104.566 58.8823C104.566 58.8823 105.664 56.1383 106.209 58.3375C106.754 60.5366 104.841 63.2649 103.747 62.4417" stroke="#263238" stroke-linecap="round" stroke-linejoin="round"/>
<path d="M93.3431 59.584C93.3431 59.584 91.0185 58.0787 91.1557 60.1328C91.2929 62.1869 93.3431 64.5114 94.0291 63.2688" fill="white"/>
<path d="M93.3431 59.584C93.3431 59.584 91.0185 58.0787 91.1557 60.1328C91.2929 62.1869 93.3431 64.5114 94.0291 63.2688" stroke="#263238" stroke-linecap="round" stroke-linejoin="round"/>
<path d="M103.747 62.4417L103.61 70.9285C103.586 71.4059 103.467 71.8739 103.261 72.3052C103.055 72.7365 102.765 73.1225 102.408 73.4409C102.052 73.7592 101.635 74.0036 101.183 74.1598C100.732 74.3159 100.253 74.3808 99.7761 74.3506C96.0835 74.3506 96.2207 70.1053 96.2207 70.1053L95.3975 63.2649C95.3975 63.2649 101.281 63.9469 103.747 62.4417Z" fill="white" stroke="#263238" stroke-linecap="round" stroke-linejoin="round"/>
<path d="M99.9796 69.5369C101.116 69.3291 102.547 67.9924 103.66 66.7576L103.711 63.5275L101.438 62.1555C100.147 62.3478 98.8412 62.4174 97.5374 62.3633L95.6479 64.1743L96.0086 67.177C96.9964 68.3099 98.6036 69.776 99.9796 69.5369Z" fill="#263238"/>
<path d="M92.3593 57.6241C92.3593 57.6241 90.7168 52.5594 95.1033 49.5489C99.4898 46.5383 104.119 50.3682 104.684 54.2019C105.248 58.0357 104.821 63.0964 102.767 65.9619C100.713 68.8274 99.4388 69.043 97.1574 67.33C94.8759 65.617 92.5122 60.8973 92.3593 57.6241Z" fill="white" stroke="#263238" stroke-linecap="round" stroke-linejoin="round"/>
<path d="M94.9937 60.3955C94.9937 60.3955 95.9227 61.1795 97.4476 60.3955" stroke="#263238" stroke-linecap="round" stroke-linejoin="round"/>
<path d="M100.16 60.1445C100.16 60.1445 102.195 60.8227 103.041 59.7212" stroke="#263238" stroke-linecap="round" stroke-linejoin="round"/>
<path d="M98.2119 63.4491C98.2119 63.4491 98.9724 64.041 99.482 63.8725C99.6502 63.7887 99.798 63.6691 99.9152 63.5222C100.032 63.3752 100.116 63.2045 100.16 63.0219" stroke="#263238" stroke-linecap="round" stroke-linejoin="round"/>
<path d="M98.3921 65.1427C98.786 65.3259 99.2291 65.3753 99.6538 65.2833C100.078 65.1913 100.461 64.963 100.744 64.6331" stroke="#263238" stroke-linecap="round" stroke-linejoin="round"/>
<path d="M94.6523 59.0431C94.6523 59.0431 96.2635 58.1964 97.5335 58.6198" stroke="#263238" stroke-linecap="round" stroke-linejoin="round"/>
<path d="M99.6504 58.5335C99.6504 58.5335 101.007 57.432 102.449 58.1102" stroke="#263238" stroke-linecap="round" stroke-linejoin="round"/>
<path d="M93.4254 55.5896C93.4254 55.5896 93.9507 57.2948 93.8174 57.9416C93.6841 58.5884 94.472 60.4308 93.2921 60.2936C92.1122 60.1564 91.5869 55.5896 91.5869 55.5896H93.4254Z" fill="#263238" stroke="#263238" stroke-linecap="round" stroke-linejoin="round"/>
<path d="M104.695 58.212C104.695 58.212 103.649 59.1293 103.649 58.0788C103.649 57.0282 104.433 56.5108 103.778 55.7268C103.124 54.9428 101.818 54.4136 101.818 53.1043V50.8777C101.818 50.8777 99.0742 53.6217 96.7222 54.9388C94.3702 56.256 92.0182 57.036 90.1719 56.3814C88.3256 55.7268 90.8265 53.3669 90.8265 53.3669C90.8265 53.3669 88.0825 54.8095 88.0825 52.3164C88.0825 49.8232 92.6689 46.554 96.8633 46.554C101.058 46.554 102.496 49.298 102.496 49.298C102.496 49.298 104.986 49.298 105.381 51.5245C105.777 53.7511 104.695 58.212 104.695 58.212Z" fill="#263238" stroke="#263238" stroke-linecap="round" stroke-linejoin="round"/>
<path d="M98.8506 76.7066L100.477 87.9923L105.84 87.4396L104.703 75.7815L98.8506 76.7066Z" fill="#263238" stroke="#263238" stroke-linecap="round" stroke-linejoin="round"/>
<path d="M107.835 83.202L107.012 81.3478L105.162 80.1169L105.366 81.3478L106.087 82.9942L102.9 82.4807L100.121 82.3788C100.121 82.3788 99.811 82.9942 100.121 83.1001C100.43 83.2059 102.473 84.0252 102.473 84.0252L99.4896 84.3309C99.4896 84.3309 99.078 85.1541 99.4896 85.3619C99.9012 85.5697 100.619 87.4199 101.751 87.7139C102.884 88.0079 107.016 87.1102 107.016 87.1102C107.016 87.1102 113.602 98.9408 114.938 99.8659C116.275 100.791 118.745 100.278 119.36 99.9678C119.975 99.6581 121.12 98.0313 121.006 96.1615C120.955 95.3422 108.56 84.8484 108.56 84.8484L107.835 83.202Z" fill="white" stroke="#263238" stroke-linecap="round" stroke-linejoin="round"/>
<path d="M113.833 77.8434L125.134 73.4765V64.8996C125.135 64.353 125.352 63.8292 125.739 63.4427C126.125 63.0563 126.649 62.8387 127.196 62.8376H152.256C152.803 62.8387 153.327 63.0563 153.713 63.4427C154.1 63.8292 154.317 64.353 154.318 64.8996V78.792C154.317 79.3386 154.1 79.8624 153.713 80.2489C153.327 80.6354 152.803 80.8529 152.256 80.854H127.196C126.649 80.8529 126.125 80.6354 125.739 80.2489C125.352 79.8624 125.135 79.3386 125.134 78.792V76.6713L113.833 77.8434Z" fill="#263238"/>
<path d="M112.958 77.8394L123.829 72.1711V63.5941C123.829 63.0473 124.046 62.5228 124.433 62.1361C124.819 61.7495 125.344 61.5322 125.891 61.5322H150.947C151.494 61.5322 152.019 61.7495 152.405 62.1361C152.792 62.5228 153.009 63.0473 153.009 63.5941V77.4631C153.01 77.734 152.957 78.0024 152.853 78.2528C152.75 78.5032 152.598 78.7307 152.406 78.9223C152.215 79.1138 151.987 79.2657 151.737 79.3691C151.486 79.4726 151.218 79.5255 150.947 79.525H125.891C125.62 79.5255 125.351 79.4726 125.101 79.3691C124.851 79.2657 124.623 79.1138 124.431 78.9223C124.24 78.7307 124.088 78.5032 123.985 78.2528C123.881 78.0024 123.828 77.734 123.829 77.4631V75.3463L112.958 77.8394Z" fill="white" stroke="#263238" stroke-linecap="round" stroke-linejoin="round"/>
<path d="M135.408 72.8179C134.773 72.8179 134.472 72.5945 134.338 72.3161V68.4785C134.338 67.858 134.152 67.2518 133.802 66.7392C133.452 66.2266 132.956 65.8314 132.378 65.6051C132.394 65.537 132.402 65.4673 132.402 65.3973C132.401 65.1391 132.298 64.8919 132.115 64.7097C131.932 64.5275 131.684 64.4252 131.426 64.4252H131.175C131.047 64.4247 130.92 64.4494 130.802 64.4981C130.683 64.5467 130.576 64.6182 130.485 64.7085C130.394 64.7989 130.322 64.9062 130.273 65.0244C130.224 65.1426 130.199 65.2693 130.199 65.3973C130.199 65.4592 130.206 65.521 130.218 65.5816C129.624 65.7979 129.11 66.1918 128.747 66.71C128.383 67.2283 128.188 67.8456 128.188 68.4785V72.3161C128.055 72.5945 127.753 72.8179 127.118 72.8179V73.8881H130.254C130.254 73.8881 130.254 73.9312 130.254 73.9508C130.254 74.218 130.36 74.4742 130.549 74.6631C130.738 74.8521 130.994 74.9582 131.261 74.9582C131.528 74.9582 131.785 74.8521 131.973 74.6631C132.162 74.4742 132.269 74.218 132.269 73.9508C132.269 73.9312 132.269 73.9077 132.269 73.8881H135.405L135.408 72.8179Z" fill="#263238"/>
<path d="M137.329 67.5533H148.568" stroke="#263238" stroke-linecap="round" stroke-linejoin="round"/>
<path d="M137.329 70.6893H148.568" stroke="#263238" stroke-linecap="round" stroke-linejoin="round"/>
<path d="M137.329 73.8253H148.568" stroke="#263238" stroke-linecap="round" stroke-linejoin="round"/>
</svg>
